<mxfile host="app.diagrams.net" modified="2024-02-18T11:18:01.009Z" agent="Mozilla/5.0 (Windows NT 10.0; Win64; x64) AppleWebKit/537.36 (KHTML, like Gecko) Chrome/121.0.0.0 Safari/537.36" etag="unhvZN0w4GJcbg5wM3mi" version="23.1.1" type="github">
  <diagram name="第 1 页" id="MjxazNQTYeiGVGqIgYC-">
    <mxGraphModel dx="2140" dy="663" grid="1" gridSize="10" guides="1" tooltips="1" connect="1" arrows="1" fold="1" page="1" pageScale="1" pageWidth="827" pageHeight="1169" math="0" shadow="0">
      <root>
        <mxCell id="0" />
        <mxCell id="1" parent="0" />
        <mxCell id="pqZaEl-TZBbs2sVHaPAl-1" value="" style="shape=image;verticalLabelPosition=bottom;labelBackgroundColor=default;verticalAlign=top;aspect=fixed;imageAspect=0;image=data:image/png,iVBORw0KGgoAAAANSUhEUgAABBwAAAK2CAYAAADtzI+3AAAgAElEQVR4Aey9PY8USdP3OybSerjHmO+ymNgIrYM70mr0OHwDLNaAa9AYOA8CC7HqvXkRQoueI65bQkcatIIVHG5rXbS8SbvOsVdxrsjMf2ZkVGZVdU/PTA/zH6nJt4jIrF9mNxVRWVVb7z/8I/yQwVldA//X//r/hJ8hg7O6Hnjc/C3kGuAa4BrgGuAa4BrgGuAa4BpY3xrYEv6RAAmQAAmQAAmQAAmQAAmQAAmQAAmQwJoJMOCwZqA0RwIkQAIkQAIkQAIkQAIkQAIkQAIkIMKAA1cBCZAACZAACZAACZAACZAACZAACZDA2gkw4LB2pDRIAiRAAiRAAiRAAiRAAiRAAiRAAiTAgAPXAAmQAAmQAAmQAAmQAAmQAAmQAAmQwNoJMOCwdqQ0SAIkQAIkQAIkQAIkQAIkQAIkQAIkwIAD1wAJkAAJkAAJkAAJkAAJkAAJkAAJkMDaCcwOOHz+9b18d/mtfPe//1z7IFYz+EX+fedf8sv7Me3/kV/+9Yv8z5jIZNs6bEx2MiIw3v+X/74jd/77y4i+b1J7/5J/6efOv2UZTW+JZRIgARIgARIgARIgARIgARIgARLoEZgVcHj1v9/KD7/+LSHocCIBBw0u3JF/f7aHwYCD0lg+4JAYfv633PEBh/e/MAhhlxjzJEACJEACJEACJEACJEACJEACKxOYFXCA9ZMJOMQr8q2r+P/zX60dDjEQEa7ghyv5ZYeDOue5vuVs48p/2hWh9rM82v5L90vomOoAiMpijP/zX3fk3//9S9ZFfeCoTj1s+TEAdJXGHQ7/zmNP/WrAAHZyatru/CK/3NHx/yLQrXaDtAIOKYDBnQ/VBLBAAiRAAiRAAiRAAiRAAiRAAiSwAoENDzjEYEPlKJuDbAUcrOMfAwMp4OCu3ofgQwgeiEhw3ktgwnSRggvDtnpnQQwK4NaNEKjIwQQTnHBOfjWGulNTigz+lcbqdepxJLUUjPjlfQq+/Nf/DHdCuLGYDkVCUGR4zJUMCyRAAiRAAiRAAiRAAiRAAiRAAiQwQmBzAw7Baa53EfjjCDsJqtssasffBhwGjrlxuAdtVUfeZmo0+uqg210MPhCCcggW5N0IafcEgh5Vn7bg+tdggNFpjj2PrdyKMpDLMrYvkw9Bh3H+RppZEiABEiABEiABEiABEiABEiABEqgIbG7AIQwzXt3v7XCojiTL2yvzxVkfc7gHbZXhYqOq1r0PeuvEZ01tn1q2t3qUZ02M9+Oto+z6P46AA3c4AD5TEiABEiABEiABEiABEiABEiCBFQlseMBBjyoGHewOgnis0ZGv64tzHzTDMxhSMECd6HybQwwK5J0Cow629t+50h92NvxbfjE7DtBvDpLoTgK8KcPm40HM+Hc64JCPA9by7oXldzhoUMRygkmmJEACJEACJEACJEACJEACJEACJLAMgVkBh/xKTH0tZvr89P8u081hZYvjXCy1Ag6Snj8Qb1f45X3trIdnK+CWBhN8UJvB0UYbAgSps6qtCi7EYEgOLiT5qh8XrKhs/cvuhChHVufqYwjPV2iMIT6IMgVGxgIOIejhHoYJey4oU4+DJRIgARIgARIgARIgARIgARIgARKYT2BWwGG+uTMmmR37+rjrWyrqNpZIgARIgARIgARIgARIgARIgARI4CwQYMBhlVnOuwTqZzfAFAMOIMGUBEiABEiABEiABEiABEiABEjgrBJgwOGszjyPmwRIgARIgARIgARIgARIgARIgASOkAADDkcIl6ZJgARIgARIgARIgARIgARIgARI4KwSYMDhrM48j5sESIAESIAESIAESIAESIAESIAEjpAAAw5HCJemSYAESIAESIAESIAESIAESIAESOCsEjiVAYcv96/Knfufu3P2/tpFWRx0m4cNB7fl5tbF8BmzWym+viF3L5wPn8WjL1XT8RXeyfXv78n11yKv9u7Jub13011/eimXd19Km94K9qZ7pAQJkAAJkAAJkAAJkAAJkAAJkMAZJHBKAg5f5fGPO/L4Y5yhtQcc0sRP2W2tj78eXZGTDTj8LA8+rTPg0Lb35ta27Dz52kLAOhIgARIgARIgARIgARIgARIgARIYEDgFAYc3sr9dO7sxMPBUFmlXws1rb+OBmZ0K2LFwc+u2vBeRsOvhWtzJcOd+0r30VOzehLUFHMzuB90F8fx14v5pIYu9hRzsxp0Rdy/ckD/ylHwx9al977fc2s7ojoQYIPj88Ge5/DBFZCQFIP6z++EcPtjVkHY4PNAdEaHtmbzKxvv2RDToU89DVmOGBEiABEiABEiABEiABEiABEiABByBDQ84xGDD/u/1qDUwcHPrqrz4oPVvZZHzUa51S4XW3dQAQwhKqK7qxWAErK8t4ACDIf1NniOwoAEHE4D4Y+983h2hOyXuIsAQ5FIw4uNj2dnelm37+fGxLLPX4NVeDEqE4WjA4ft7OTiht2LYQEU19EZBdzps33rTaGEVCZAACZAACZAACZAACZAACZAACRQCMwMOf8pPl9/Kd+nzw69/FwtHlQuOdrmNwnZTBwY+y4tLCD5EqV7AITzXQQMOYUfEEQYcUmABz3jIOxm0fnchf6WDsbdjdAMO9sBXyOvOB33GQ/5zz3DwOyOy3EgmBB2WDHqMmGMTCZAACZAACZAACZAACZAACZDAN0hgZsDhpI68v8OhPNxx0wIO8daI8lwHt8OhE3CQ3m0Yh9nhoMEF/yDJQwYcuMPhpL4L7JcESIAESIAESIAESIAESIAETheBDQ84KMzeMxzwnoV2wKEEJOKE5F0PR77DIQYc8NyGsHPB3lLRCTjo7RXQWc8S+igPdu3zGZLVlQMOfIbDeuaFVkiABEiABEiABEiABEiABEjgbBA4BQEHnYixt1QMAw7y4ancwQMl7UMj9VWZjYBDfCZEfC0mHjY59VrNGEjAwx9jmgMGZrfC4tGifoZDJ+DgdzhUD5tcYS3qrRL5gZHh4ZDpOQ4rBhz4looVJoEqJEACJEACJEACJEACJEACJHCGCZySgMO3PkO6K+KKHHwqx1k906FUM0cCJEACJEACJEACJEACJEACJEACp4IAAw4bMk2DHRNmJ8SGDJHDIAESIAESIAESIAESIAESIAESIIHZBBhwmI2KgiRAAiRAAiRAAiRAAiRAAiRAAiRAAnMJMOAwlxTlSIAESIAESIAESIAESIAESIAESIAEZhPYqIDD+w//zB44BUmABEiABEiABEiABEiABEiABEiABDaXAAMOmzs3HBkJkAAJkAAJkAAJkAAJkAAJkAAJnFoCDDic2qnjwEmABEiABEiABEiABEiABEiABEhgcwkw4DA6N29lsXVb3o/KrN745f5VuXP/8+oGqEkCJEACJEACJEACJEACJEACJEACG0qAAQc/Mb/vy/atN6n2GAMOHx/Lzva+oGc/LJZJgARIgARIgARIgARIgARIgARI4DQRYMDBzNbXJzuyXTn9MeDw4v5Vubl1UW5uXZUXH4rC+2taFz/VToWD27le2xcHRUdcW6WnwY6qf6PHLAmQAAmQAAmQAAmQAAmQAAmQAAmcIgIMOKTJCsGGHx/L12ryNOBwUW5eextq9RYImy/Bgs/y4pILLGQ7ZpfEh6dyx9yi0bylIux02JHHH7MBZkiABEiABEiABEiABEiABEiABEjg1BGYGXD4U366/Fa+S58ffv37SA70pF6L+ebWtrmNwh6aCRZote5OCMGHGGDA7gakeSdDCCyU3Q83U5DBBxh8Ofccgg7bsv97rmGGBEiABEiABEiABEiABEiABEiABE4VgZkBh+M5ppMKOOjR9Xc4mIdGVgGH+vaKQigGI8ruhxK08AEGXw42uMOhoGSOBEiABEiABEiABEiABEiABEjg1BJgwMFMXe8ZDvktFTngIKLBAtxeYUyISH17RZDDbRSqf+mpfFGFtAuiBCZEhM9wqFGyRAIkQAIkQAIkQAIkQAIkQAIkcGoJMODgp27sLRUm4IDAAm6nwG0TwZzK5YdJPjWv1jS3Ylx6Ku/tazH5lgo/EyyTAAmQAAmQAAmQAAmQAAmQAAmcYgIMOJziyePQSYAESIAESIAESIAESIAESIAESGBTCTDgsKkzw3GRAAmQAAmQAAmQAAmQAAmQAAmQwCkmwIDDKZ48Dp0ESIAESIAESIAESIAESIAESIAENpXAmQw4nOTbMDZ1IXBcJEACJEACJEACJEACJEACJEACJLBOAgw4rJMmbZEACZAACZAACZAACZAACZAACZAACQQCDDhwIZAACZAACZAACZAACZAACZAACZAACaydAAMOa0d6vAa/2FdrHlnXv8nzCzfkjyOzP9fwCuP49FIuf/+zPPj0UR7s3pPLDz/O6uzzw59HZN/J9e/vybnwUdsTJsMYIF+P4dXePTm3907k9TM59/0zedU09Ub2t/flTbONlSRAAiRAAiRAAiRAAiRAAiSwmQQYcDixeVmPE8mAw8QEBmdfHfn1BRzGgxF+PLHf669Rr8GKEljQgEMIgowEHL4+2ZGdJ19hQN7c2q7KuYEZEiABEiABEiABEiABEiABEtggAgw4nMRkfHwsO9vbsv87On8ri63bsrh2UW5uXZUX92/Lza2Lcuf+5yjw4anc2dI2/dyW91pb1aHtqrz4kGweRBtR56IsDtDXRPr6hty9cD59sKsh7iw4eHQl1V+RA1zV/7SQRZY/L4tHX3IHfz26IotHC3mO9t2F/JVatW3YT2z8Yw/9F3u2Luvt/Zb76mZywEFEnfvs+Gv97ktJhCUHEdxuhNYuhspOt+PSkHcxaJUGFky/OeDgxlO0W4Gpr/L4RwYdCiPmSIAESIAESIAESIAESIAENpEAAw7HPSsh2LAjj6ud/RpwiAGG9xp0uPRUvmjA4NpbEYnBiBBk0LFqvbancc/b4eBs9I45BA8QZLBCGnA4L3eTgx+CBU1n/4sc7JZgRAwqFHsaNHgervT3b42IQYp8dHKwCx0dT1tPr/hvb9efEsyxx2HyzsHPAYck4starXUxAFFujwi3QxizvWzW1dsnlvn7fV+2b7VvpgjH3WlbpgvKkgAJkAAJkAAJkAAJkAAJkMBREJgZcPhTfrr8Vr5Lnx9+/fsoxiLH9brK4+pnAEmdx+a9+CUgoAGHsBsBAQe3UyHsWJgTcBjsgEg7IwaDKhW1s1/qB46+7oLIAYcUjMAuhgt1wMHueCgWNTChuxiKbGxDfdnhoLsZYpBCJdoBh2J3idwKAQdYb+9wsM91qJ/TEIINaVdD2O1gdjjAZjvVnQw+OFVLhqDDj4+l3HBRt7NEAiRAAiRAAiRAAiRAAiRAAidFYGbA4XiGd1yBgOPqp0mtu8MhBgSaAYew06FpTdo7HD7Li0vmlgy/S6JtSlYJOIRbHXLwYbjDoR1wwAAQYEDgodaHVEnbAYfj2uGAcbQDDmj1qQYi7IMl/TMdvLwpj+xuUCnucDCsmCUBEiABEiABEiABEiABEtg4Agw4nMSUdJ7hoLdNDAIOIVhgns3gxqsBh3jrhW2IAQc8tyHI4NkPVsznw/Mbyi0Qpdk5+maHgwYcclAh6CN4ICMBjGJZc+VWi6hTdk/UcnGHQ7HvW5cqh2c1PItvhQj5xq6Ezu0PywUcfIDBByD6o9aAQvvWED7DoU+NLSRAAiRAAiRAAiRAAiRAAptCgAGHE5sJ+zDAkVsqdHzutor8MMkwdtUdf2jknftPw0Mp83MgRo45PncBtzQg+NAPOIh9aOTeYvAMhxyMsH1aHb0VwzxMUgS7HvwYooFqfHlnhTU+Px9ubwivtnwmDwavwbS3SNgdCu7hk3O6SwENPP8hP7hyTFeDUp1bJTQQYd9aMWaGbSRAAiRAAiRAAiRAAiRAAiRwUgQYcDgp8uyXBEYI9Hc3jCixiQRIgARIgARIgARIgARIgAQ2iAADDhs0GRwKCZAACZAACZAACZAACZAACZAACXwrBBhw+FZmksdBAiRAAiRAAiRAAiRAAiRAAiRAAhtEgAGHDZoMDoUESIAESIAESIAESIAESIAESIAEvhUCDDh8KzPJ4yABEiABEiABEiABEiABEiABEiCBDSLAgMMGTQaHQgIkQAIkQAIkQAIkQAIkQAIkQALfCgEGHE7LTIZXY96WOa+2PC2HxHFGAp8f/izndl/K540EEl9T2ny96UaOF4P6KA9278nlhx9RwZQEjofA62dy7vtn8up4emMvp5bAJvxGbcIYTu0EcuAkQAIkQAIzCTDgMBPUkYuFgMJFubl1Ue7cb7ieSwYc3l+7KIuDIx+1yOsbcvfC+fBZxil9tXdPzu29E5l9cv5Orq/7JP7TS7m8RkdfAwerOLjHEnDQY/3+Z3nwadkTzBkBB10De79NL7apMYT2e3Lue/0c1mFb9jinh9+SyHOXj60lVdf9sXdenr+u6w5f+k2ep+/h3QtX5ODThMU8XsdJ60e+E/01fgTfz4lDkJGx9sc5NKq/RdeXnI9Rndm/acOxVDUjx1fJzSwsw2SmyRMRG2W/xhE1eYXvzen6jRpH4r7/48LjrYHN9P8xX5/syM6Tr+O22EoCJEACJPBNEWDA4cSm843sb+/LG9f/l/tX2wEHJzdVPLaAQxrIX4+uyLIBh+Cczz45PwKH5iyd0IeTQXXi13iCiUW4VMChP4bjciQw7HWk6pSEwFk+2Z62ehQBh2W/f8FZD0Edtx4mvhNNJywc8hF8PydQ9tfLcmPp2+kPYBWdvrVOy8RcdLS61f2566psXsOamfQPsL2GjmXe+4Pa7JbwG9j/fY+Dd+c9Hx/LTuM8aLMPlKMjARIgARJYlgADDssSW4d8+E92W/Z/HxobBhw+y4tLcefDza36lgqVXdx/Kne2Uvu1t9mgDTio3M2tq/LiQ25uZ4LjuJCD3bhj4e6FG/IHJD8tZJGvoJr61L6sw6MnbiHgMDiBjA5QvMqddkGEPuIJ4AN18MIVcL2SgsHVOnaXQTzJfinXg869dOtCLY++rF7ceeGvZLmTUA2W6C6NcKIFWaR2fBinT9Vekm9cVQ7ObKs9BGnQj57gxT+Vv/5QdzKkNh0b/vLJoMjsk2ZdD73dK9V6OL/EDoc43uEYdE4azBxbzFFgY49PzNwYPpAHBk17XHv1r/Z+lgcPdZt85GptlnGY/m1njXwIODwq36cSqNNdCjfk4NGVzN3uhFC93nwsHcTorQet330pD3QHUjjetL7cPNjvoM4l2OQ0zY3y6a7JMGdF13JVbMFu43sRkKZxNvaChfmtbbnvO9aNWSd53HlnjdPBOGbrlO9lXgKVbqM9C6ZMdYzptwJjd+yqHRqdfnQuMpckk/UqHbPjQ8ew9zLcnhQZlXGPfS/8oVTlqq/l7A1+NypbZtzKp1rH5bdlfE3GkVas8uA7v1GdMaiN8P9D1je/EUYnz0mWq9eebQ828fuONRm+K/3fqGzWZ9Y8hhLE7P8f09zd8Pu+bDPo4GeHZRIgARL4pggw4HDc0xmCDTvyuHNr+TDggAG+lUUj4FCCENpeggo54LDMrRiv1cEs27FLECE6Qjn4oHK7C/kLQxORIovKr/L4x23Z3raf/nFDKzj6+aQ614rgBNs4MjiZ05PQclIWT9ZwIh1P0OxJrTkprU7oTV9anx0PUx/GUGz5sbZPUq1+J98ah54MmhPKrOnHZuTqY9WT23KSnfVXyAznVtdDWSfhtpp0S8WbW3a+Y74VWLPDaDmsZT6tpD3hNyfvKqIc3LppzofhZS0HfcM7sEz2KsfX86+MzCvEwEEK2oXADQJ48baIHIDQtvQ9q+cg3uaiwQitRxAip4eYCwTPwL/+bsVgDdrqo3XzkRrrNTn8brZtReWKe91ZI6gAAbtGUl1jbUBaU+0Hvxe23ub9WhrXabBYZd3k34XIrbCqOcbfxvRd9/2Y9Z6PIciM/TaY8QfZwqf7vQi/jWM2E00/PgO5mu+mnBmX0StZ26558/+C41Bu2fIs1dpwDYWxwdFvBB77Y+j/f6E6eU6KgbAey1ybBnMM0MVv3jQ7Y8dl1zUGZ7ZR1HOCzjnAxHlRwxirSIAESIAEThGBmQGHP+Wny2/lu/T54de/j+QQ33/450jseqPH1Y/vV2ZE8pcNOJTnPehOiDrgoM+DKAGJwWiGFRpIaN2Lr/V5d0O6yjoZcBian1WTTnCHzrY9mbQO5vDk0J5A2fygf+3LOJlo7+v0xhA1+3qw3Ekb4+g6NAPnqYyp7n/IpdP7ZHXt7Cp7t058edJiS6A33ug4lCvQxamxjGwe1msesbYlpy0DWTMntU7hjX6WTevdCDaYZ/PWagww+O+g3/1gy1Z7qbw5btXzXHy52G5z8fJVWdeyOm8uUFRs9nLtvoL04PshZQdS47uuOvX8lj61vqw747yO6ETt4fiq4y5djOd0LprO7dB+PobB8RdZHUM8nvIdygMwfUWZZ3HnlFsPISCVOOY+kxFfzrZNZoxDrV/GDfWmbm/cPjhsyt6OL7eCl3EMnd+o7hjqtVUfX7Q46NuME8eNdCBr5qa2PWQHG610YHfFMbRsV3V6/nPL30RqJEZ2fhopZkmABEiABE4hgZkBh+M5suMKBBxXP01qE5H8dQYc4u0WJQjRHI+t7DmOvXqjO3BKZcUdDrCJk7jsJLiTqHxiPTwJtCdQNg/TOTUnbLmu4WSVtt4YosRoX8XIMNcYR30CaVTycaOujKnuf8gFGsumg7n168GUV9nhEMfTHq9yKA6pk1FuwVmN26f99vqaR+ylx3Uga+ak1im8l+UI+dUCDmZHCQyZtLYZG1aaC3PcasVz8eUyhDYXL68sB1dvdU0vEXjwNssY3PooDTGnx6b95N+UWF3Pb1IKY3pW3a5kx93Uyf0NWfTHnJWGmTQX4faWKigztJ/HM/n7EG8vq3d0KDc7L8a+Ww92J1DuM4w82qjtDg9pjENtz4whmPFlrRwZt3eaw9zH+fRj0H7L3I6toVbb2BhSsGup36jWcUaOftz94E/fxnBGht/xuGOmrH2rMzYGKzfMj+xuUOGJ86KhPdaQAAmQAAmcJgIMOJzEbI1E8tcacNC3VHzQZzzMDDoYx7HG4rbQ142hNHBKGzLLV9kTJ5u3OxziVaRywqhy9Rbg0uZGYE5CqxbnbJQ2tY2rg7Gf4gzHEzdbLnoTOX9Snxw97xgFK27MegIIufpksHVyPDGOTvNgbhu3ATR3xnTstavb462cgTAv4K9WVOeZvHr9zDgMxXrNI9ZbXkUyrSfjiGq/mMtxR6iyMqtQBwfsrgabr03pHIwxrm3WukuV3Fr0DAO/yvmFdfvdQJ13ZtoyQdr1q3VhDsycRKvtddKzEXXsvzqG2pmq1hhEda3lvuN33f6ONHWg651dre/+piSl8L22jm9yVtMYAovMXRmU37h4G0z6Xsz6fYjHU4IDtb0wx2Dk5sUet+azDdevHlW0Y7+v4xwqe56h8svHD9Aj43b6dt1qvsylW5PueNFTTFtrb2wMqqXty/xGRXtlfGYE1ZpM34/EZJRdby6S6ZoHxuzWIoYxMgaINFM95/nxsTTfTTFj52fTJitJgARIgARODQEGHE5squqnNWugId4CgQdE4rWW+myGUhdkLj2VLyJSByeGt1Tk12KmV27mcu+YuwEHPVGsb6vAfebBEXK3Wxxma3c8SS1bmcuJl3MUqhPQeAKN7c9Fxzs8wwPXE7WeHurL/b44iVad9JCu6iTYjsOdaA+7Llu907Zpf5XXjq04P3YMOo7iPNUnjq2T49Yg+nVjc6sObtzif0P+GFs3ffOupTPe4MikOQoPr6u5xvXSqivzqlyzYwRHFsyzU5lO4Dv1Rd+tQ3cUc4p1cMAGGWzeW/K3VeC5D1Gutul1lyg7h6teU2qnv8ar7276XlR1Y/Pg2rSnsP7N/ISjqL739XHVTldp82Owvw9Byq6x/H2Kjl/8DXgm+rDaSq+pY9mk9WfGX4+jfG/tGAZ9ZP00HpSr/uv13etH67P9pJ/LyjWt/csPdRdEGp/rxzr91e9TDsR67vV3U1t746vnz37POr8Naqw37mqd1rta6v5rdvUYyrHEXGcc3TFErdhfzcGPof6NqtdRniN8J1b4jTqOMXhatqy7rZrP8gkXX4Zv67K6zJMACZAACZx+Agw4nP455BGQAAmQwEYSUEfHOkyHG2TH4VOj6hjDGT9cJ9S2BEa4jjvn1sgh8yNBpr5lG7CopbprcuRYawssLUVgbHfDUoYoTAIkQAIkcFoJMOBwWmeO4yYBEiCBDSfQde42fNwcXiIw4oQfW8BhpclYIeCwUj9UIgESIAESIAESmCLAgMMUIbaTAAmQAAmQAAmQAAmQAAmQAAmQAAksTYABh6WRUYEESIAESIAESIAESIAESIAESIAESGCKAAMOU4TYTgIkQAIkQAIkQAIkQAIkQAIkQAIksDQBBhyWRkYFEiABEiABEiABEiABEiABEiABEiCBKQIMOEwR2vD2+tWYGz7YWcOLrwTT1xDqQ8nsa9jiK/nc6+TSa9bW9yT8WYNck5B5/dlanrA/xm5NQ55hRl+nidemzhCfFFn+lY/jHF7tpVfU+affm9fb1esuvZIwvI6ufr1deDtC4zV1elBh/aa28lpNbRmx1xuDPrwvvHow6vbW+9cnO7LzpPm2+0nOFCABEiABEiABEiABEiCBdRNgwGHdRGfbeyP724d///S3GXCITt23H3BIi2XkSfCzl1MQVEe7x245S4eR3oyAQ58DAg7VGxSCQ1+CWbr24NTbfAwwQK7wVl5qD4EKm4+BshKo6NobGUPpdyzg4H5T+I77wyxj6pIACZAACZAACZAACayBAAMOa4C4tIngCGzL/u/QfCuLrduyuHZRbm5dlRf3b8vNrYty5/7nKPDhqdzZ0jb93Jb3WlvVoe2qvPiQbB5EG1HnoiwO0Fc/VUfx+aOFLC6cl/8PEfEAACAASURBVLv62fstC+tV5lAX2m7IH6HlN3l+4YY8D21X5ODRjSBTrm5/kYPdovf8dTY3kilOnHUIQ/ABV5KR7r0LdqLcS7nu6mMn9mryPcGVZrV3fe+ZnPteHcuka3YZ2P7geI4MOjbZq9PfwynVpnjFXfvSD8aQ7TUDDj0dPZ6f5cHDOPY4/o/JVJtd7qeb0XlszVM9f2Vef5Pnuws5yGviihx8EpFPZu1ke6kt9F3by+tB9fYWZq2k9fU6rqey7nSMWHvdg0m8o4Nv11C1GwFrRdO9dyFYUOY5rZmwHpSpmcs0x2EONZ/WoI4mrhmVTXOkTPQvBBIQwOjbq8aKXRBYkyYYEdZu47vU3N3w+75sryGwmY6ECQmQAAmQAAmQAAmQAAksRYABh6VwrUE4BBt25DF8xGBSAw4xwPBegw6XnsoXDRhceysiMRgRggwqq/XanoYyb4eDs9E5DA04FIdOnVDrLBoldQRDMCI6quqIhoDE7kL+ym0S6rJTKcZecIK2ZXvbfG69MR30ss5ZS2LqqJ1LV/ZbV5OLg18c8uAcqjMXHEh1TovtluNXbHTGZhzCWiI6r0W/jCHLDQIOYzrJGc6Obhl3trdUJgYByjwVZZ3TEmSwcmXeVTqsGxOc6u1wqG+NMOshBSowhrpfv47S+FLQrlpDPz6W6ZsJlF8MIFjHveSV5z25/vClXNb1YeYmrLPdl/JAg1Wv446GGKSIcxIDV2rbzElYX8/kwcOf446JEXvdMZQpGcl9lcc/+t8Vy6rTNmKRTSRAAiRAAiRAAiRAAiRwWAIzAw5/yk+X38p36fPDr38ftt+m/vsP/zTr1115XP0Mxt292lgCAhpwCLsREHBwOxXCjoU5AYfBDoi0M2IwqFJRO4rqYJaAQwxGlKvgJeAQrzhnZzIHHKJTWl+dLvZKr8vkjCNn1IYBAmxfj84jdhbENLZl5y5fpYbt5NDbK+DqgKYryjG4EXcqnDNXvusxmMFZ5zNV574hZpzQWIWxQCBePY9j0PHh+Er7yjl19jVQNDBQz782l/Whc2t2GuQ5j0aKnDU6sh7cGLx+XlvW3Mr5d3I97RrArRVqKs6Jck9sMScpfWVul8D8xTl/Jw92sT4wbynVtZX6yutjxF53DHOOVX9bxoJ2g11Vc4xShgRIgARIgARIgARIgAQOR2BmwOFwnczVPq5AwHH10zzu7g6HGBBoBhzCToemNWnvcPgsLy6ZWzL8Lom2KeNQqoBxOMMVaBMsyA5mcTyzU9hoG3R3BDsc6u3wcMjhAA5GkBxMEWkGHKA/1OvVZIdyIDAcAxzWLArnNleM6ZzmgIMJUuRjTbdimKDHrIDDCjscdI7q4FO5xSW2mXnPwQKdC/vw0hiQCsEflTHBKP+cBQQb9FB1zuMa7dvrj8HCauVHdjeoePM3p2WHdSRAAiRAAiRAAiRAAiSwXgIMOKyX5zxrg6uNIzscQrDAPJvB9aABh3jrhW2IAQc8tyHI4NkPVszla0fPBxzgLGo9nu8wFnCIW+HLlnzX2UpFddaMU5hs1M5+7ZAXR6/uMDv9g4BD/fC/WmukFJzPZ/JqIGIcVG3T4II/hkHAYUynPr5Bd0tXxJ0HuJ3Bqte3Nli5Mu9BPgeZorauI/v8D9is7aF2XsBhbetIWYfbUVxQp5qDyB9BrLxWdMjVPNc2VA7PdKjWpJvzrr2RMRhaw6z+nvRuJ+nuqhqaYQ0JkAAJkAAJkAAJkAAJrJsAAw7rJjrbnn2i/FjAIT23IT800u5c0M5Ud/yhkXfuPw0PpczPgeiMsRtwkBg8iLdHpIdD5mc49G6p0E6ik5pvqzBXsTtDmKyOV4HTLQ3VQyPxUAzvkKcryrhFIm+nT9vgGwGH+rWF2lcrkDAcajU2qxMcTtyGge33CD6U+nD1Hc9m6On4BxIOh7F8TXqGAuapBB/q+StO/3jAoZ53szOmtx4mbqmoH0aJwNfyhxk07HyntQBL1fxhHkKjXUMu4BUCEGkOK3sxaIEdFbglJ/bVt9cfA0Y5TN/csg+gNe0hsHn4N+EYi8ySAAmQAAmQAAmQAAmQwFIEGHBYCheFSYAESGCDCIztbtigYXIoJEACJEACJEACJEACZ5MAAw5nc9551CRAAiRAAiRAAiRAAiRAAiRAAiRwpAQYcDhSvDROAiRAAiRAAiRAAiRAAiRAAiRAAmeTAAMOZ3PeedQkQAIkQAIkQAIkQAIkQAIkQAIkcKQEGHA4Urw0TgIkQALzCOgDJvGHh032Usj51Nrwbess98Zl6+f01xtvr75lcxnZlr7WeRu+3NNDPeSRon4q9fK+PFff6vm8lnufnn1royczVn9YfbW9qg2v58tj47b9tvRadVP2fPs6bMDmmK2xNuhrauU0P/axejZvbdj6VfPeHsqtsaEPyKDMlARIgARIYHMIMOCwOXPBkZAACZxxAq2T5lYdMLVOwH0dZMdSr9MqW31tt39TZSvr815X21t10NO2qQ9kx1Lfhy3b/JgNtFl5m0e7TX27Ldu81enlrXwvD13bjjqk2jb1geyc1PbVsgsbvg31mlobtr6V97K2bPMtXV9n5W1e5WxZ8/4DW716bwPyY+mqtlQP/XkbaEO/vgw9tPu0Zc/XeZ1euaeHMSGFPspItR55TfGBPFMSIAESIIGTJ8CAw8nPwaFG8OX+Vblz//OhbGyWcnxloL5G8NXePTmXX0+o9fNeT3nyx+NfzdkfUT7G8HrFEzo+91rK/mjntdSvV52n0+Ogr4m8/BCvPC1rI1i1r6Ss1kb9SsqiH9dUfkVlePWoe81lY7g6tq7OEY4BJ84+9UPU9tZfr74lizqv48teDu29FPJzUrUx9unZQN+99rH6Vn8q7+tbdbZfmx/rD23ePvR9/Tr69TZRxliQYgwoI+3Vo92nXn6sbNtsXm36su/Hl1Xef2DH1rfqbF82b/vw9WNl22bz6NvancpbfZsfs+XlxmR9/6rb+rTkfN0y/VhdjNemfgyQtzK+P98mUv7PyP/HwJBN+bYfS4N5EiABElg7AQYc1o50rsE3sr+9L2/minfkvs2AQ3QC6xOEbzfgEBxiBhxiYMFxsAGHMcdf5c7tvhQNvQ3XTQkYFBvLBYViwMHpuIDFUYwBJ9D4+vtyr74nB/le6vV8GXq+fqoMvTmpt9XSUZnepyU/VWf7tPkxPSvnxzKmZ9u8DdvWy3sd2/ccHZWxNqyOr/dlK9vKW3nkkULelnt5lbVt0J2TWj2bH9O1cpq3Hz8WyCKFXVvu5b0t6I6lq9iyOrDdqkObT72sL0Pe1/sy5Hqpyrc+kG/Zs/IqZ2WQRxoDDq3zCfQQ0ze3tmX/d9R9lcc/2jLqmZIACZAACaxKgAGHVckdRk+j6dv2P7S3sti6LYtrF+Xm1lV5cf+23Ny6WHYufHgqd7a0TT+35b32XdWh7aq8+JAGdhBtRJ2LsjiYHrBemX7+aCGLC+flrn72fstKf+ylutB2Q/4ILb/J8ws35HlouyIHj24EvcWjL0nvixzsFr3nr7O5kYwGFuIJgnU244kDdgCkK9jJwVRjwclMJy/5inZwCKGjUlHv+mvnOIbR2Lpk39sL+j/Lg4fP8klS7suN4Vw6hnig8SoLTpS8TijrWM3xRL3evzXXHu9SL/LHXpkfndvYVtsJc57bYt923ou93+T57kIO8pq4IgefRER3SmDt5DS19Q4l1ev8tTjkNaCBiLzbRSTXZ7uYv0Zgyugi4DDUz4YGmZ7O0MbhxoD1YQdQTpxjrS1Dfk5qbY7lrX2V82XorrNP2PT99fq28l7Ht80t+77s8cHGmIxvg85U6vXW0S9s2L5b/aAd8nNS6PRSawMytg5526Z5rfd/rTov0yp7PfRp621ebVgZ3+bb0afXsXrII4UObNnyVB42kFr5Xl2v3uoir7JefqwM+Tkp+phK0R9SyPuy1qPOp602G3AY/l6nXpq7G/SCkD1Hw4iYkgAJkAAJrEKAAYdVqB1GJwQbduQxdokHWxpwiAGG9xp0uPRUvmjA4NpbEYnBiBBkUFmt1/Y0hnk7HJyNzvg14HD3gg0mdJzF1zdSMEIDDtF5DY7p7kL+ym3q5J6XEmRQ2WTv933Z3t6uP7em9noURzIEF7rOZwwWYAs8nMVwyMapf7WXttJnZ7S2X4IC1l7MF8e36OjJTKmH4xlBd090OvMwVa1ci/NfpOv6GEwA/zw/Kh4CA5jnVNa5K6ZCrr41wtor866CYd2Y4FStB6PxqlE97/57ANmSRnYv5boLxlTzmsRD3f/dCNxU835Prj98KZfN+im9tXPBbkPnKMZgT6I13/u0R3r4WvQPS76Mep/OlWvpWV3Ntz7Qa7X16qDTS1UPf9YG6jS1MrY8t97aQt7qHlW/6MPab+UxpnWn6F/t2rwvow2pHUerzrbbvJXVPD49Ga2HDlLIoowU9VbH530Zukh7Nmx9Lw8bSK1cq07bbb3mW5+WnZacrbM668pb+5rXP1+HerT5FO0+DcYm/vn6ZEd2nnxtSMX/s9ptDXFWkQAJkAAJdAnMDDj8KT9dfivfpc8Pv/7dNXiYhvcf/jmM+mzd4+pnMKDgaLduoygBAQ04hN0ICDi4nQphx8KcgMNgB0TaGTEYVKmoHUV1MEvAITiV+ao1dj/EHQ662yEHF3LAITqluGoe02Kv9Do3p859OnGqnMUUBEBbShFwkBxQiFfFUQ9nUQMPl/d0K/675NTWwQIdXQkYDNvi6H29K+sYdFzVuOcet5crzOuWer60zc5nnp+g5Gw0n+EQAwz1/CGA5PTznMcR2X7rMS5fCoEcZbfGgMOyc6FrpaWDNWSPKtTNCHq07KkdrV/mL9hxa9/XTdnz8mNl2BqTQRtkp1KVb/316iE71Q65sRQ2fKo6qLP6qEOKNpSRor6XQs6nKo86q4s6pGhDGamvR3kqVf2pz5QNtE+NxbZP5W077PdSyPpU5VFndVGHFG0oI/X1c8pWt5W3dbDXS61sK2/rYGOqzrf7Muz0UpWf+vR0W/W9/lv1tl+1hTLyNm31VddN3dqaAuWTF0RqqyyRAAmQAAnUBGYGHGqloyodVyDguPppcurucIgBgWbAIex0aFqT9g6Hz/Likrklw++SaJuqHFQR48CGK+ImWJAdzOJ4Zoe20Tbo7hA7HB6Ye/WjXefcDzrT9mfySm+HCIGFKBCDCO9C3auHz+TBa1z1Hto7dMABY1pL4KEwh9mYmvlKDdbxz/MT2pyNbsDBzHnVmdPPcx6FbL9F7TA7HD6GoI8N2JQ5QQ+Yt7LrBC026IQggaZlF0uWbGZ6OkcxBnuCjRNpn9pBWnlbj/xUO+SQenlfhpxP58p5PS33dHv1sKHtrQ/al0nRV8se2mDPl7UedUghO5VCXtPWx+pDtlXn22y5Zde2qz1ftn3MaYe87wu6rXq0WV2fnxoX5G0KHd8nyi3ZVh3saBt0kbbqvDxstuptHeR6qZVt5W0dbEzV+XZb1nzrA9uaWnlbj/xUO+Rgy/bn22wZ8j5Ffz71ur7c392gktzh4HmxTAIkQAKrEmDAYVVyh9HrPMNBb5sYBBxCsMA8m8H1qwGHeOuFbYgBBzy3Icjg2Q9WzOVrR9E4sNUW/HTlO2yhL45ndmiN86l1ra3/rtuZxeJIqqNnr3iH8sjuAW3XbfTX89sORKIT+kweaN3rZ3J5t9wSUTujcWdF86GBZuRWJ4yneoaDETTb+03tEtnIv8W15q1zgx0JZgdK6KnMWyhW81uGouvBPsejtDh9M+cq09crFubmlGUMDGhAwQQJlKN5M0VgnnZB2LmwTynXPhE88PUYj7afM3ZHdY5gDDhh1n5tHuPzdVqe+kAXaesY0dayjzakU/3ZduiENPAyc5ga0afVa+WtLejYOs336ke/k0bP6tu87We5+rQzq/P7BFtIx47BykyNx8raPPR8nZanPtDNaWc+c3vKtPqCjG1r5W0ddDSds4atrs1bO8vWj+laW1N5225tSoOplW3lbR1s+bplyl5Wbfo6LU99MBakve8g7Nh+UGdT2NE6yNo86mwaBLv/aEChd1sfn+HQxcYGEiABEliBAAMOK0Bbj4rdyjdyS4V25m6rqF+DqbrjD428c/9peChlfg5E5wC6AYd0y0S+LUIfDjkj4CASnd68Lb/xnIDOUBrVJeCgjfUJZ3RGy8mJ7mgwf+EkLj2zAdXpxC4GEqJTUK54JychnVSVelxFhxGTJns6hssP38mD3dJfHGs5QcNtHUZ7yWzNtQQfevUTAYdqfm2QKAWX8q00eO7DeMChnvfeLol5h1wCDipfz1M8gU1cq1su6vmzvHUucrlaA3E8rZPiMZ11jwFrWEeDk2lLytf5spXt2WgdY092yr7vb7yc5sU5370+pup9uy9XY0m7i/Lcp0bo+FSbUWftoA4p2rSMOqSxLf02Veuz2IYs0nX1q/ZgEynG2uqjJTMmH9va8wn7sIkU9mxZ8/i02mELbUhbaxh2fdqz0ZKD7KptGJ/q42PrkEc/thzzQ6awgzG1dG3bqu2wgdSOzdf5spVt9R/aG99B2PEp7KHelrUOH1uvedR7PchVqe60bN4qEXc2lLdWVFoskAAJkAAJrECAAYcVoFHllBHQEx3n5JyyI+Bwj4tAOCl2Aavj6ts5ufbk2ebtcGx9L2/lQ75zjKrv/1p1KoN6pLbO54tNt0slNVgbRbb0Yet8XnXx8W1VuRF0tP0ij1R1bR62UIfUy2m9bdP2EHA0vz+2HXmk3t6q/Xp7WvYf2Eafvt2XrXzMD+cTOlZW6+yfLds8ZHydLwc5t4atDPJIVd7mfT+2zedR1hR5r98qe9nWGFoyeJNSCXKPj73V95y+fN+2rPnWB33BfkvG1ln5kG98ByHT09P63p9tQx5pT6fUj+1uKFLMkQAJkAAJrIcAAw7r4Ugrm0ggnJQOHzi4iUPlmE6aQLoS7W6nOMlRtU6efZ0v+/HW7f1jrOWKlVa9r7PlXj7cwhR2/1Sv58lOnOpNfXRUXqaMtN8WdxiVHUdWBzaRYvzox8qibXYddj2ZYENL1/Zl85Bdul8opnSOfkvGmhm0p99W6xhbeeRVr/dRGW/Xl62dmO+vYWsPfaLO2/VlyMU+yr8tOciiD5+ivVgZHifaKvsdppVMg1nLFnT82HwZujaF7lhdS2ZMfpnv4JidVpsdi81bWeZJgARIgAROlgADDifLn72TAAmQAAmQAAmQAAmQAAmQAAmQwDdJgAGHb3JaeVAkQAIkQAIkQAIkQAIkQAIkQAIkcLIEGHA4Wf7snQRIgARIgARIgARIgARIgARIgAS+SQIMOHyT08qDIgES2AQCek9x7zM1vqn7kXt2fb3vx9v1ZS/vy5BH6ttXLc+x15KZqtP2sU9vvC27h5VdxuZh++rp2/pVuFj9uflVjnuuzlw5O1boILVtq+atLc37z5hdqzsmZ9uW1VlW3vY1lm/Z1bpWvbUz1W5lV8mvah9j9/q2vpdfZZw9Hd//KnLehi+rzVYd+hprg8xU2rPh67VsP96ul0d7rx7ty6QtW606axPtSG2bz7dkWnVWz7f7spVt5SGP1Mr4Ol+2sr38mI5t6+VXsWt1rF1br3nf5sstGW9jmbK3b8s2v4zNb0mWAYdvaTZ5LMdDwD0h/bCdhle8udfmHdYm9TeDQO8/mV69HfWUzFS72oIMUti3ZZtH+1hq5ZHX1H7Qt62DbK/Ny6KMsVh91MGWLSPfkm/VWXn02Ushq6mVsfVjedu/1UceuigjRb2mWtf6g+xY6vXGbHnZw5Z7fbXsQhZpSwZ1KuM/aEPq23tlyK+aql39Qwo7vox6pFPtkPPplJ5tt3lv5zBltes/c+xNjcfbbJXRT6utVzelg3afqj37N1W2ssvmYRtpS1/b/EflbJ3V69nq1cMWbFi7yPfaUO9t2HrfZsdh81anVd+qszrL5Fu2WnXWJtqR2jab77W36n2dLdu8td/LW3mbV/mpMmyqHD6oQ+ptwC7kp1LY8WnLrpVp2fV9e3lbRr7VT8t2r65lBzZ9CtmzmjLgcMpn/sv9q3Ln/udTfhR2+PE95NdfD18nZ6XCU+87T3+v5I6isELAQZ/SrcfU+ltfwGEmu9Yg1lj316Mrsnj0ZW0W/9g7L8877Nqd9DlU8+Be0xbmAf+xVgGgaA//4ZR51PryCs3WPEKnlfqxt2R8ndXxbb0ydFrt2ubrW3Uqgz+bRx3SsTbIaLqsnMr7D+z16tGO/ryclv1fqw76XhZlqzPWh5Vr2bTtvXxLD+PwqbXh21BWmd4HMqukPZutem9fZeyfL0+1jclDFzJItd7mIbdq6m21ylo354MxzJFdth/YXjVFf0jVjs2P2Z2S8+1T5bG+Wm3e3tTYp+Rb7a1+p+q8HV9eVh/HpXbsB3Zsne3L5mEDOr5sZW3ey1l9n7d6Nu/lfHkZWa9ryy07qENq5TVv6zXf+kDOt8HW3HqVa9lq1UEWbUHR/WNl0NSqQ5umvh1lpFbWy1sZm4eO1k19IDuWzrUNG75P1E+lth9vA22on7I13d4/p610Pz6WnR8fy9eqcnMKDDic2Fy8kf3tfXlzyP6/zYBDfIVdeJVWL6igTn+v7ZBMj0K9cnSPooNgU3+UZrA7sv6j4c0IOLQ5lHnQ1+uZVyW6IFJZe/E1fPn1f1WQwgQctL4KUkQW+I/HI+/VQ26qXeVaMq062ERqZWwe7a3Uymnefqy8lbP1rby10ctDz9tFGWlPDvWazpWdKwfbVt7mbZ+2HnmkU3bG5KDbSr3eMjJzdFv2UOf1ffmwcqrfstmqs31p+9gHsodJe2NAv952T35VOeh5u74MucOksIlUbdn8mG2Va32g4+1MldF3y6bXnZK1NpaRbfWD45mT9vRb9b4OZaS2P1+HMlLIooxU65FH6mWtjM+3ytD3qbVv817Ol5eR9booWxvII23JtOq8vMqgDqnX69VDztrweSvj89au5u0HspCxbT7fkvV1vTLqV00xvp6+b0cZqdXzdSgjhawvo76VzpH1Mr7cstuum3du/+bWtuz/Dgtf5fGPtoz6k0sZcDgJ9hqF2rYL4a0stm7L4tpFubl1VV7cvy03ty6WnQsfnsqdLW3Tz215r2Ou6tB2VV58SAd0EG1EnYuyOJg+UHUUnz9ayOLCebmrn73fspJeZQ51oe2G/BFafpPnF27I89B2RQ4e3Qgy5er2FznYLXrzrlKXL5ZeMc6OnvaH99rjB9QEHIKDmOorHVF75Qd3rC1fuQ7BjJfyYBd6uIqNd8BrPeoiIh3r9Ycv5TL6wtiCIws7SKFrxjZwVk3bf2zmsenx7L6UB//ZMaE/XudSgCGOYoRdFOj8q/PYmqd6/sq8/ibPdxdykNfEFTn4pPNj1k62l9pCz7W9vB5Ub29h1kpaX6/jeirrTseItdc5lFDd54CAg19bqC9W1cYzedUIJBTdJCMueFGMVP/Rx/nCvNVXcY1KyM75jwky3q4te7tahh7aWvJjMr4Ndqxta9PnrTzyYzatXSvf0kEd+oR8zwbaIT8nha2eLGxCDink0Y6yTW0b9FCHVOXn/M2Rs337/Jw+5spMjQV9j9mzMshPpdaeyuIPeaSoXzVd1Y7qjX3seFbtAzYOqw87SDFuLVvbNg/ZVjolB/tjqbfbs9mqn1uHPrz8VBl6c1K15e15vZYMdJCqDuSQos7as22+HvJeBmWbQlfroIc6pGhDGXKwg7JtRx10IYuylW3V2fY5eW+/Z9PWQwdjRT+QQerbUbbtXhdlyPqy7XtKptdPr972hTxkfYp2pLZd83M+0NUU+mP5lrzXs/16WyhbHdi0ddaGzbdkrU3IWjnUabraX/+cNttr7m7QC9vW18zSJ5JhwOG4sYdgw448/mg71oBDDDC816DDpafyRQMG196KSAxGhCCDqmi9tif1eTscnA3btclrwKE4dOqEWmfRCKojGIIR0VFVRzQEJHYX8lduk1CXnUox9n7fl+3t7fpza2qvR/nChZGYHQ7FAdSWGBSAg163mWNwcrYl3K5hHPmhDTiaRUtlShCiHoNKDR3aohsCKVXAwevbY9f8vRyICf0iuGFMzs/GIECZp6Kpc1qCDFauzLtKh3VjglO9HQ71rRFmPaRABcZQ9+vXURpfCtpV62jGVrIwDxoYqpi1Agap7v80dtLktRfXwQMNNi11y0dhjJz9D2kqb3U0b/8Tm5tHH7Dl7diytdmrhz2ksAtdpKi3KdqQos2WbV7bbXkqr+1jH/S3atrr34/Tl61er83LeDkt9/5aul62J9Or9/q9surP/VgbYzpWTvN+jHPKY/bR5vuZW0b/sNNKrS202zqbhz3U+TLqWylsz0lb+lN1GItNe331bEF3bruX92W10xtDT3YZnTHbaGsdy1ibl4dsK7WyrXat0z+f2jrYgIxvs/WrtHl9bwP9I23Jo62VQl7T3qelN7cO9lW+ZR92IIcU9dCz5Vad1WvlfZ2Wbd2YzZ5crx5jRR9ezvZl26w88tYW8mOptQc51PkU7ZqiP5+izaY+78voZ6xe2/SvJzvVFrXb/+IY2q3za78+2ZGdJ62bKeJOh3bbfPvrkJwZcPhTfrr8Vr5Lnx9+/XsdfQ9svP/wz6DuKCqOq5/B2IOj3bqNogQENOAQdiMg4OB2KoQdC3MCDoMdEGlnxGBQpaJ2FNXBLAGHGIwoV8FLwCFecc7OZA44RKe0vjpd7JVeZ+ayk5fkczk65/jSIs0OoMrpj3XlYKbdEpWTb8aRbZu6KtsOONjdEz5IsVzAYWi/6Lu2ybFWAx8W1NnXQNGgpZ5/bS7rQ+fW7DTIcx6NFDlrdGQ9uDF4/by2rLkV88pxuB4OE3CI9vJ6S+PCOpyT+kNRnTl/kBvrw9qx8lqPss9DB+1Ip+pbdqCLFDYgi/peCnlt9x+0wZZNfd7K9vLefqvsda1Mm5PtdAAAIABJREFUq09tx5/NLyNr9ZBHCtutdK6MyrU+PZtz7FrdlnyrzupofkrGt0+VYd/K2XyvTy8DO2NpS8fWIa/p2Mf2AR1bdxT5ZfqBLFIdj83b8Wn91MfLL1O2snPyGCdSr+Prly2rPatj876vVnmuvJdDGSnGoWX7sX1CFil0WjKo68m26m0d9G0f2t76WFkrb+t7tiE/1j7XjpWzeWsbeZ/acWgbPi070IVOK7V1UzasrLVt620eMkhhX8v2g/plUm/T6lrbU3mrp3lvF2WkkPF2rR3IIoWOlfF1VhZttg/UeRu2bG3YvJWZl5+6RT8GHbYnL+zO621VqZkBh1XNL6d3XIGA4+qnefTdHQ4xINAMOISdDk1r0t7h8FleXDK3ZPhdEm1TxqFUAeNwhivQJliQHczieGansNE26G6VHQ7esc7llrM46FHirgUTeGhslc9a2XaucRnn9ItIK8BgAxAlYOBMaXEwlqH9ou/aJsfa6M9WOWe/NJn5T5UlEFDmPTTlOY+CRa5Yk7DDxQQpbJMbg9fPa8vqHGaHQ3og6fj8JM6DubFzjbnQ1DwPwo7T5Of8h2L/w/J5YypkW/ZadT09bx9lK9+yhzqkY/KQQWplkbdtmrfllozWeRmUkXoZrW99YN/L23rkrW0rj3rYh7yXQbuX9/VWr5eHDduXzx9GpqeLsfq+euUxOz0d1Pd0bTvG00shq2lPxtdbHeRVZpk/L+/LsNWr13bf5suw0UtVfuozpttrs/UYE1Jts/mWrK2zea+n5akP9KfkbLvV0by24a+Xh5y108rDDtIxe5DppVa3JdPrH3pIVdfmx8qQ09R+oGPrIIs2TfWvVW/rklhXFu0tnbl11kZLB+1IVcZ+tN6WkYc8Uq3HH/JItR55pF7Wl72ct6Ht/gMbVrZV522jjNTr2/qWvSl51Z/6WLs2b/Vsvc1bGeS1XfM29fmxMnRbMr7OyvbarIzNq7z+2TqbT82zk/7uBjVx6nY4zD7uQwkeVyDguPrpwkjOUnm4x8gOhxAsMM9mcEY14BBvvbANMeCA5zYEGTz7wYq5fO3oGYczBBzgLGo9nu9QHM/sFBrnU+vKlnzX2bJFdfzycxPUwSvBg9m3FVTOY7Thr0yHYU068XA0y0HUAYehA6oBA+vgFs1WwCHu2shjC8cOh9b1PTnWqqdGIe48wO0MVqCePytX5j3ImznXsq4j+/wP2KztoTY9+8HssqjXYbylYl3rqA7cmGdjKEez40Xl4q6YmXOh+nl9lmOz/4lo3n+K5HjO2oGkt9UrQx4pbCHVepuH3DrqYRept23rNY8yUshPlVtyVsfmW7JapzJTn5autW3zsAkdn47J2rZW3tZ5uyiPyWjb3A/sIR2zCxmktg9bh7xNrWwvb+VtHmNCatuQ921TZehpqrJe3rYjb2WQRwoZm2rb2MfL2vJUfqxf1R1rx5jm9gFbvXSqv1Y7bGEMY2XfBh2fWjnkkfox2Hpvx8u22lGndqZswR5keyls2tTbRhkpbI/poM3qoA6pb7Plqbxthz1NfT3KSK2slbftNu/lrU6rbazO2/VlbxvtSG27rbP1vn8vZ2Vtm81bG8vUq6yXn1P2etBBivEsW/Z60EeKdp/6dpSRqrzNt8qwaeU03/q0ZGHTyqPOptC1KXRs3XJ5DSj42/Rhgc9wAIlBelyBgOPqZ3CAVYXdAjMWcEjPbcgPjbQ7F9Sg6o4/NPLO/afhoZT5ORDVOEqhdvRMwEGi0xdvj0gPh8zPcOjdUqF2o5Oab6swTmXpdX4uOIHhR+CZvKoc7egU4otrHb+iE388shOv3QZHvvyo5LbKth1fDFKUfu5lJzUEPcwPVLYF9aqvZ/Kq0X+wi1s/KnnjGIeHYCZ9tdEdKzqekYaAUrldpgQf6vkrTv94wKGed7MzprceJnY41A+jROBrxnE1RErAocw/5qpaK5gHtVHNBQI/2lAHf+IaMHPj/qPT+Z36s2sLsj09yEJOU8j6dG7bmC202X7Rz1Qb5JBCXtOevV49dKwN5K39Mf2WDasLezbttdt69GlTbwPySNFuyy192646vgw7SKfaIbdMehibqruM/lxZK2fz/rh821R5Sn9Ou+9jjg5kvK4vQ66XTskftl37hQ1Nkff1GJ9tR51NffsyZSuref9BP15O61HXS62ut+vLkF1HivH0bKF9KlV9yMCWL/fqVQ6ySFuykLMyNt8aA+rmyNk+l5WH7pxUbcM+Uuj5stajDqmts3nbbus1b/+sHPI+VXnUtXR9m5ZRh9TbgIxNvW3oTqXQg9zccmtMPV0ri356qZUds+flYA86PvXttoy8psh7+97eymXdMd68VSLubCgXtlfuYW2KvKVibShp6CwTqHc4nGUSPHYQwH80PkX7VIr/rKDv5dGu9cjbFPU2tXlr1+ZVRv9Qh9TWIY82TZEPykYfsj6d0oEd6EEeqW1H3o7B56FnU+j1+rCy1p7XQ9nLoAw7kEN/vTL0eu0tfSs7p31MptW/tz+37I/dl3t25ozBy0yVccyQ0xSf3jjm1MMeZK1Nm0c7Uq+Hek19my9b2VYe/Y6lLb1l6jAmn6oN9At7KI+lkIX+3DL6n9KDHFLYnypDzqZex7atIz9m37bNzauc/bTGCFuQszJoQ50t23yrXeuWkWnJzrWB/pdJtT/fJ+ps6m16nbExWjstPatr25FHauXseNCO1Mtpfa8Ndmw76nwKGaS+H8jbdi+jbbbdl708ytBBinpN9W+sHn0gTSpVYvWrhkbBy9oy8kih7suoXz0d292wutWj0mTA4ajI0u6ZIsCAw5ma7smD9f+xaLn3mTTm/iNVedhH2rKB/mwb5G2bzUMWcihrOrduTLZlA/K9NrRrij8vq2VfB1lNW22+zpetfs/GWL3Xt2Xtq/dp2eyNDfU9W616jAO6KPt0qt3L27Lt19bbvLVv5afyagMy1h7yaENq5bWu92flezJT9WM2Wm298XjZntzYeKZ0ptrHbKOtZcPW9fLQt+lcWZXDB/peF+1IVc7moYd6W0Z+yibs+RT6y6TexljZ2oWc1mne/tmyzfdkvYy3pe2tT8+e1Ue+1wfsQg42e/JezpbXlfd9+zLGaPtrHUdPbhk9a9fmYWPO2Pw45urYPqCDMbRSyPsUur6+V54jj/7Vhpe3ZZvvyXqZsXGprJdH2behjLRn9yzUM+BwFmaZx0gCJEACJEACJEACJEACJEACJEACx0yAAYdjBs7uSIAESIAESIAESIAESIAESIAESOAsEGDA4SzMMo+RBEiABEiABEiABEiABEiABEiABI6ZAAMOxwyc3ZGAJxDebmBeyejbWSYBEiABEiABEiABEiABEiCB00iAAYfTOGtmzF/uX5U79z+bmm85617HeMhDDa9B1Ncf6qslv69fZ3hI00up9wIO1Sscl7J4ksLx1aH6qsnM9wSGU7/i9fAD+GPvvJTXhc6x1+dQzWt45WZ51WZYC3g4VxWEql/Jild5Nl/NmfX6Y6iO4ONj2fnxsXytKlkgARIgARIgARIgARIggcMTYMDh8AxXtPBG9rf35c2K2lBjwAEklk/V8bv88OOJBxx6I68c057QxtWrkxsdaAYc2hzKvH6UB7sl2OADX4WfyqW1qvNdBSmUdwqWaX0ONqjgvLl4c2tbyruaN+/dzRu3xDkgEiABEiABEiABEiCB2QQYcJiNao2CekVx257kv5XF1m1ZXLsoN7euyov7t+Xm1sWyc+HDU7mzpW36uS3vdShVHdquyosPaZwH0UbUuSiLg+nx61Xh548WsrhwXu7qZ++3pPRFDnavyMGjG7H+wnlZPPpi2pJ8VS/yx15PR0ReF1t3dxfyF4an9XsLOdiFzRvyh6gtlE0axqe7Hq7IwScYiLJlfKXe59ShCwGHgaMWHTy8xibIQDnshrCvhzIOY3DwjGMInVQ/tBevQId66ygO+tD+zA6M4HBiDKY+9zfMvNr7WR481J0cUa8cU32s5zCOwOSZXN+NfT94+HPQzVfWu2MoTu5yrwrVeSxzW3YTjNTvLuQgr4u0Bj6Z9Zvt2fWha7nRj+o11l21TrO9uCaHlG1NnwMCDp4P6osVtfFMXg3Wp0jRTTLighfBSH8MuY/m7gYNhtrfpyzNDAmQAAmQAAmQAAmQAAksRYABh6VwrUE4BBt25PFHa0sDDjHA8F6DDpeeyhcNGFx7KyIxGBGCDKqi9dqe1OftcHA2bNcmrwGHuxfgTEXHLDp+yUnLAYhya4MGAopzb3VSkCAHE0xgQJ27XC8S+oXtEIgoDmK9Nb70a4Yd9MsYrEy8Wru9vS3l49lbSzGfAxGhGB3y6GgXB06bajmt0fZhwKE4h9H+4N+GQwn72cHPSnAwU4UGJxAkyDLDjI41y4VgQTtQkceaAgrXX6eAxN67hpO73BiGo0JNvW5QK+LrzRoSzZe1V60hiWuqrIlisb41wthLgQoEOup1Hdcy2rK1FDgsa2tbtmfcmhACCw9fymW9nSf/tQIGqe7/PJNzlawG7FAX14MGhIZrJRvvZr4+2ZGdJ62bKeJ3p93WNccGEiABEiABEiABEiABEqgIzAw4/Ck/XX4r36XPD7/+XRlZV+H9h3/WZWrUznH1MxjE7/uy3byNogQENOAQdiMg4OB2KoQdC3MCDoMdEGlnxGBQpaJ27q3Tpo5fCQIUjWG9tVE7d8VpC85hvlqcrjbbgAPypaOUs8EE02gDGK9vmACIkZmdHTp+2Qk3W9TV3DDg0OkEOxa80wjxZQIOsIX7/DWdGXAoDmkdtAjBCGOv3vVReGQOK44BhztI7fxVjcP5LmvKtWmgyqwbuw6LSdUpuxvCLh7sjnFj8Pql32Jt1VzmXa2HwrnYnRtwiLtWyvwWC+O5qdu6UsDu1mFv/BofBVtJgARIgARIgARIgAS+XQIzAw7HA+C4AgHH1U+TWneHQwwINAMOYadD05q0dzh8lheXzC0ZfpdE25TbKWBvTRgGFqKJYb111GonTWXjg/eszGAoznGs252TaRrD7RufdMzYoaGNq+xwGDp+2dEO29ZxK8M8R98MMT0r4t7wavWyAYfKUa166BbCVfXXaDYBhxA8KLsd8rHmMRUeuU11VhgDeh+kztkv7cP5LmvKtbl1015jTqd0JOLG4PVLv0bpMDsc0kM1y60tMYBVBw3SPOW5KH3nuQhBMJ0/lbW39xTZXq6/u0E1uMOhx431JEACJEACJEACJEAC8wkw4DCf1fokk6NSHtQ2ssMhBAvMsxncKDTgEG+9sA0x4IDnNgQZPPvBirl87WSpc4ZdDcPAAlTVEStb11WnPM2/ctLUocPtGjYPQ0id44jqmNox1S16r/3i0UKem6vcTmJ2sd65oI7cvbhdveH41UajrHUi6/b0wD+/I6Fjtx4HLC3vWKrmaMAhj8eMP4+pEXBYwbnF6NtpvW6KTAlShbqwbrAmVccEl9y60bVsdzzAZr1eUavzMrzNp6xrG3wzOitmy1yYtaW2NJCT5yLOWQzs6BykNahyOjc5uKA2NOCQ9JGfHJsGFHq3F/EZDpP4KEACJEACJEACJEACJDCLAAMOszAdhZDdzjwWcEjPbcgPjbQ7F3Rcqjv+0Mg795+Gh1Lm50B0Dic4aWbLeblnvR9wkHQvfdyeboMP0UlD/d0cvIidd/tyjqMfaqVXBRd6Tqu3MKccHcHJBywObmcwDrvpRh1M2NI0X8UOjmPdVu0cqNqTU6l23S0NowGONI7i5GqFcVKrXRvPRJ8FMHlLxYpjSENpJyGYUG53yGuvVx/WXT/gUK9LBCm067hO8rrEs0QmAg4hIJG/G6bf9tGM1lZzkeYYa6JaK3YXSbUW7E4GO5fxYZLVA0Z7I9Hbu5q3SsSdDSUY2jPAehIgARIgARIgARIgARKYJsCAwzSjMyOhzry9qnvYA692OBzW2JS+cxinxFdqH9xKoM6edf5WskolEjhmAmO7G455KOyOBEiABEiABEiABEjgmybAgMM3Pb3LHdypDDjkK+CHu+o8j1TcwdDcrTDPwJFJ6T39dlwlz4DIkUGnYRIgARIgARIgARIgARIggVECDDiM4mEjCZAACZAACZAACZAACZAACZAACZDAKgQYcFiFGnVIgARIgARIgARIgARIgARIgARIgARGCTDgMIqHjSRAAiRAAiRAAiRAAiRAAiRAAiRAAqsQYMBhFWrUIQESIAESIAESIAESIAESIAESIAESGCXAgMMoHjaSwLoIxAdO4vWH67JKOyRAAmeVwCb8pmzCGM7q/PO4SYAESIAESOB0EGDA4XTMU3eUX+5flTv3P3fbv62G3+T5hfW9jeLV3j05t/dORF93+f0zeXWksE74xPzTS7kcXuH5UR7s3pPLDz8e6dH2jK/3VakrrIceB63ffSm9b5KulXawSOf1qNeOozkyVn1byfHP7ZoZjByfI7HRxdZcVG+T0d+eQ/2d8G9KGPv6xhDY6Hcwf0fbcN7c2pb939ttrCUBEiABEiABEtg8Agw4nNicvJH97X15c8j+GXBYHaA6kcE5O5aAw+rjXItmOIlXx5gBh8shQOA4TDi5mxRw2KSxxLXJgMPwO9pi0qobap7VmhBw0CDMWMDh42PZ+fGxfAWk3/dl25ZRz5QESIAESIAESGBjCDDgcBJToSdN2/YqzVtZbN2WxbWLcnPrqry4f1tubl0sOxc+PJU7W9qmn9vyXsdc1aHtqrz4kA7oINqIOhdlcTB9oH89uiLPHy1kceG83NXP3m9J6Ysc7F6Rg0c3Yv2F87J49MW0JfmqXuSPvZ6OiLwutu7uLuQvDE/r9xZysAubcUeDXhkPY8LY8vj0KvcVOfgEA9qvHV+p97kccBg4m9EZPff9PdFPdcU4BCdifWz/WR7kvuPVvkpeROxVTXuVPDiOe7q7Qvt4Kde1P1xld/1Yvbgjoz0Gtdkcdw44iPQdVk/IzZPdXWLnz9R311Alj7k0u1Vsu1kPvTXUXw+NY7BVPQ5pDTzI/J7FHS9uHiLb2GZZg3nYMZPm/PpD3VWS5qO6mh3XCXT8egl2sQ7s2DU/WKtFQNdZttWSQ50eUzUenWet+3/kwa5dz2pbvwu+rvQZc9aRTt+dPP6R75LUHPIaxziD8SSD8br5yDpqa/ellPkrY1Yu/bnwx2LL7fG92vtZHjyM31udw8zcqFZzgfrquFAZv49YC3anla6DyrbR7/2mRKs95r36PrsyymFuvWNIv5Nhnu16qvtt7W74+mSHQYcaE0skQAIkQAIksFEEGHA47ukIwYYdeVztaNeAQwwwvNegw6Wn8kUDBtfeikgMRoQgg45V67U9jXveDgdno3PM6izezc6jBhnOy/PXKhzzJQBRtrLXzr3ViY5/CSaYwMCnhSyMUxn6RXAjOJ4lgKBtJbhR+rWH0Jf5Ko9/3Jbtbfvx7K2lmK9P9ONJenRs9ES4ODK1nOpGB6VyEox5lS8OUnI01DELTpTa7Z1o2/r+GGonx47bDGKZrM5TXg9G0dfrnKX5rNeQmfOkruslrilnr7MeQmABbb5faa8HdUrqObfBPdOvzaozZ5xHP7d+7oqqnZtSG52xFLRIu0ow9/U8FR3ktK8ceEJlSvu6Ot9lbYa1mJz+PHYEGvRYg2NXdGA3ONMaQINsWNM4DjeYXCwMwtgRHJC4xsv3wa5Jm1dDZl1nxzrKFP3cYcqUfgffPR1/Ov6xufAWS9mPr7RU8xPWjeejum4uEHjKqW0vtgv3YXAJc2Skm8FDHV+LWV1vj085Fp3Ay8yh7a+VV7tY22iv+0Lt2HooMv3cyK5A3emwhh2D/b7ZQgIkQAIkQAIksCqBmQGHP+Wny2/lu/T54de/V+1vVO/9h39G29fVeFz9DMbbPSkqAQENOITdCAg4uJ0KYcfCnIDDYAdE2hkxGFSpqB13kVJOOxzylXzoDOuLTgw4WOcSzmZ0SnGVO6U24IA8uslp28EUG8B4fcMEKLLiEhnvLMQrb/EE3jhFA2dqugt/Yp7LLecuOcDDK5+9MUQHosjHK+veEZgeZZGwc1lq066Hao7KvNQ6w/WBNWDtja2HWr70E/V92VpdMp+d3Kjnnbs8VwOz1uktjV6/Kut8q+O5hFMXLbf7Cm15DWEMkNWr13qF/2MIIoR1jGP99DK2vY5rXNcKjlMDD5f39JkW8ep379kWZVytnRxT36XaUUffcUt9tDdwnEe/F9Yejt9+f+Noq7kALp+Cka9P3/vyvSr9ZNHBXKSWjk0dT/W9zevC8rP53FOer1LTGE9oHOoXDk6nN/7SSZXL85Zrnb1cPzaGLNTN6E6GnSf5ZoqhXPj/dTqgPFRkDQmQAAmQAAmQwFESmBlwOMohFNvHFQg4rn7KkZlcd4dDDAg0Aw5hp4OxYbLtHQ6f5cUlc0uG3yVh9G22dhbtrQlDxzHqDeutjdpZVNl4ddvK2P5D/rXeUoFbOXxr38EMW+8/6ZjNNn1ZZYfD2EmxtiXHSh3GvG3cj7Nd9ifmuZxP8HGiHvspzhbq1W5vDMNxt0cxv7Y7T4M5KvNS6wzXR70m4lhqnXp8tXzpJ0r5cqxdeYeDmc/ijEWbea7q4aUr89bRjQIt/TKfyYjO+xKBB2+zDKU196nu9Uu5/vCdPNh7Ka/01oKwYymtp//0f/31O7m+906wsyH2Afln8uA1dkOU3oa5aO+BOs6GYet2jHIMdk1Hi5lxcszD7RHZ+VaZuPYLR2vD5tPugPQwz9Jn6afYGB5NqOkEB7QtjzMIun7HbkFp2dQ6s2uq2uGg9l8/i7sVVK5iETp3Y9E6P54ot9Rc5N8j6I6nNY9VxzDeh8jI7gZV7Qbzp+yynQRIgARIgARI4KgJMOBw1IRb9jvPcNDbJgYBhxAsMM9mcPY04BBvvbANMeCA5zYEGTz7wYq5fO34qTOHWxuGjiNU1SGsb3koW+YrZ9Fuh7d5GEI6cGbRoKkdk62PV90XjxbyvBuscPIjRT2BLg6JnsCnLcMth6GyE2WLbtU4cA7yiXo+wYezEB0rXEVVhynf2z0yhiDXcErqUSxR0rmYcUuFrht7S0VZD8N1U6+XNJaR9VCtocEtFCPrYYnDDKKO63wnVedsuD2+1m/LtPrVOl0XteOuta2gQrDQfa5DWF97L8MzRsKOhf8Ey+KairauaxAi2b2MWwDCWnwmD7Aj4j+7I6qdGMrJbL+PI8C6Tffhm6BD97uUggdY49WDAs1cBBZ5TY98L5yjbb8Lk3PRPSbwSpxTEriGwI1WlGMPzWbstdbwFoksn99yEo+v4p12mJRgUW21Hou2RRut36D+XLhjyL9Hpa8wD3mcpV5z6xlDbXNQ0oDCrfYjlvkMhwEtVpAACZAACZDARhFgwOHEpsNesRm5pULH526rqF+DqbrjD428c/9peChlfg5E55iD42geylhuhxg6jsWEOn3l9ojibKZnOOQ2BC+iZrev0YBDvM0jPzyyCi7EcZQxlxEun9MT8LKToZy8J4fAtNWOYdQr8rHneLJe7J1LDmo+Uc8n+ObEX+tSP/GBkriKPjYG3wad5QlAo56nsntkrL6sgca6CcEFrJeevU7QahBwGFsPOIKZqXMUaycVV8wxhzXX4NxiTSTnuKr7T1t2rBFQgLxr09GG9WKc9nAEeY0MjyevI9cUx5DGGtZTCYzYPiq55HzH8TbWc9c5L0yC7eyc9r5LnqlhVM1FWtPg0f1e1P3Y7+XYXARkzWPqj6/mbb6zTefbTEp1XKU+8tK1lR5GmQMsUabmaeuwHpNuvuWtZlF+j8bqy/wNdllgTeY5PYoxFB7DnO5U69wqoYEIvqViiIw1JEACJEACJLBBBBhw2KDJOOmhqBNZnMXDj6a+On14e6MW1JHFwwVHBQ/ROHD69AS+OHGHsDxfdRPGMH+0Z1ZSndzi6B0WgzrdnXXWcWIP2+Pp068dfzv+9c6FtezynAsHZE3Fkd0Na+qBZkiABEiABEiABI6QAAMORwj3tJk+lQGHfMW8XC0/Ou71FULdgWCvXB9dv9byJozBjof5FoFjc3JbnZ/Jug0IOJxJ7jxoEiABEiABEiABEhgnwIDDOB+2kgAJkAAJkAAJkAAJkAAJkAAJkAAJrECAAYcVoFGFBEiABEiABEiABEiABEiABEiABEhgnAADDuN82EoCJEACJEACJEACJEACJEACJEACJLACAQYcVoBGFRJYnkB89sLxP/Nh+ZFS42QJhLcq4K0MJzuURu9cxw0orCIBEiABEiABEiABEugQYMChA+a0VH+5f1Xq12SelpGvMk599eX6Hg4ZXjenr6ALr9ozr4VbZWiTOhvsqB3X0/W1n/BWj/iqw/W9xWESfiWw3renrLAmJzhsUsChfgWkYlzjOp7ggEl7c2tb9n9HiSkJkAAJkAAJkAAJkMBpIsCAw4nN1hvZ396XN4fsnwGH1QGqMxWc3mMJOKw+ziPXPNaAgwZ2GHC4/P3Jc5hcV0e9LkLAYYLDx8ey8+Nj+YrB6isSbRn1TEmABEiABEiABEiABDaSAAMOJzEtehK9ba/avZXF1m1ZXLsoN7euyov7t+Xm1sWyc+HDU7mzpW36uS3vdcxVHdquyosP6YAOoo2oc1EWB9MHqq/FfP5oIYsL5+WufvZ+S0pf5GD3ihw8uhHrL5yXxaMvpi3JV/Uif+z1dETkdbF1d3chf2F4Wr+3kINd2Iw7GvSqdBgTxpbHp1eYr8jBJxjQfu34Sr3P5YDDwLGKDrG+9lI/1ZX4EJyI9bH9Z3mQ+45Xfyt5EQlXrJMte0tFuHq89yz18VKuqwy20rt+rF7ckdEeg9psjlsPPjh49lWe9XFWetkZBLUoG8fxTq7vvpQHuS/LQKQ7BmMzHPtr2B5PdV3mufdrJa+HsvOlu47tmmvo9dZkbx331+T48cR5UEc7sipzG9dPmAesAzUV1uczub4Xr1adAAAgAElEQVSrc/tMHjz8Ocwx9CxvbVe78a8xv7qjJ/zVbbCVGkPi56i3jlv2yneg7qfUYz22OJRRtHY3fH2yw6BDQcQcCZAACZAACZAACWw0AQYcjnt6QrBhRx5/tB1rwCEGGN5r0OHSU/miAYNrb0UkBiNCkEFVtF7bk/q8HQ7Ohu3a5KNjB8dNgwzn5XlwCmO+BCDKNvLaubc60fEvwQQTGPi0kIVxHEO/CG4Ep7AEELStBDdKv2bY0pf5Ko9/3Jbtbfvx7K2lmFdHqzhGztEOtwS05LSuHXBAD96BC46iOpYhuKBOu+pbhxGatl7zxcG3Y1WHsD3uZGcQcDD11sFN1dV4g9P7Uj6HNnecOv6kPzmGZHt2ouvBrJWsp2vI3l5j5Op1bNZdUtY1G9d1tiYysiZDYAFj8P1Ke02qo1yvOxtgNP22shVrOOYaKErO+967EMQqc22M6FykoEIIECDAEOa+rK1qbsO6LWsqWrNrztgfBElim12HVrqut98lK9XLj+wC050Oa9gh1uuZ9SRAAiRAAiRAAiRAAushMDPg8Kf8dPmtfJc+P/z693p6d1bef/jH1RxN8bj6GYy+e5JcAgIacAi7ERBwcDsVwo6FOQGHwQ6ItDNiMKhSUTvuYhz5tMMhX8mHzrDe2vCOHcrRIXQ7FmzAAXl0k9O2c1c5i69vmABFVlwio05R7XwVJ7rv7M/poHbyzNXt7CQaJy8FB7DroFy57o0hOaNpJwX0WleuB2P1Di4E8rjiLo1iy4wzyKJ8iDGgT5dizbjquEOmWidlbdg1KDJcoy2bY2uyli/9xDH58mCky1f4+cjlsjbLmqx30IR5nww46HyVnTBxrfTW/HD4fh3HQFsJZhSNMl7U2XGjrpfqToadJ/lmiqFY+D2dDiAOFVlDAiRAAiRAAiRAAiRwXARmBhyOZzjHFQg4rn6a1Lo7HGJAoBlwCDsdmtakvcPhs7y4ZG7J8Lsk2qZMgCEKqKMVdxcMnbYoMay3zl7tqKlsvLJsZQZD0SvVlSNpJfrOXdj2/kl3VWCHhuqtssNhzElyDnVjV4Adrc97Ry2Xs2NfO+7lCjbq1WJvDMNx+/675ezQegm1qY7kR3mwh90NKmPHgyvwSc4Fa7zFZcv1GjLag3VS1ka9voZrtGWz1jH9SNypU3ZElH6ilC/H2rXvcAhrrcxxdtx17syOl3C7DXY16LoygYV+wKg+3sH8uua8bnO9Ww+5vowXVXncqOimI7sbVKcbvO0aZAMJkAAJkAAJkAAJkMAJEGDA4QSgS+cZDnrbxCDgEIIF5tkMbrwacIi3XtiGGHDAcxuCDJ79YMVcvna61JHCrQ1Dpw2qJSihNapTtqtXjp3dim7zMIR04EiiAfYxJlsfnwmxeLSQ591ghZMfKapDVTv76bkHXcccxtTxsrqoj6l31HK5E3CAg6hOWt7hMDKGIAdns+46loJzap/hkIRCvQYMhn9q8/rDl3L9ob0HqHYwbb82P7S2fI2uyTm3VFi5eh0P1269ZtOYRtZktY4Ht1DY78nyx9fU8HOcy8WBV85hjVZzp+338i0VeX01OqnXuBPI69HVp+LQbuy3fGeKXt1P/H5gXRepRk4DCrfaj9TlMxwavFhFAiRAAiRAAiRAAhtKgAGHE5sYewVv5JYKHZ+7raJ+Dabqjj808s79p+GhlPk5EJ1jDk5bfpheCRy0tqUXEzHIgIf6lectpGc4ZHt1oKDb12jAId7mgb7qnRB1sKOMb5VcdIxwdbg4UsmhM1eN8eyC2Es74KBOF2zZ7evZccsOnnHkzdXpy+rw52c7jI3Bt7kgQnBOGwGHdF8+xliOF7sX6u32eFYF5GsGE2NYYTrU4c9zjmcpiFsL5nkOUwGHcAtOXpdlR0xvTY4HHNw4DhPwSvOTueo60wDSWMChmruf5cHD8gyH4cNF7dzXa7zMoc6fn+84ab11bNc+xl7WUN1PqR9bCLozqXOrhAYi+JaKMXhsIwESIAESIAESIIGNIsCAw0ZNx8kOpnbUDj+W2lE7vL1RC3qF2jijo7KrNubAAAyoM9V2ziCx9vS4xzDoT4/IBEbWfoA0uB4Cw8DBrN0nzflez4hmWxnZ3TDbBgVJgARIgARIgARIgAQ2ggADDhsxDZsxiFMZcAhb4fUKeLlSfXQ066u1ejV31vbwtQ7omMagjqdeYW8+p4IBh7VO6REZCwGG7m6cI+qUZkmABEiABEiABEiABEjAEGDAwcBglgRIgARIgARIgARIgARIgARIgARIYD0EGHBYD0daIQESIAESIAESIAESIAESIAESIAESMAQYcDAwmCUBEiABEiABEiABEiABEiABEiABElgPAQYc1sORVkiABEiABEiABEiABEiABEiABEiABAwBBhwMjNOY/XL/qtSvyTyNR2HHHB+KqA9jDK/h09cC5r/2wwr14XjzXreXDW1IxjwAsvlwxmWHOcZuWVury5/8w0fHObzaS28Wab6RIc2Jnw/7ykrf1kKFh27ioY0NHfuaSV2/g4c8qi7Wf+hfxx1fO9pb71+f7MjOk6+tEbGOBEiABEiABEiABEiABI6dAAMOx44cHb6R/e19eYPiium3GXCIDuG3H3BIk67OZMMhXX5JqLPcY7e8tVU1NiPg0OeAgEMrUKVr7vLes3o+grP/TF4tA6QZzDAGZsx5Nb48hrGAg/tN+fhYdtbwG2NGzSwJkAAJkAAJkAAJkAAJLEWAAYelcK1JODgC27L/O+y9lcXWbVlcuyg3t67Ki/u35ebWxbJz4cNTubOlbfq5Le9VrapD21V58SHZPIg2os5FWRygr36qjuLzRwtZXNDXTJ6Xu3u/ZeE/9lJdaMMrKH+T5xduyPPQdkUOHt0IeotHX5LeFznYLXrPX2dzI5niNFuHy14NDq9rNFd/o9xLuY6rybgqHHqJDhp08BpLtXd9L7768fLDpGucfttf72ry4CCqq9rWQU1XzdP4MIas33Q+ezp6PD/Lg4fptZXf3zO7O9rscj/djM5ja57q+Svz+ps8313IQV4TV+Tgk4jkV5QWW3cvpLbQd20vrwfV21uYtZLW1+u4nsJazOPD2usejIh0OASn/V583SfWillHovOna8DNR1grnbVr18m5782cTwUcptrDMRh7OeAQd/4M1pCINHc3/L4v2ww6jC0WtpEACZAACZAACZAACRwhAQYcjhBu03QINuzI44+2VQMOMcDwXoMOl57KFw0YXHsrIjEYEYIMqqL12p7U5+1wcDZs1yavAYe7F+DQqRNqnUUjqI5gCEZER1Ud0RCQ2F3IX7lNQl12KsXYC07Qtmxvm8+tOXs91JE0TlgakgYczqUr+9bZ1ObaWSyOaHAU1bkMQQK9Gl5s20CHSAxYtBw8Q0TEOIRV/UC/jCHLOQd32KfVSQGUHFQp4872lsrEIECZp6Ksc1qCDFauzLtKh3VjglO9HQ5qr/Rj1kMKVKCt7tevozS+FLSr1tCPj2X6ZgLlF9dQb22EuczBp7EAT2EVcjaIENZVCW7k9RPWSamPgbD2mp4d6Aqdf5XHP/rfFcuq0+YOgUUSIAESIAESIAESIAESWCeBmQGHP+Wny2/lu/T54de/1zmGbOv9h39y/igzx9XP4Bi6VxtLQEADDmE3AgIObqdC2LEwJ+Aw2AGRdkYMBlUqakdRHcwScIjBCHPlOgccYoAiO5M54BCd0vrqdLFXel0m13auhwGCuJ0+Bh+8c1e22gcnMDuJsJ0censF/D95OIwxuAGbxVGsx2CPCXZLXe3o6s4Af0vFmE5ygHVHwTr+1NnXQNHAVj3/2lzWh84tAlMikuc8Gily1ujIenBj8Pp5bVlzK+ffyfUUTMCtFWpK5yQ7+NV86FyYZymY3ROqV68HK2cGGIIMWJOpPq87I5ez2qeTz22djP62jAXtBruqOnZYTQIkQAIkQAIkQAIkQAJrJDAz4LDGHkdMHVcg4Lj6aR5qd4dDDAg0Aw5hp0PTmrR3OHyWF5fMLRl+l0TblHEoVcA4nOEKtAkWZAezOJ7ZKWy0Dbo7gh0O2VkMOwrgrA0dd4wlO/3Z8YPsag49Aw7l9hsfMIjMy1rBHOR0lYDDCjscBsGBFFS6/joFFVyQKe6aGa6HvHZ8ICGvpXxkKTO0EW7fyLtUavkwzk5bLYnSyO4GFWn+5kCXKQmQAAmQAAmQAAmQAAkcHQEGHI6Obd/y4GrjyA6HECwwz2ZwVjXgEG+9sA0x4IDnNgQZPPvBirl87Sj6gAOuaGs9nu9QnMhhwCFuhS9b8l1nKxXbV35rZ7927qor16bP7DRmJxEBh3TVeimHT6/y6zMVyo6H0pWOp+yQiLdeICCSpKor6lo3plMfX+ln1VzceYDbGawVndMyf1auzHuQz0GmqK3ryD7/AzZre6hNz34wuyzqdbjmdaSsw9yW+TYjiVk3H/UaMmswBBww53HO8lslrNHW2sjrzgpq3tj3Tb2y/p70bifp7qrqGWM9CZAACZAACZAACZAACayPAAMO62O5pCX7RPmxgEN6bkN+aKTduaBdqu74QyPv3H8aHkqZnwPRGWnt6JmAg0SnL94ekR4OOXlLhXYSndR8W4VxKjtDmKyurlKnoMBYwGFwW0XeTp+CANnxsw5och7zFW84lePDq8Zmgw/BMcVtGD74UOrD/fwIdPR0qh0c4+OZ3Rp2sJTbZUrwoZ6/OviAANTwlop63s3OmN56mNjhUD+M0vQ7+wCNoJ3v/JwG065ZF3BAAMg/eFRFNRgR69ODPM2ahHwzEJXHUfcd1hDWQN3ULb25ZR9Aa8RCYPPwb8IxFpklARIgARIgARIgARIggaUIMOCwFC4KkwAJkMAGERjb3bBBw+RQSIAESIAESIAESIAEziYBBhzO5rzzqEmABEiABEiABEiABEiABEiABEjgSAkw4HCkeGmcBEiABEiABEiABEiABEiABEiABM4mAQYczua886hJgARIgARIgARIgARIgARIgARI4EgJMOBwpHhpnARIgARIgARIgARIgARIgARIgATOJgEGHM7mvPOoSYAESIAESIAESIAESIAESIAESOBICTDgcKR412j84Lbc3LotU6+2XGOP35Cp+OrQxcE3dEg8FBIgARIgARIgARIgARIgARLYcAIMOGzQBH25f1Xu3P/cHlEn4NDT0fqbWxfD5/CO9hvZ396XN2lkX5/syPaPj+VrKH+Vxz9uy/Z2/Ow8ibVRVPVK2/7vyYB7ld+bW9uyfQvWk8xEomOwffU4RDOdgMOHp3Ln0lP54vpaLztnnEUSIAESIAESIAESIAESIAESOCMEGHA4sYmunXgdxrjT3B7olM77axdldsBBAwEmsFB6NGMdDRbEAEMMLMRARA4KBNs78vijiFgbv+/3gw3dNjOeNMgpDuVYTK4TcIDEetjBGlMSIAESIAESIAESIAESIAESOFsEGHA4ifkOzve25Cv+6vim3QjYlXBz66q8+KCD+ywvLsWdCtUtFaM65aCaTnPYLZFs+iv86uQPgg5w8DWIkIIGoQvUl/4EQQIbVEjNeVdCbmvoG9nhOGJjtqPFCQ7t3QqWKdheHOwuabKr+nO3uDTZpQNiQgIkQAIkQAIkQAIkQAIkQAJnjAADDsc94SHYYJ32MoDxq/R6W4BzcGfsihg4zeowmyBDcMivvS2D0NxgjDEw8PjJTgmSQC7fWpFMIJiAwIO1jLok8/hWm0N9y4Y1oHkf9Ijt4+xEBhxUzbHwPQ113Bxo4MawDPoDdt4qyyRAAiRAAiRAAiRAAiRAAiRwNgjMDDj8KT9dfivfpc8Pv/59JHTef/jnSOx6o8fVj+83XP0f7B4oUuNOs3N2k9q4ztDRDgEGv5vCBxzUdnCcsQtDAw7xWQx5VwZkVg04BHvDgMPk8xwQtCjYQm5ZDkFp2YCD3RkChj7gAC7bYOcGyiIJkAAJkAAJkAAJkAAJkAAJnBECMwMOx0PjuAIBx9VPk9rIFfBxp3l9AYfugykx4MEYceuDpjZIgHooiix1S0XopzyMElb6OxzauxtUb5zdMPAS+lol4NAKzmDgmg7Y2UbmSYAESIAESIAESIAESIAESODsEGDA4STmOjilwyvgYfdB16HtBxxudnUajrY62Y1bMzKG5nMITGDBteuOhPxgSFE5HFd8aGTeEWEdcc2nnRG94EKo97tBjF4eb8qMs2twUL0JFu1bKvBsDT+CFGzxY26IsYoESIAESIAESIAESIAESIAEzgIBBhxObJaNE5/HoEEFPMQQjq2taz3o0bZDJzrY5QGUqlfagnOe+zFvsQhBgeGOAwmBhFJfBwNikAGvxcwBBj2mYA+vxTQ7I1zgINxG4W/NUH13+4TKVfYzN80sz0G1NKgATtj5YetiW2En7rYK6MRjLYyqobFAAiRAAiRAAiRAAiRAAiRAAmeQAAMOZ3DST+UhuyDFqTwGDpoESIAESIAESIAESIAESIAEzhABBhzO0GTzUEmABEiABEiABEiABEiABEiABEjguAgw4HBcpNkPCZAACZAACZAACZAACZAACZAACZwhAgw4nKHJ5qGSAAmQAAmQAAmQAAmQAAmQAAmQwHERYMDhuEizHxIgARIgARIgARIgARIgARIgARI4QwQYcPimJzu+uWFx8E0fJA9uNoF3cv37e3L99WwFCpIACfQIfHopl8/I9ym82ejSU/nSY8F6EiABEiABEiABEugQYMChA+bbqF4+4KAnlvlVjxsG4fPDn+Xc7kv5HE70f5YHn+IAtf7yw4/d0b7a6zjZakftdTWPoGGkTz/OqeNafnSnM+DguUwd9/q5TfXYaH/9TM79xxnVz9jabGjOqNJ5fCavZkgemYhZx+F7mY4Vx3zOjs+w0PbDBrw2Zj2E36G5x1O+ezr+c3vv1jc1x/AGn+UDDvp/z215v76jpCUSIAESIAESIIFTSoABhxObuDeyv70vb06s/3bHGx9w0BP1cKJ/OgMOXWfJOHCYmY1wnDGYE0y7zDpj2iRuRzOWkw84NOdEAws+gBeCDeW72pmypaqbfY9YOJo5GOmw2aRzFjno+G3A4c2tbdl58rWpVSr7/1+o/v7vRXIzcp2AgwZHNvD/vc1gxlGQAAmQAAmQwLdJgAGHk5jXcNLlTxI/y4tLF+XmVvpce2tGVrflHQgHt+XmtadGr1xRClekkq3qlooPT+VOS+f/Z+/seew4jr3PkIAyfYH9LmJgw4oMQyCUKF2AYHQVOLsXphMqEL0CA0UCFQkr7L3kEgQfEYbpCzAhIZAECfomimwQ4hssfQO7H1V1V3dV9cvMOXvO2bO7fwLLmemXqupf95zpqumZoXTRnbefhvsvlRnN3bfh4eX3w40L6W/v+1zqp1ufhINbB+Ge5F0+CD/l3O9L+oX3w70Zy/zJcYgTdetwRYfiAT8uwHdY5e6hu7Ma777SneFXYf9yvPtc7siWO9Ek7+rNuFzayCPbjUzvSMW7mN072o2gguAwTlS6c6ptO5+clRBs29ke3d69B6pt5S44s0t3oc0dZtLVqRN1WU7dtklDKkbFBstO3Rnu2WBYix1KnutHsa07HirblA3a/mrfj5dpG0REtMWvvonjRPo394cbH7buyAbR1tgahtrutg08Dvfi6oyLN9M55YMIzs6slXS5siRP+iWXSzvseOeVEcq2DY6Hrg3eWHVs67gxZHjr3wfiHY9tv5Lgd+Hw0iDo0LxeJINaqxvoutD7DTd5cr2g68un4f43pV6+xoS4So7luUcqXlxp13lxRV3HxA59PXt6Pewg6KBGFHZBAARAAARA4HQTQMBh0/3Lk8fdcOh9EA4e6CBDMYwmcGUCWNIDTx5LUKC1OoHqVgGHcyWNAxNqMtiSoTTWu48/DzdUkEEXoIDDjQufhx9S4g97EliIQYpWkIHu1u3s2L+pu3c0gbcOuZ7oh0AOQnbqtIEdxynKEwcoOnqxPu1b2VqcOOg9B6t2NKS2CyKk5HZ5V5YcHB1wyIGJEFr1KxbEQC1zp3yxX+9zsMA5k2K92bI8YWdy3IFqh7OB+UubQr//jH1KOtfPHIqjp4qkXWVDnZlTrB5bx+blKnmn7gM9nqiYss+NR13X6rE2ZGV+p9sXfRtIDwcN2HGmsV7r0nYZlVXAYep8UbX1OD6u8aBtUKaNdolX+W1ZoL0Nofzb94Vb89a7XqT6727vutURKXjQChRzUFmCDNqAFNDO14HG6gSqWwUcPgzXchrVKdeiwIGKlq6kd6Jd2jrsgwAIgAAIgAAInGwCMwMOP4bPLj4L76W/j7/7eS2tfvHyX2uR64VuSo/XG0Z3dmSFQZ7ASe3G5E+yBkEKKdIMOGgdbiK5cMDh9UE4oBUMZvVC1B5XODReM0Z1GuXF5kW31gGqJ/3WKVDSnYMnOVaeddzZIVMOutSZ3taOm9Tx+sbpTo52kvS+CHHbioVjoG2hshJ8mBtw0PWd6vQojKxUoG0KTDgb+JEZFdyobGbBjoNSZm1w4yE5s7K6INug6ttdr0cf631bS46sLZRa18ntcxxKXV/HH4s2uy31bfrIhmxLHktelz9WsqmO6jcTTFHFZJfsK/2gHjNwHNY5Hro2iJET28wrlaNjalMJQkwIcNkcdLh0GPgBi9H1guu1H7OQFQYm0BxC6P+2D4IUYp+7TlCyv7bY48F1S2Ry0MGv9JNMbEEABEAABEAABE4LgZkBh800d1OBgE3paVKburNTBR4GE7dVBBxIhgpA9CelzdaUxEbgYZmAw7IrHLJjzMvs7SoE7xRko71jkzK8o0b1i/xYaFHHwsvMNjQcUMlr13EOX3YM0+MeamWAyNHbioVjoHXSfnEILVMtU+/r+jo9pMcfCkfVDmeDD25UNrNgVd8qcis7dMCB9nVf9mUUkb6MPtb7pYbeq3nUdXL7HIdS19fxx1pj2S/1S1rcq+uLDbLlPuCxZMv2ZabxZwIOkXfT+aa25lUobuw6DmsbDyMbPLLOcebl8il90cDDoisc6tUN1ggfeOj/tq8i4BBXSZQgx+C6RWZOXQdtU3AEAiAAAiAAAiBwggkg4HAcnTd5Z0dP1uJErvtIRV4G226IvesUQnB3qihfy6ZJ6bUJmW1NlErvZSiPUHQDDlxOHq/oS5ubY50g7WBGCTT5L46uksoOR73838ojh6vtbNtyJJfKtnTVNmUrdMAgJ8Ydkp8fl8h52p6oL5cZyJLqlYPknLvSpoHNSRjb59mQDbJyQZTy1jqfsW57hYPvL38cxUZ5rX4tbaCSuh0DG5KtpMvab+vY/L4NSZwLfog96g64dnr1eOR9GUsjG6Kmo/SFfgkrtY8DBHks0RiTc4TsaJ8LbAXVMQGHuDrI8kxkdFvlXRwSLKM8Jcf3vz+OEvt90R0PIxuSmba/U6LaZF4qTXatXkltbZd5hwPVaTya58SbIAM/gtd6zGEFAQcOlGvZdA3Tj1gowyZXbqiy2AUBEAABEAABEDjxBBBwOLYutMth2dGXF2yds0GA+DxseRFXDhAMVjjI3a3q5WGygkJ0VcEFmiiKrs6EUTGL72koL408uFUeoegHHEIIsiIivVCy9T4HpWa4ayf2DacoOW/xbr04T1FkdCji3UhxXqPzFtPsXcrk4LdedMfiYr7IyUZn5y2npJ2GraaI1lccvWLft2H/pnuHgzhtRk58D0JZrUBtS/Kcc6dZFj3CothA4mO+TSvpUkfx5mBETI8vJFQBh8xULa2XNnT7T/MR59w+AmMDDvaln8aGpKvpYPbs5jp9GyxvH2QQPio9va9Cxum+/tyrsuHqY9KpuC7TF4ZpsSE70HnMKl05TTrGbSlfBQok148jWfFQzj03jp1tOaAmAk2+5tDvi3JO2nOua0PS1RwPYkf1fhGrvxloUXVll1Y2LPyVCnLa/fseWKD+/abfcR0EiI9VlGuC5A0CDv56QdeGdM2w15j6WmGuaXKd4WD79n2dSfoCWxAAARAAARAAgdUTQMBh9Uy3W6Jb4bDdxh6PddrpProF1sEx8qYcOFN40wfK0UyqyfkqjtsK7SEHsuGorlDDCkXVXFYofItFDcbxqq0+MeNhg0wM43mrG0yVNRxUq+fWoAMiQQAEQAAEQAAETj4BBBxOfh8u1gIEHCZ5rTbgMKluawuUu7/pbnxn9cSRG3BiHExq6VkNOBy5l+cL2OrxYFcxrCUAN5/UsZZEwOFY8UM5CIAACIAACJwYAgg4nJiugqEgAAIgAAIgAAIgAAIgAAIgAAIgcHIIIOBwcvoKloIACIAACIAACIAACIAACIAACIDAiSGAgMOJ6SoYCgIgAAIgAAIgAAIgAAIgAAIgAAInhwACDienr5awNL6xvHwbfQkRp7IKuJzKbkWjQAAEQAAEQAAEQAAEQAAEtorA2gIO//znP8PPP/+8UGNfvPzXQuWXLbwpPcvat7p6izvW5rvtqzNkIUn0mbjrTxeqsmDhk8llwUaiOAiAAAiAAAiAAAiAAAiAAAgcK4G1Bhx+97vfhf/3//7f7AZuKhCwKT3jhj8J13e273vkvYDDvG/Fj1usc9/d3m1/e56+037pMLzThbdgf1NctqCpMAEEQAAEQAAEQAAEQAAEQAAEVkJgrQGHX/3qV4H+/vM//zP84x//mDR4U4GATenpNpic6h1/F/9NuP/Rh+HaufR35ZmqbvO++uZNzHv4Zbh25Y6q92V4kWqRgyyyzCMV9FnMVh1KF915+2m4/1LMoG+/77SDBFJk5paCFzudoEK9usG2/dop5jITH4qBAAiAAAiAAAiAAAiAAAiAwIkgsJGAgwQevv322yGUTQUCNqWn2VgONuyGw1cul4MHOshQ8ul75znIUJJDoDrnSlCgdRe++lZ6CixIEIIDE8qJb8nQKjlY8MUTnbTQ/rh+Y9XHGeGyEEQUBgEQAAEQAAEQAAEQAAEQAIETQGBmwF14pUcAACAASURBVOHH8NnFZ+G99Pfxd9PvZqB3OEigQbb/8R//Ef7v//6vi2VTgYBN6aka+vR62Ok9RiErDD66E96aivS+gbJywWQNnHEp1ww4aB2kVx1PBRxI7miFguitt9MrJJqPWZx6LjUppIAACIAACIAACIAACIAACIDAaSAwM+CweFN1wOHXv/51ODg4mBSyqUDApvQ0G9xb4SCFKwd7zQEHClosEHAYr1CQRvS3/fqN1Q1azCnnopuKfRAAARAAARAAARAAARAAARA4DQTWHnD4r//6r/DyZX4RwJDZpgIBm9LTbWzzHQ66tA4yxHcYdB+pUI9DaAmyP7XCwT+u4R+xEDkhjFYo/C3895++Cn998zb89as/ha/+9214+79fhT/9z99KdbXXXCFBqz8mH9U4aVxUo7ELAiAAAiAAAiAAAiAAAiAAAmeMwFoDDvfu3VsI56YCAZvSM268vaPPjn5+WaN/ZwM52uWFkjn4MHikggIJ8tLIuE3vepCVAiKvClhoXeX9EBQk2L3d+3bEYgEH4mIfn6BgRuO9FiGEk81lPAKQCwIgAAIgAAIgAAIgAAIgAAKnmcDaAg7LQNtUIGBTepZhsPY6FHBQj1CsXd8cBbNWN8wRdIQy28jlCM1BVRAAARAAARAAARAAARAAARA4bgIIOBx3D2xaPxzrNnFwaXNBKgiAAAiAAAiAAAiAAAiAAAgsSQABhyXBoRoIgAAIgAAIgAAIgAAIgAAIgAAIgECfAAIOfTbIAQEQAAEQAAEQAAEQAAEQAAEQAAEQWJIAAg5LgkM1EAABEAABEAABEAABEAABEAABEACBPgEEHPpskAMCIAACIAACIAACIAACIAACIAACILAkAQQclgR3MqrFT1wePDwZ1sLK4yPw5ua34fzlB+HN8ZkAzWeUAI+9D+6GR6e+/W/C/Y/8J49PfaPRQBAAARAAARAAgTNOAAGHUz0AFg84vP3m0/DVN9vpdman+PWDcPGDb8P+69h5lH7x5qtuTz7a+zpcfdzIJjmbdrIHOrt2NkxfNCk6dV+H8x+0WWS2iwqm8o/vhvN7z5epuYE6z8NV78zy+PlajZlXYf9yGU/RKJ1GMiI74mfbSuVUXnM8bakNG6A/R0UcmzMDDvncj9xH5/0c3brMu9u7Yff2O5204v0lAg74es6K+wDiQAAEQAAEQAAENk0AAYdNE8/6noTrO9fDk3y8HTtbH3AgxzY7HZHZSQo4dIMKg0DEKkdGV/9RlGxxwKE1Nijt6uPn4WoODujggoCgNHKCo2PbDFilPBuAkPplu602FAtP0B6f+6VfdMDhyRc70wGDp9fDzhetX93t/D0OvYADtePSYVhneOQEjQqYCgIgAAIgAAIgsMUEEHA4js55dRh2d3bC9adaebz7de3ch4H/rjxTmTYvr0B4+GW4duUOL9ON9b4ML1ItChyILPNIBU1gW3UoXXTn7afh/ktlRnP3bXh4+f1w40L62/s+l/rp1ifh4NZBuCd5lw/CTzn3+5J+4f1wr7UCIZeNO+S4RefO3jGODt2Dchda7raTI6zvTPN+cVZ8njgv7JDepFUU6c61yCMzjEx/VzzeCRc5zvwYKMlOrs2tAwHR0TU2ajts9XjEzli5296yo9aj7t43bGPmwkHnO13idA/ZtWzOacqOX/QVB7+dzn2+dzf20d6DtMrA3yWnuj5NBxJK/9VcdDltTzY4Bb68fJXPu1tqgxnH0j5qc2ESW6LTbF/Y8UXlxmPPkrGyzrt+MuNO5+WAQwh1n70Lh5f6QQdawbDTCfK2Vjfo39Br58pvK7XD5H10J7zlxtHv9Kfh/jdf5t9e81udfldzGtd5Fg4+uhPuX0m/++fkN9f+5stvua7L7UHQwQ4rHIEACIAACIAACGwdAQQcNt0lHGzYDYf+CQAOHuggQzHsxZXOc79UJ09Q4yRYT0hJAtWtAg7nShpPnFVwg469jGJJY+/x5+GGCjLoEhRwuHHh8/BDSvxhTwILMUjRCjLQXcqdHftnAzNaQ9yPzok4SuTIyH7Mrx2TJIOcF+1Ep+QoTxzJ6EhFB1g7X6mw2UQnyjpipQA7yc1HP6ie6Ivl2QYJMCgnq0ib2mvbuhALckobfEJwjKlcstWyc+W6JmvGupBPL/KynhT4uPq40V5lV5ZK5ZWt0leZS66j+oTScrAqS5r3KEmWp+ptgw3KnNifcfw92kvnTra7cOiP3+j8C0sjetZB0RGL++NZQnIh/g1xqxjGzjkFKvxvMj2OZoMMWQH97uYgQ04NIaQgQf49rWXUv6/xsbf8m+tl91Y4iFpa6dAJokgRbEEABEAABEAABEDgOAnMDDj8GD67+Cy8l/4+/u7ntdj84uW/1iLXC92UHq83jCaHssKgmsjWk9YsdxCkkDLNgIPW4Sa09YRYJHW2rw/CAa1gMKsXYtm4wiHe+zO1qU6jvCmzwIF1hGrHMzuTXiY5fg2H2soLQR+TLHI+yx14L7R33HeitHypTWnixMdHSGxAQsrZLekod5nPu8ALlV2ERbdsdkaTdnVs21L3hbU3HXX6QTvCUk9synpyXa/LH0cJuR4d5rqFy6O9u+HqHrHWj1wk7dRO4qsCFrIv9tnt9toQx5QeKxJwiGObAg8X9+glooqDa39pa39slzKjPV+fuJFtNnA4kuDzOOiQ7v63AhCmfPMxC1lhICsOSo3qNzVnpRUOg1Vh9e+r/313x+73OavSO3xd8QETXQD7IAACIAACIAACIHB8BGYGHDZj4KYCAZvS06TWW+EghavAg5uASjnariLg4O6o1RNirXCw3wg8LBNwWHaFQ7m7Wjt54qRW1iuHU+cZpzQ56UV+LEkyFwk8eJlFn3e2Uo44dymAMCfAwTbJqgh+v0DtsC3ColtWBRjYWnVs21n3RWm32uv0w5ECDsqmokkcWe1oR0bR7udh/+bz8Obm3bD/WjnaRUAwqztIRyNglYtvuQ1lTJcxmDnsPQiPiMPjsiLEtEsFXlr9lMvO2in6bXHpr3oc23L2qBVg6K9waK1u0PLqwMNaAw78+69WVkwFHEZBbN0M7IMACIAACIAACIDAMRFAwOE4wDff4aAN0UGGOOHNS251sRUEHGjyrGVTwOFaXhKslc3Zp/cylEcougGHEN/f0HqkYo4WX2bKySXHuThXqjY5uu5RBsq18sgZajs8thzVpLItXQPHu+mUljvuylqzS7r9HWDTTpLbsLsbRGg4/ayj5VAbbrHNcqffMmm0m+t6RlFGHVSJDmdO57o6QPBKrVKwuprtbLRRyrHdtLqBHnl5/SBcvfkgXM3BG4Ve2dDv71heZKvayt6SKuU2ZoN7ESb3s5wHPB7vhn3i8PhuuHhZrbQpJrt2xH5qnmNcx44RLSbuU35/BY/wqev5lCXe4UC/xTPeg6CDDPwbqVeJZTOOvsKh+v31AYisK4R+EEUVwi4IgAAIgAAIgAAIHDMBBByOrQPsW9F5oplf1miDACFQAEJeKqbyBgEHmiDLi8biNi0NlhUUIq8KLmhd9XJijyu+p6G8NPLgVnmEoh9woOXs6VGM9ELJowQf5jq5refwyZmJ6cUJjg5YSc8ObwooSHn/oruuA9oJKoTOKgRmzAGDYoNfTRFtdIGQ5MyzffwixZKv2xntT3m6jjyOoRxtU08FH0r63fBItW9uX1TOqbMjM++kZz2Uz3apgENOs6OVmam2Zc6UxryFV3SgYxAlOcvC5pdtto0FuHxhtMU25HanNl2k4Io4/Il3bGNsm/RV6fM4LkccpE7sgcTIs4+ZKVCnAg7JhnyeCdNcvr1DKxsmP2vpHp+gOs13xPjfSRdgML+vOa8fcPC/7/SbHN+to39vP2y+G0LrysFhaseMQEmbFFJBAARAAARAAARAYHMEEHDYHOvt0DS1RHc7rDxWK7IzuxIrlCPs5SlH3WbVdZrOsq2Eo0SAHGPrDG8eDWxYgHknOLOAhOWKzlzdsJzwubX0ara5dVAOBEAABEAABEAABE4OAQQcTk5frcZSBBwmOa424DCprlmAAwzqrvrwXQFNCUgEgS0mYFbwyMqSLbZ3baYh4LA2tBAMAiAAAiAAAiCwFQQQcNiKboARIAACIAACIAACIAACIAACIAACIHC6CCDgcLr6E60BARAAARAAARAAARAAARAAARAAga0ggIDDVnQDjAABEAABEAABEAABEAABEAABEACB00UAAYfT1Z+uNfEN6PFt6C4LhyCgCPA7I2Z+DUBVwy4IHAOB+NWL434x6HINt1/+WE7GCalFX1E692V4cULMhZkgAAIgAAIgAALrIYCAw3q4bonUxQMO9Pm2/Om1LWmFmJGdYv5sXnnR3NRLHrtfDDiOt+MPdHbtFAB5S06L+oxgTh/vjORntmMRk7lTfTEpwBUY2eyKbvHhcv21TINWzX++DUdro7U7OuX8WcxmECzm24DDXP1zy81v+WIlo+32s6F9CTT++fOs/JLNxc/5vmT7WeZ+uSPkLBxwwAs0j0AbVUEABEAABEBgawkg4HBsXbOBCd8Sbdv6gMPe8xBOcMCh60APAhF1Ny7nNHV11wqWTrGO49JicsVN2JyVrWln1Uz6Zi43LvryFsk5iu5O3TWcE5vri0XY9cvS+OfghA84PL0edi4dhnf9qiGEd+Hw0m44fFUXend7N+zeHteua607pRdwoHbshOtP160f8kEABEAABEAABNZBAAGHdVCdkknff9/xE6g34f5HH4Zr59LflWdKis3LKxDoDtKVO6peWb5KgQORZR6poM9itupQuujO20/D/ZfKjObu2/Dw8vvhxoX0t/d9LvXTrU/Cwa2DcE/yLh+En3Lu9yX9wvvh3uOc0d0hZ4Hv9gXroEQn4kG4Kp+RpKAE/TOf3vs68B1TXhnwKuxfluOylbuOJO/qzQfhopdXySyrLKJCsis5CDHB/j9woGrH2tmY2kTlYjvUVtrLgZiSLu3pcyDzos29u8nMXDg07zbbJsa+SB5O4l/uRCtdv8gs6SH09GgusUxhblmUu79Urtd/j/a+Dfs372aGmZFtRnXUtu95uHr5QdjPfVJsKwLsWOV0Ny4zB+q/vQdqbJY2zbGbbDTt6Y0HNsL2ha5n2mpW0tgxKXbbfkjjT8ZksHXi+Vvo0F5lt2Q3zhdtm+iPxSPnffqN4PE6ry+s7YU3y9T9ZMZ+n52Y7rfabrJP87bnp7Wb7OOyDRYUNOgHHSigvdMJKjSC3bwaQa4//nc/rpTz15MYnL4TDuR68dGd8JYbrq9X5ZpEWVTn4Bt1rUnXuRdXRLfammtgbA+CDn5k4RgEQAAEQAAEtp8AAg6b7iMONjTuOnHwQAcZimE0GctBhpIcAk8Sy+SwtTqB6lYBh3MljQMTamLXkqFVVvuPPw83VJBB51PA4caFz8MPKfGHPQksxCBFK8jw5IudsLNj/6YmmXEyLxN1cgZkPyqmSbt1TpJBjUk85UR54nxEhynWp30rO0lKm+iIGGdCFSC57bzoLD1SZdkJyU6bzqD9RnlfhB09a2uXA9VtsSCHyzhalZIqIbeR5Jl+0Bypmuonp4f5qwALs2fnT/qkUhuDS6lOv/9CYAczt0nZ0BCZk5x9OT0Fa6RPtd25DNXt9iOVUn3JzMpY1fKm7Z4amzafZIvd2VbeUfbYDGZXziPPrlNvsv3WLqOyNSZTgXosk37lyLf6bMoWne90677oszPWdw9s/UH7uxJUBq102LkenqikECacc6rzha5BAYJyHTGiQgwemGtIKsDXDvWOhupaE+oVC7aOl12Xt7bElQ7btzLDWokjEAABEAABEAABS2BmwOHH8NnFZ+G99Pfxdz9bKSs6evHyXyuSNBazKT2VFc3JYSolKwzyXSKpPZiEDYIUUruaBJIercMdLxxweH0QDmgFg1m9ELXHFQ7xnpfYw1uq0yhvyixwMDWBr52TJNw5FaLSyrN3YNnxc3fnpd5423HIend4k/PZdvh7sqLTVVZAHC3g0OU2aCixa99hrm0W+Z63Dn4I7/PmTns0oOiyd9W9PH0sOqUJ/ljS9bZfxrVJO6wsoONMSt/KyhFpmx+P6tjb4I/bAarBeCBbSX8VDCGbiacdO2YlTLZbl3EsBKC0NQd5JCNtK2YqX7VfpfJu1X4duOES3p52X4zGUDmP7PjKKxIqdt7K9rEej1SC2kK6SjCnXa+byteVFMTuBbRz5fZjFnSdoBUMVWDBXR+ymLRaoRkIz4Xqa5e/vtjjunwWlXdi0MEGTHImdkAABEAABEAABLaQwMyAw2Ys31QgYFN6mtSmJoRV4GEwCVtFwIFkqACEnQA2W9BObAQelgk4LLvCodytrR2L2jlJTeg4NC2HoMiPdRd1ErzMAtE7RiWH95oOW7sO25SdoAU4kKIGiy43Z6I+jO2Mj7dYB6q2WeRXbJQtXIYfb9HObbJXO8XKcfXySIb0n+iMNkfn2tqpWxP3bR2d79qkbOBS/pgTo06xp1rhoB1zqp+OrQ3e7rqvSRXVKQGFdpm+8xx1lMCDa6vGwPsT+c1x3LFJZKtxIEmytTwo1en3dVt9wTapcaXK+DEkes2WyjeDNqZUddCTzf21aOChGcQerHCoVjdY86rAw5oDDqSvBC0G1zo2EyscbG/hCARAAARAAAROBgEEHI6jn5rvcNCG6IlXXHZaJmWq3AoCDnbCF5+xvaYesVDaZuzSexnKIxTdgEOI729oPVIxQ0lVxE7gayeGJvLFwVPV2eGol+lbeeTIKKdEVbflKIPKtnTVNmUxysnJadWOc6ZYT22TaSc7Q7aMyfc6vIMmj5ZoB9jVofYXhzRmFiaRRXHmowObj7WzR7YqPex4pcAJ7XMdXZ5Umb6LssW5LjZQQdt/WV4lI9rPumXFQUyKj9go+1Jy7eS6vjS6ciXLITJMY9D1AdWXcWtkmba3g0WkTtePgQU7HrJJTm9OTzKkz4w8XYj3LecqO5dR59tALxcf5BseDdnMNQffIgtpR7bNcLRjyI6vXKPeadgY+7TDureiKUm2Y7dWp1OWeYcDBXSnHlGzQWe6FjVWPqxkhQPJ1o9y+GPd2kEQRRfDPgiAAAiAAAiAwNYRQMDh2LqEJlDl2Vua5MlLuWhrAwxx0if5OW8QcJA7VVLnmkzsZAWFvOirCi5oXXoy2AYV39NQXhp5cKs8QtEPOJCTlB7FSC+UPErwwU7SyXFwk312LNKyaOdMkuMiS6fFuYsOQ0kvjkp0oqV8vcw/5oucTMw5ojm98Z4FyfM2eJkmXxwr3U5++eAMDrqOLJUXeXKXXNKd0x1tsDooLduaZPtj4Ve4lmXlnKf0GMeSgyhl6Xnpu/QiyGS3YePuGJc61L/WdmIf85VTnDrE1Mv2UX+rsrqfqe25nPRq2qZ2UFsv3qTVICrgIKxp2+sHZzfZpllmbbpv3Xgw7dGMdB2ywbTBjX+TJ+8+SedNpy/yWHDBjGwz7XgbFAtvd+nDgW2Dvijy7BgiM3rjqNSJbfXsW+eFbp85R1KQUs6J+jdF11T7tFJh0a9UUKC7WUf/5tOjFfZFj8FdM+SxCxuYULbxuxvUyx/pWpNW0fnrnMiS2iY/X5viyoapQInIwBYEQAAEQAAEQGC7CCDgsF39sX5rBktk16/8ZGiwDsFRbW4EQESkdlAlDdsjExj1HzmL3kE8ssKGgKX0TDjGTbsHdRpmbU/SBu1eqi/WSOq47JmzumGNzWbR/SDFujVDPgiAAAiAAAiAwHERQMDhuMgfl14EHCbJjxzWycoocOwERv13XM7eLCgDJ3yr7Z7VuLNcKD2uQSs11GqNs0gEAYez2OtoMwiAAAiAwFkngIDDWR8BaD8IgAAIgAAIgAAIgAAIgAAIgAAIrIEAAg5rgAqRIAACIAACIAACIAACIAACIAACIHDWCSDgcNZHANoPAiAAAiAAAiAAAiAAAiAAAiAAAmsggIDDGqBCJAiAAAiAAAiAAAiAAAiAAAiAAAicdQIIOJzqERA/d+Y/PXaqm4zGLUWAXrRoP4G4lBhUAoENEIifwGx+tWMD2telgs9B+USqUoJzM8JYPYc4jvSnWhX2U7XLnxtNnyY9VQ1DY0AABEAABE4EAQQcTkQ3LWvk4gGHbX6LeJ5w0tv8P/g27L+OXCh9NGnsvuF/8FWAZYlP1hvo7NpZCaWJ8t3wqEofJ4zkZ7ZjEZO5U30xKcAVGNnsim7x4XL9tUyDVs1/vg1Ha6O1OzqC/EWHyw/Cm8qImG8DDnP1+3L+uFK2sQQ+BxvnNac3OfRMi3zOq9/IWNJ+LcPy68kKIfDvLX1hY+5vjuhPX+Wo7BjoGmQtzmEgjLOinaNrh5ZAv0Xn956HQJ8zns1CS+jtPwnXd66HJ73sFaQvHnCgucOX4cUKdEMECIAACIAACCDgcGxjYP2TjGWatvUBB5rwneCAQ9eBHgQi6n5czknq6q4VLJ1iHcelxeSKm7A5K1vTzqqZ9M1cblz05S2ScxTdnbprOCfqvujoXqTp21SWfxspMEDtKkFZNvHx3RKYnes0UzkKdmS5cxp7ypimJtNvEQcnPLun18POpcPwboimf71/d3s37N4e1x6KXktmL+DwLhxe2gnXn65FKYSCAAiAAAicUgIIOBxHx746DLs7/qL9Jtz/6MNw7Vz6u/JMWWbzvvom3fN7+GW4duWOqlfuSPAdjSTLPFLx8k74qlWH0kV33n4a7r9UZjR334aHl98PNy6kv73vc6mfbn0SDm4dhHuSd/kg/JRzvy/pF94P9x7njO4O3+GigANPpsvdtuhEPAhX/XfueWIod9lkS/XsnT6+k/pBmkyGEEje1Zu0iiLVYZ3JLCPTTejZriKnasjAgaoda2djsoHKib15K/axU1Dy8507Y7PkCz9yDlJa4y4qMx/k+zbGvngVk5PecidV6fpFZkmPzHN7lB2aS7SlMLcspD3j/nu0923Yv0l3KGObMyPfEHfc5vA8XL38IOznPim2leoN58v1R+ZA/bf3IOxf9n0Uwhy7DXsyoDce2DjbF5qDaau5k2vHpNht+yHZLmPSn2s5vRCq7JasxvmibRP9sXjkvE+PBnHfTvdF325qp6+v09ocuB17d+PvRu5HGZe2TuFt+8HeOVd56pwQPOMt1fVt0DUir9mrpHgsSVu0nNb+grLTb+7FLrs+hznnhbdQjyEaK6UvQlq9IOef5Ufjhcs2xiUFDbpBh+b1XqxqBCLout69BsdVi5Iv1/Z4o+BOOJB6+fEJVT6nRd1U5+Abdd1Pc44XV9Q8ROSZ+QjZ7Ocv0h5sQQAEQAAEQKAmgIBDzWS9KTz52A2HySfLyjh4oIMMOSfQBCAHGUpyCDwxKUGB1uoEqiuTEq6aAguSxoEJNZloydAqq/3Hn4cbKsig8yngcOPC5+GHlPjDngQWYpCiFWR48sVO2Nmxf1N3U+IEUiaH9USbJorWOUkGNSaOlBPlyeQ6OgqxvnY6dEtlP06MzQRWsmRSfdN3PBVoTNDJKW04Z1Fco7zSE3drW7scqEKLBdmwoKPDThe1kR0U6RNSoDnSseonp4f5p7Znm9lJlz6JLTT/K179/iPH/WvVJmWDEeYOnH0ll+oXh0Xbncsou3Ka2VF9yczKWNXypu2u+9uoYf6lP0h2e5wqe6wAZlfOI8+uU2+y/QO7W2My2ZTHRbaR9Je+4GXvfuw2bWnbzY4sPbKV65RyVjelR6553OV+LG2jOoW3PxekEUWHpPB2wMGUMwfFLpMsB9Quz0fyWltu0+D8M3VItzjt6TEEk18fjNjl0g0O5rxYyMYo1Z4Hpb+yzkV2aKWDfzSid70XuVTnC/0wBd1cKNd0KRa38caDXLt1Hl/H1SMQzet+I+BwLdfxsnsrHERrXOmwfSszxD5sQQAEQAAEtonAzIDDj+Gzi8/Ce+nv4+9+XksbXrz811rkeqGb0uP1htaERArJCgM3KQhhcOEfBClE7OTEg/QqnQsHHF4fhANawWBWL0TtcYXDWzGlbKlOo3wpsNje1KTROghKdmMCS7lWnj3mCa67O68kDnY7zkRDHwvhybN2jrXoniw30Xd3OLscSHSDxbC8NkftR8eBnI3i3Mbs2maR73lrW4S3vfMbJRZd9q66l6ePRaeY7I8lXW/7ZVybsnMqtTsOjPRtdsqSI+f7QB17G/xxcYxFN20H44FsJf1VUCs6w+3+U04k26772LEQM6StPee2YiYV22NScqv2V0E7b0+nL6p6UYPIp8ADrTp5Q+W4DZ5pGet5nOV+E52yFevtb0pJ9TannCyvlJzeI1m6f1QN7pNOnipmdrnO3ICDrhnHUwm26Lyy32dXyujfBUmVforHHX5SuLHNelMeyaPzogTWGpVGSXyNTzcURtd7lkFOe33zga7ZtIKhCiy4a7U2Y/K63ajr69jjwbwjK45BBxswyZnYAQEQAAEQAIFMYGbAIZdf686mAgGb0tOENXXHowo8DC78qwg4kIyjBBykkY3AwzIBh2VXOJQJbT25t5NSMbjv0LQmoUV+rL/oxNTLLFZMTJJ5ou8DD+06bFN2IBfgQMY0nJout2J8tRfbGR9vsZP22maRX7FRtnAZfrzFOUjMRaUpx9XLIxnSf6IzGh6dIWtn1SR3Z1/nuzYpG7iUP+ZE74ApGarduX5y1Md2131N9alOCSi0y8QX4OlyrDmvSCmBB2WnFDHbiXzuLz+OOzaJXM9D0lPbbL85/b5usy9IoKuXdMQx9Dzs7z0Ij27eDfuP6XGX+nEuZVIJVGbd0j7ZltJ+jMacti2tc7NI6u2RLHV+SLHUD5adZA62XG+ZgEMvuGJ1ZR4VO1Uu55U0e150+JXi1V7W63L43Fk08NAKMIyu91TerG6wRlSBh0bQQGrYYIGkqm2jrq9D+spKysG8g8VihYOii10QAAEQAIEJAgg4TABaSzZPQkbPQOqLfVzqWCYCyqIVGpP4ewAAIABJREFUBBzsJCMEmoRcU49YKG0zdum9DOURim7AIcT3N7QeqZihpCpiJ4315J4mj+JwmsqdSbSV15m4N1cmUNmWrtqmbEfXEcolGk5R2ybTTpLrHA6Tr8XTfmMyTxxGy6453+ko7CKL4tgQA3XnkNknh4hsVXfAebLvH6nQ5cXe/H6BKFuc62IDFbSsSHa2qdH/rDvLjZD6HEi2csJcXxpdUVR25MWGyLC9woHqy7g1srzddKz4iSpdPwYWGg4oFe7Upyyt18gTJXlrOedks+N4DfRytUG+tiuqsLKZaw6+2XYYk9z4yHncl3fDPj0eRC9bvPxtDt70OORxl+0u572tQ7aqcZiV2jbk5Cwvp8QdSm/+3lA2yfL93dMbxcWx6OsknaxLjfWUzGOna4PY4dsa7ZDzlUqN2Imq1ji146DmR/mt1VEiM+uVBLUd5alivLvMOxwouD71uKANCtC8oLHyIcTrdnOOIIZOBhxItn6Uwx+LINriHQ6aBvZBAARAAASmCSDgMM1oTSXsy6LY0ZcXNJ3TdxpIfZxoyIui8sRiEHCQuyNS55pMJmQFheiqggtal56AtDHE9zSUl0Ye3CqPUPQDDuTkpEcx0gsljxJ8sBPDMsnPFqeJeXyZnJ00xwlpXEYrzh3Ji2X98to0Uebl5K2JbMwXOVm/c0RzunuuvqTHCbi2wcs0NopjpdvJL61zzoPOF0fZpMX2akdA89FBAbI12mB1mL5IsrPtTpc43SSrp4fSczniqBy1Uie9CDJxMGxU+UpP5ZCJHXaMVPWyc+8cHN3P1NZcjiSof6kd1JaLN2k1iAo45LFlVx2UtlIfWeaGkVIjziCPIzcerDzF2PWR7XM3/l37DPdOX+Sx4IIZ2mxjt/BI8rzdhcXAtlFf5HHsxn7iEMeeP6/buvLYz/r0b5GtozmUtlMZNfZ8XxALOdepUsq3sqwe7vvUTzW7EtAicbH/7NgSHSzH9QXb3bLB2Z3P39zQZKNqy5CdkxfHM6028YEkxy//riim2Ya4k/XyoWfXr2fE0EqFRb9SQTcdmnX09ZcerSgvgmad7votj13YwISyzpXn+UC65vs5h8iS2iY/zxPiyoapQInIwBYEQAAEQAAEiAACDmdtHDTudJw1BFPttZPQqdJT+drpcGW1g+qycLg8gVH/dZ3z5dU1ay6lhxwr58SL8K68QR2pu5XbDdrdZbdtYDbIZNuaflz2HNfYmLO6Yd1MukGKdSuGfBAAARAAgTNHAAGHs9blCDhM9vjIYZ2sjALHTmDUf8flYMyCMnA4t9ruWY1DoSYBtdqlrNZolkTiSghQADitZvErRlYi/+QIQcDh5PQVLAUBEACBk04AAYeT3oOwHwRAAARAAARAAARAAARAAARAAAS2kAACDlvYKTAJBEAABEAABEAABEAABEAABEAABE46AQQcTnoPwn4QAAEQAAEQAAEQAAEQAAEQAAEQ2EICCDhsYaeszqT4xmv/9unVyYek00KA3ntgv0hwWlqGdpw+AvFrAvXXD1bf0hN7XvC7IWZ+ZWEmNnqPyJn4jaCvP/mvQ8xkhGIgAAIgAAIgAAI1AQQcaianKGXxgMM2v0gqT/7p5Xrq04CjlwRSZ3ZfuDd4Sd/aBsFAZ9fOypj6829VkUbCSH5m26i3SNJUXywii8qObF5U1vGVX66/lrF31fzn23C0Nlq7Y0BBf9LR2hHzbcBhrn5dTr9AsO2ct86LEzEmjzngQIz4E55rsGPtX3hYIuBAn6FGYN+epTgCARAAARAAASGAgIOQ2Pj2Sbi+cz082bjescKtDzjQt9tPcMCh66wMAhF1j2mnqc7tpXR19yoskW4dxyUEuCqbsNmpXPnhqpn0DVxuXPTlLZJzFN2dums4J9p90dHfaf5pGJOdpq0smRhdvPkqBB9weHUYdieve+/C4aXdcPiqYQ7Vv3QY3jWyjjOpHXCgduyE60+P0zLoBgEQAAEQAIHjJ4CAw3H0AU+6/ETkTbj/0Yfh2rn0d+WZsszmffXNm5hHd2Ku3FH1vgwvUi0KHIgsc+eFPovZqkPpojtvPw33Xyozmrtvw8PL74cbF9Lf3ve51E+3PgkHtw7CPcm7fBB+yrnfl/QL74d7j3NGd4fvNlLAIVgHIToRD8JV+syZ/tQZT3bVJ9A4n+5k6jubJZ8nyCEEknf1Jq2icPLIMiPz27D/WptLdqWJtk6W/YEDVTsxzkZud7zjz20U23R7ORBTt8faLPlyRzfa3LubzMxF1+UHIY08aVG1jX2RPIXEqtyJVrp+kVnSI/PcLqVHc4m2FOaUl+t8IO0Z99+jvW/D/s27uZ70edUQl9Dm8Dxcvfwg7Gc7im2luh2rnG7GkOJA/bf3QH22r7Rpjt2GPSnqjQc2wvaF5mDaqrgGd95I/9l+8OdMexwXPrG/tP6c1zhftG2iP5aPnPfp0SAerzP7IrMorIu81BY1HimPx6T6fdC2WxYiM9p2lcdJGX+xHvEpaWS7lhdtcf8zl7vhKn/e8W6QNkcemrfoj/WJXfd3zanIh24M2Ucq+mOIOHA7Gn0Ynl4PO92gAwXid8Lu7XZIoV7dEFfxybUuXxu5ATYvXwe71019nS3XUhbVu27yagh13eZrp64b24OgQx5R2AEBEAABEDiDBBBw2HSnc7ChcfeGJ0E6yFAMo7sndiKV8niyU4ICrdUJ1Z2XFFiQyRcHJlRwoyWjWNLYe/x5uKGCDLoEBRxuXPg8/JASf9iTwEIMUrSCDDSh3Nmxf1OTteiEiINBk2DZj4rZQWgFNFqT4RRwOJ8drTiBL5N5K1u3NwZC+g4D2dl2JqJD8kgLI6c0BRl0ctxvlK8KJUdGBUS6HKhuiwXZ4JytSo1LyG1kR0Wz0hypkuonp4f7UwVYmD076daBMqoVrzgepKzVyw5hbpOywQhzB86+kkv1S39ru3MZZVdOMzuqL5lZCUBoedN21/1t1HCwoPQHyZ49FpMgO348O9UOrXiy/QO7W2OyaQsl2r7gIFvu51Spa0vHdqrWsGG6L7y+Yluum22J47Oc6wNbklgJJF19XOrW/VnL4fGUf9cov4wHET3cOha1zmFtm9m8Dk455/WqwP71KgYP5DpnlE9eNylQoYMGIYSJ62Z1nTUK40qHXhDFFMUBCIAACIAACJxCAjMDDj+Gzy4+C++lv4+/+3ktKF68/Nda5Hqhm9Lj9Q7v7MgKg4/uhLemYmPyI/mDIIUUqSZCpEfrcMf9CZxIdNvXB+GAVjCY1QuxTFzhYFvDOVSnUd5Jnn1oJ761A2MdJSXWTaAlx8qzd2DZYXB356XeeFs7AFLe6+N0so3u1HqniTN7sihd3/W3DkWXA8lssBiWF+PdltrSvsNc2yzyq/YrW4R3CQAVhUWXvavu5elj0SlS/LGk622/jGtTdiKldj0WOUf6NvdVCo6odudyqf+9Df6YHewqQDUYD2Qr6a/qJCe2cka9LGKux5djIQikrc1xnFYMVTakyp6HyJRVBiaI6PX7405fsExfVilq2ODZ6+P2mCzyc9k8VkZ2uRVNwjDbVOrqMR6tLzqlNbZMqSv5k9usN5XsjqFJSbGAXunXDEBYOe9u79YrHzh48GG4poLmXMtd14ykyetm45rr5bnj6jprFNJBDDrsfLFtD1FWhiIBBEAABEAABFZOYGbAYeV6mwI3FQjYlJ5mI6cmVjSRoWWZOSjQmPyI4MmJUwjVRMhNlALJyLpCWDjgILY0Ag/LBByWXeFQ7tbWE+k8yRdbZesn0CndTszjpL/Ij4VIJjlsdlm3CK63XmYpUTsGJU8tixdngzPbddim7LwtwIFkNlh0uRkD7UFsZ3y8xbKpbRb5FRtlC5fh5evauRUuKi07cDZARNaRDOk/0RmtJkbTfWjr6Pa6NikbuJQ/5sSoU+wxjwepduf6zYCDt7vua6pPdpeAQrtMftwmjxvWHMrjE8LYtVWK5e1EPrWNAhxmHHdsEpmeh6TPCTj4us2+EIED272cSrdqA7dReOlgSpGfx1K2R9UXc6a22aZStzqH3GNnJNKWKXWn1OX8rDenxB1qSzN45crpw+Z1cLTCoV7doMXxdYyumxJ48Nc5XXjyutm45np57rpZXWe1vhRswAoHAwUHIAACIAACZ4gAAg7H0dn6zk5Tv57wxKWh3UcqZILVlDMdcKCJkpZNAYc8aevI7CfTexnKIxTdgEOI729oPVLRl93PmZpI0yS/OHhKDjsIsvS+pFt55CwoJ6IUcxN4yqCyLV2DyX12PJTgarc4LDGrbZNpJzsB1m6T73U0nAniYB1EW4nzHZvCLrIoQQdioJx7Zp/sI1uVI0p2iqNM+yxDlyczTN9F2VKn2EAFLassr5IR28a687LzmNbn4PrF9aXRFUVlR164RIbtFQ5UX8atkWXa3g4WkTpdPwYW7HjIJpE8xT+nO+fayNOFeN9yrrJzGXW+DfRy8UG+4dGQzVxVEKUury10/aizGjYYWZQv40Xvy/su2IYiP9fNY2Xw26Dt0PvZplLXjnkqXHRKVVum1NX5dtWK5KRt1uvS6XCU54sv8w4HqjO1OsAEBega2vlyxAoCDv666Y9Lk0dBlFIKeyAAAiAAAiBwmgkg4HBsvWvv2LCjn1/WaIMAIcTJU/VirMHEiSZAUj5u07seaFKm9NTBBa2rvB+ihym+p6G8NPLgVnmEoh9woAlqehQjvVDyKMGHqYl0dE7lUQPl8CSHKj4CUJw7dlbojl36E+dQAgqSXi/zp0l+kZOZZecip6SdetIvJbwN4ng288WxYocn2c0vH3QOps43TlJpq79TSQ5Sbq9zSqONVofpi6Qv2270q+CD6wcffMj8ieMvfSLHxbb00r3EwbOT8sSu1KF2WdtLvh0jJT2xyBycU6f7mdqay0mvpW1qB7Xl4k1aDaICDmrcSQCl0u/szk6sU2PGvRsPlkNhauqQLaYNcXyPx0Ni1OmLPBZcMMOY7sYJ60vyvN2lDwe2dfvC1dHtnW2DHUPFPj0myzjJfZXHSv83wDDRB7k9pW457/ptKmVIWKkrouN5Y9sjebzNemNqaWvsc32emXr6gIPtU19n8l+p8MdFoL/OmXc2uGtdzuteN/W1L10/ZfWfk1VdN02+vP8hPkYx9Q6i0hrsgQAIgAAIgMDpJICAw+ns136raGIkk6h+qTOdYyfmR0VRT+yzxOx05BTsrIDAqP+yw7cCPSMRS+lxDp2W35U3qKPrb93+Bu3usts6KFtu0HH9Xs1Z3bBudLhurpsw5IMACIAACJxiAgg4nOLObTYNE6cmFp04clh1OexvJ4FR/2218zlwwrfa7u0cBrBqBQToXMorWmQlzgrknjgRuG6euC6DwSAAAiAAAttDAAGH7ekLWAICIAACIAACIAACIAACIAACIAACp4YAAg6npivREBAAARAAARAAARAAARAAARAAARDYHgIIOGxPX8ASEAABEAABEAABEAABEAABEAABEDg1BBBwODVd2WrI4NNgreJIO7ME+Flt80WCM4sCDd96AvFLDLO+irD1bYGBhgB/waX+Sowps+ABvf/Efm1lQQEnpjiu9yemq2AoCIAACJwxAgg4nOoOX3wCQp/n/OqbN1tJJTvF9HI99WnA0UsCqSHdF+4NXtK3NgADnV07K2PKZ/aqrEHCSH5mO6g/J2uqL+bI0GVGNuty272/XH8t06ZV859vw9HaaO2OAQV+WWEzCBbzbcBhrv655ea3vFty9lcdVmwTO+3+E65dK2MG/6YuWIc/rZnqqN/jCU3j7GMOOOTfQXeNGRs9L/fJFzthvZ/IPF3X+3lUUQoEQAAEQOAkEEDA4dh66Um4vjP1PfLNG7f1AYe95yG4yaB1VmpmXad14PzXUlaTshpblnNQurpX0zSWMtUXi6rahM2L2rRo+VUz6etfblz05S2ScxTdnboLnZ8dGa4Jm+uLEMKxBBzoM7yyQoD2vw4Xb75yFPwhsfs27L+O6cToPP3OTvyjczPL5t9k0TtRcYuzc9vdNSaEd+Hw0nTA4N3t3bB7+13dwleHYffSYWjk1GU3mNK73lNwpNmODdoGVSAAAiAAAqeHAAIOx9GXNPnY8ZOXN+H+Rx+Ga+fS35VnyjKbl1cgPPwyXLtyR9X7MrxItWgiIbIOHipR9HmvVh1KF915+2m4/1LVbe6+DQ8vvx9uXEh/e9/nUj/d+iQc3DoI9yTv8kH4Ked+X9IvvB/uPc4Z3Z08GQzWuYhOxINw9YN0t00my/pOn+Txp93iRLx87i3Wk8kzybt6k1ZROHlkmZFZJunRaLJLTcJ9SwYOVO1YOxtTm6ictzs7BzxJLvnSHmuz5ItzEG3u3U1m5sKhebfZNjL2RXJwEqtyJ1rp+kVmSQ+hp0dziWUKc8tC2hNl9frv0d63Yf/m3cwwM7LNqI7a9j0PVy8/CPu5T4ptRYAdq5xuxpDiQP2394CdxNjHpU1z7DbsSVFvPLARti80B9NW8ylEOyal/2w/+HPG1sljtQDivtf6c1bjfNG2if5YPnLez59xnNMXU/1nGbE+tuluuHqZ2nk3iL5si2Oe2+vSpb0LsZtx/mV2aacaE74AHdN4lN/MtCKM2vaoVTanuXFdneu5oNqJda7y+VLOw8hCjxOnm9h1zgsl3O463vaRCq3ra9N2Hl/MwrWPpdNNAn/dLmrJSd/pBBXq1Q32mn5tzvU+0AqGL8P9xrV99df7GGBB0KH0L/ZAAARAAASWJ4CAw/LslqvJwYbdcOhvOnHwQAcZivgXVz5sP+ZAdc6VoEDrbgXVrQIO50oaT1TUZKclo1jS2Hv8ebihggy6BAUcblz4PPyQEn/Yk8BCDFK0ggw8advZCTvqb2oZanRCxMGgiaLsR8XaadX2sUPWmMRHeTLpjZPT6FDQvpVt5HEgpB9w6E/+G5Nb5wTUesQ+m1OOalu7HKgSTdA9C7LBpxUFzb3cRp7wa1aaI1VV/eT0MH8VYGH27NAM2qx49fsvPl5T2qRsaLYmJTr7SlGqX/pb253LKLtymtlRfZ+cJHFetTx2THNftOyu+9uo4eXvpT9Itji9tpyyx2a4R5O8DZ16k+0f2N0ak8mmeiyT/tIX7ERnXqlSZcuojh+vSUbuo5hPjnph6ZhU+gSob3OHnRRP26LHZXQPO21w5YvcWP7iTQreDs41qq/6hurTOUWBNxm7TkU6LLzzeK4YNVhk5lEM1W2P3bZWbSuXqHR26jWT2444X7e+eNKsEUJjNeMy13sOOKi5AN0k+OhOeKu0rvp6P26XUoxdEAABEAABEBgQmBlw+DF8dvFZeC/9ffzdzwORy2e9ePmv5SsvUHNTeiqTnl4PO73HKGSFgZtAhHRXQ1YuGJmDSYuUa05AtA43aVk44PD6IBzQCgazeiFqjysc9HQoWUV1GuXF5kW3ZcJMNf1kfvF3OFh58Y65THB5ouzuzs+ztzGRThW9Pk5Ok+ziHGstPVlxQl9WQBQHk2rXTpqSqRwISR2Wl0Juy84Hr4iwumOAwToxIr9qv7JFeLfuuBZd9q66l6ePRaeY7Y8lXW/7ZVw/VI5MPRZZrvStrBwR5061O5dLTrO3wR/7u9TR/sF4IFtJv7qzHetEp/O8C9rF/pPVMbLVfexYRGFllYV3/iW/YiYZ1qlVqbxbtd+teqrHW6svvM3q2PeFGJDTi7w8vnxbzPGgLyrbRVkKkOVxohxtN4Zajj4xqvu3yJa9aP9zXlkT5SgOUshvE4dH6vGLuk98pSI3lzWMqHwpk2tn5jEl884FJnZcfQ5AENPemJwQJ49X7HCAoR2A0CKaj1ksc70fzQWSwnVc7zno0Fm5oduJfRAAARAAARDoEZgZcOhVX236pgIBm9LTpNNb4SCFq4lIXEa5toADBS1UAGLhgIPY3Qg8LBNwWHaFgwQE1hFwoMlxkR8bzJP5XyatrYm+INHb/iS5McHWFcWxMJPjdh22KTuQxSEScXmSLwl66yflUwEKXVftx3bGx1ssm9pmsadio2zhMvx4i3Zu5XEBlaYcFy+PZEj/ic5ocnSurZ2qMWnX1tH5rk3KBi7ljzkx6hR7jIOl2p3rNwMO3u66r6k+2V0cznaZ/LhNHjesOQXuKLAgjF1bpVjeTuQ3x3HHJpHpeUh6c2w6/b5usy8adXrBH9Gd5Rbb83jzOtTxuC+cHaKL6os9wQY+pUhvy/rMb0avZHlMLJ8H3Fc2OFjXJpv9+Jr6PSztzOeUYhR1lDJZZ2YeUzLvXGBix9XPpbmdiwYe2gGG/kqAxuqGbEAIYZHr/SoCDgte7/vt0o3APgiAAAiAAAiMCSDgMOazntzmOxy0Kh1kiM965vc26GIrWOFAd0S0bP+IhVY3vU/vZSiPUHQDDiG+v6H1SMW0jrqEnYAWR0BK0uS2OHiSKk5rPbG28mgCLE6Xqtt0AOIkvNZV25QlVRPunKN2/CS8bZNpJzsr1m6Tr6TzbmNSThxGdwE537Ep7CKL7MSkN9rnY57sJ/vIVuUckZ3iKNM+19HlyWA+lr4jvqVOsYEKWlZZXiWDKUQnXTl5lNrn4PrF9aXRFcVnR144RIapHa4PqL6MJSPLtL2/EkDXj4EFOx6ySU5vTneOvZGnC/G+5Vxl5zLSZ327c92ZdsXyti+YqwqiGH5ZwagO5TUc6GxTOafzeDP9EuvrcSx9WfcFlW30jTkvorwsI7eh3umPVypr7Yq1Ka30C7ESu0U6p6kylG6Y8u9NkSH5OmCig2u5rjtndBnR7R+JyLylAHMv54ok523us5yidmzbVUZjd4l3ONCqxu6jFqJi5vV+BQGH+df7dmBFLMYWBEAABEAABBYhgIDDIrRWWtbe+WBHP7+s0QYB4mMV5YWSOUAwCDjQxEJeGhm36V0PckdFdKn3N8Tm0eRH6pb3Q/SaHt/TUF4aeXCrPELRDziQs5EexUgvlDxK8MFOQIsjkG1OE1L/Ij7KjxPpuERcJvM8Yae7d+lPnMM8Wc95doIt+SIn668m1ZLTsDVleRu8TJMvjpVuJ79kzTkxOl+cB5OW2izyHB8dFCAzow1WB6VlW5Nsf1xztf2g9WTHhBSyU1OcwNJ36QV0yW7DxjmNpY6+ey/9IXb4fpX0xCcHR5yzovuZ2p7LFfm8l9pBHMzz8r4vev3gnFPDSKvS8tx4sBwK07zcXMa4aUNyVpt5Mh7sGPJ9kceCd1h7douuxMLbbVdgJN1UR9vd7YtxezyLHPhi2eXc1WO+2Hc3PPLjIbeFXgxanzdyXhRnn3RIm+ILKjU/jSzv6z4XfXKuc6HUZjW2OFmNScMuCY7t8ueF5mfbQ9XqOlQ+yqA85pkZaVnuPHP9p3mzeanNXTaN+pm1fu9Hamt7Ex3wqfcJ2ccnqE7jfU0hhKWu94OAw6qv97SyAS+MbI8EpIIACIAACCxOAAGHxZmd7BoUcFCPUJzsxqzH+mpCeyQ1xTGpxOTJdpWDhCMQGPVfdnSOIH9O1aX0OMdI6+nKG9TR9bduf4N2d9m13hewdaBg0JEJHNfv7KzVDUdu3VgArvdjPsgFARAAARDYCAEEHDaCeYuUYAIy2Rkjh3WyMgocO4FR//Wdz2M327z531uz1XZ7Y0/McbnjfmJMhqGzCNBvQFnF4FdmzBJxOgrhen86+hGtAAEQAIETTgABhxPegTAfBEAABEAABEAABEAABEAABEAABLaRAAIO29grsAkEQAAEQAAEQAAEQAAEQAAEQAAETjgBBBxOeAfCfBAAARAAARAAARAAARAAARAAARDYRgIIOGxjr8AmEAABEAABEAABEAABEAABEAABEDjhBBBwOOEdODY/fuLy4OG4FHJBgF+ypj8lCCQgsLUE4icUy+dqt9ZQGHaWCNCXV375FOlZGJf8WU987eosjW60FQRAAASORAABhyPh2/bKiwccaCLx1TdvtrJh2SnmiV357vvoqwTUkO4b/jf4ab4MdKCza2euLDvLvV1/JD+zFRVLbqf6YlGxI5sXlXV85Zfrr2XsXTX/+TYcrY3W7hhQ4K8MNINgMd86dnP1zy03v+Wl5FzZg0/lFmFnby857P1+byEhll+nL1KUa0KrpE7j37tfggPn957r5PilGEqnv+bYs8XNUbLfjktTQh2UMUy/cZUdquTCu68Ow+6lw/Bu4YrzKywccMDXMubDRUkQAAEQOIUEEHA4tk59Eq7vXA9Pjk1/W/HWBxxogsgTuzK5tM5K3a6u0zpw/mspq0lZjS1zHRtrc1e3LXako6m+WFT4Jmxe1KZFy6+aSV//cuOiL2+RnKPo7tRd6PzsyHBNWG9fzLMhBAQcXLeEEIid/U2f44TT78PFm6+iOL4uTH8CU+rQWLA6lrOhbsuclKKL7NF2PPliJ+zengoX9OcPVP/60zk2bLBML+BAwZEtnAdtkAxUgQAIgMCZIICAw3F0M19k/aTgTbj/0Yfh2rn0d+WZsszm5RUID78M167cUfW+DC9SLb4DkWSZRyrowt+qQ+miO28/DfdfKjOau2/Dw8vvhxsX0t/e97nUT7c+CQe3DsI9ybt8EH7Kud+X9Avvh3uPc0Z3p0wQ7cQ+OhEPwlW5MyV3rR7fVd9il7tgNCHVd8UkvUxcSd7Vm3F5LN/pEnlkmZFZJsjRaLKryKkaMnCgasfa2Zhs4MmptFO2Yh9PuOv2WJslXybm0ebeHT1mLnpm3PGLfZEcgMSq3PFTun6RWdJD6OnRXGKZwtyykPZEWb3+e7T3bdi/WcZFdlaqzrIJbfueh6uXH4R9chiYUbGt1LZjldPNGFIcqP/2Hqg7tqVNc+w27ElRbzywEbYvNAfT1g+KDdFRlrYWu20/pHwZk/5cy+mFUGW3ZDXOF22bHj/RYb0b9smJnNkXrHfvLi+DP5+5S3vd+afGfrRX/d7kPN3XqX7Oiyutom3ESI0VMx60flWGmZDMmDZnPAgSpAwCAAAgAElEQVRG2ZLd/fOi9Ot50+exTYVr6ffIvNTTY8j85igGYku1JQZqbMQxJSyq0ilB8y6/zXZc9Oqm3xylk21Wx/Ns8P2q+bjftYpr7Ms4ntJvJpv7LhxeGgQdmvOH1M7G6gY9F7h2rswRuAbNIfL1XvJovvFpuP9NyctzjhBXTXId90jFiyutOnbuIrqKvBDC0+thB0GH/kBFDgiAAAicAgIIOGy6E3mysBsO9fyCbODggQ4yFMNeXPmw/ZgDTxZKUKC1OoHqVgGHcyWNJyMquNGSUSxp7D3+PNxQQQZdggIONy58Hn5IiT/sSWAhBilaQQa6O7OzY/+m7tbQhK1M4GkSaifqNHFsTkIbDg2ZGuXJZDc6DrF+mfDrdpZ90t0PONQTS6npJs6U7CbgUjJuG+VtgdC6i9rlQHVbLMiGOc6C0p3byM6u7gfNkSqofnJ6mH+a+GebqYyZsCultKt49fsvOQe5TcoGJ84cOvtKHtUv/a3tzmWUXTnN7Ki+ZGZlrGp57PwM7Z4amzafZBsHMduk7MlpcSf3BR96dp16k+23dhmVrTGZClhbKJH0l77g8ZB5pUrOljxOMve+LZpXrlfZUhhwfynnlevkY6WHdctvTRrHyW4OKrzWY9vJl/Z5Gckuv7F2kw1lrJmyhpPjqvpEMzH1VRlKt203JfNBkRXtuniTAjqKSy6pdpQe1pGCf83felVNdr1dS9kgwtLWjsvSX67YrEO+Fn7h1kD25g9J4rvbu251BAUIJJDg1PJNhlZeChLkeUFDRmPFAs01ruUgBNUpc5PQKG+smWiXKYsDEAABEACBE0dgZsDhx/DZxWfhvfT38Xc/r6WhL17+ay1yvdBN6fF6h5F8WWGQL9hSu3Gxl6xBkEKKNAMOWoebCCwccHh9EA5oBYNZvRC1xxUOb8WUsqU6jfKlwGJ7ZaJI9dRkPomxk0AlW01YVSpPkLUzpuWzI+Huzuu6/f3+5FPLz/XJNrpTK05FzqCdnqzoHDTvoo7eZUEiGyy63Iwt9oDa0r7DXNss8qv2K1uEdyvYUHTZu+penj4WnWK1P5Z0ve2XcW0yjhpJqMciy5W+5TvxZHtyrFS7c7nsfFrnsLKp0k0SBuOBypP+7ASzxmQz2aSDRS1ZvoxjIeKkrc1xrJ1pqaC2nofKqtpfnRPenrov8rjIemwZ0lHOpRLMyPWUPXFX8TZcrVwzLqp+K3ZLGynwQCtf3lAbm+Oh1CE7yL5id3Havd362NbR48LKNk3ujKFKVnOcGUnpN/e5CoIM9ErV1G+PqL2JtzCTIqMt26n6KfJY0AanwOqnfvfniaswcchBB3kfw+RKgNZjFrLCQDn/SWf/Wp9WOIxWN7p5A4n0cw1z3ChfNZ2DDn7lZ1UKCSAAAiAAAieQwMyAw2ZatqlAwKb0NKlNRfKrwMOaAw4UtFABiP4kpNmaktgIPCwTcFh2hUMJEPjJ/eIvjYwTz7IEhSaRRX5sMqXRpH6Ru2leRpQ0MbFuOmztOmxTnkAvwIEMyU5X6VI7eS7po73ILi43t2xqm0W+561t4TL8eItzgJmLSlOOm5dHMoS96IxtiA6BtbNuna2j812blA1cyh9zYtQp9pjgke8Dqt90ML3ddV+TKrJbHDHj5OomkI6mQxh1lMCDa6uWwfsT+c1x3LY7i/Y8ckbrnHb6fd1GX+Rxkssqe5hL21nP9ZQ9cTfawI8fmACLkssF1XFlV2lH1PM87O89CI9u3g37j+mRm/iSQzsmS53KJJXg7SYZPA65b9rnkhmfSpbZdWPI6zFlewdJRj4X2abCv12N2u3H+GK/yeX8SMEv/Zs+ywZrme0XyaP+XjzwsOgKh3p1g+inbR146F/rVxFwiPry6sqpgMPUvEg3BfsgAAIgAAInjgACDsfRZZORfB1kiBdu88yj2LyCFQ50F0LLpknItbyUUhTN3dJ7GcojFN2AQ4jvb2g9UjFXky5nJ7hqMp8K5Ym1rkT7nQmllUeTWjUZVzJsOcqIE+DiTErh2ibJ0Y8C5LRqxzsUbZtMO3kCb+02+V4HsTBOUrpT6tJ0NWp/cUhjTmESWWQHIj3Ln4+ZfbKPbFV6yE5xBGif6+jypMr0XZrQJ2es2EAFLassr5IR7WfdsuIgJsU7xsq+lFyvNKF25IBPyymmmtFW4RAZtlc4kC0yloZ2N/qONOn6PM4641gHeErb4p7Wa+T5go5zlc0Jbhx37M51B/narljeymauE32Rx0nWo85TMybjWJa+yPWyobJTbGD9asxodpwnfUG61Xgz9Xg80XspXvEjQxcv9+7kF71iSWtr7aY66fwzNthzaVbAgZRlhv7cbFkSeepzxeshXjY/BdAUK5JsxgHxauT7NLGIWasxsqwNIq+yR2d4W12ePVzmHQ5Up/GophVsVyHwI5m9RyrqFRFGVCOAUK1o0I9y8I2Uli68w8FwxQEIgAAInFICCDgcW8fa5Y/s6OeXN9kgQNAvajqn8gYBB7r4ywua4jZNIGQFheiqggsU7JC6E5OOEEJ8T0N5aeTBrfIIRT/gQJPS9ChGeqHkUYIPdiKtnAbpW55Qy/Joe9eMJ7Z0l0w9/80T0ZRmVzGkiXLOs7LihLU4iaK+H1Ro2JoqeRvE2RGZJl8mzbqd/BI8G3CITrrjoOtIu0Se3CWXdOVAkR3RBquD0rKtSbY/5jvqv8gUp5tk6X7wwYdcjh2KUq/USS+CTHYbNiM94nAJ1GyH79eefc7RYwcxfWaP2u54ZTWpHXHMqWfVfV/0+sHZbZyurEQcv9TfbjwUdjE/M/Y2mDa48W/yZDyIvsjB90UeCyMHzNtA4y+x8HaXgNfAtk5f5LGa8/X5mBxvHvvxZZRie66nWfO+HQ/RVhVMYln0+0DL9st5YxmpsZc4xL6J7RMbbJ9bvZVZKcHqKecRZReu9lzyTriWXeq4MZR/G9JYcOeg/E5Kn2aZ6rzQvwGSb3hKYgryxt+UwlSyW3U8B/Mbv5QNos0FQPw4dudLqWX3aGXDwl+poMct/PseSKy/3qvVjJRt5x0SEBiscPDyaK6Q5hB2zlHPHXR+vsnBN1+272tdtkdwBAIgAAIgcFQCCDgcleBJq08TBjfpOGlNWLe9fYdiGc3aiXH1tYPqsnC4PIFR/5EDkp3r5VVM1lxKT3Z8a/FdeYM6tZQtStmg3V12W4RjE6aMzotN6D/9Oga/9Wtt/LzVDWs1ofEOh3Xrg3wQAAEQAIGTQwABh5PTV6uxFAGHSY6YmE8i2uoCo/7baudz4IRvtd1bPRpgnBAYnRdSBttFCdiVNbICZVEpp6G8eaTiNDQIbQABEAABEFgZAQQcVoYSgkAABEAABEAABEAABEAABEAABEAABIQAAg5CAlsQAAEQAAEQAAEQAAEQAAEQAAEQAIGVEUDAYWUoIQgEQAAEQAAEQAAEQAAEQAAEQAAEQEAIIOAgJE7lNn5xIn8L+1S2EY1aBQF6vrv1ZvhVyIYMEFgtgfjc/CZe/rna8yJ++eKkPudP7xE5E78R3c9FrnYUQxoIgAAIgAAInBUCCDic6p5ePOBAn8nKn6zaMjZ58k8v11OfBpx6GVr3hXuDl/StrekDnV07K2PmfQbPVxvJz2x9pQWPp/piQXH8ub5NOJaL2rVY+eX6azEdsfSq+c+34WhttHbHgAJ/6rD5KcGYb8fFXP1zyxWeq3Oyz07AgYMT9ClT/syk+tTn/AHVLUmfjbz+tJt99IwlAg54YeLRsUMCCIAACIDA6SWAgMOx9e2TcH1n+74/vfUBB5rEnuCAQ9fpHwQi6iG6mNMk9bu6pcAKttZxPLrATdh8dCvHElbNpK9tuXHRl7dIzlF0d+qu4ZzYXF8swu70laXzlldy+IDDq8OwO3ndG3zmkepfOgzvtgxZO+BA7VhzcGTLOMAcEAABEAABEGgRQMChRWXdaTzp8hORN+H+Rx+Ga+fS35Vnygqbl1cg0J2YK3dUvS/Di1SLAgciyzxSQZ/FbNWhdNGdt5+G+y+VGc3dt+Hh5ffDjQvpb+/7XOqnW5+Eg1sH4Z7kXT4IP+Xc70v6hffDvcc5o7tDzsJ5CjgE66BEJ+JBuPrB14HvinKZkO6upTTJ+4DutsU7jVw2p6cJcgiB5F29SasonDyyjCfQIvPbsP9am0t2FTk6h/cHDlTtWDsbU5uonLc7MgkpEFPy89JtY7Pky13HaHPvbjIzFw7Nu822lbEvXsXEpLfciVa6fpFZ0iPz3C6lR3OJthTmloW0Z9x/j/a+Dfs372aGmZFtRnXU5vA8XL38IOznPim2FQF2rHK664/MgcbH3oOwf9n3UQhz7DbsSRHJk76rxqXtC83BtJXPF2mNHZNit+2HZLucg/5cy+kiM/aX1p9zGueLtk30x/KR8z79RnCb5/TFqP8UHzUeSVevL9g23T7mn8al6nPb1pENmUS107MhMO/eGLf9Z+2oVMQEN4bsag/FyI0vGhMsv9GH4en1sNMNOlAgfifs3m6HFOrVDXEVn1zr8rWRrbd5+TrYvW7q62y5lrKo3nWTV0Oo6zZfO3Xd2J61rsjodB2SQQAEQAAEQGBbCCDgsOme4GDDbjhMPllWz5MgHWTIOYHuntiJVMrjyU4JCrRWJ1R3XlJgQSZfHJhQwY2WjGJJY+/x5+GGCjLoEhRwuHHh8/BDSvxhTwILMUjRCjLQhHJnx/5NTdaiEyIOBk2CZT8q1k6rto8dMudMUH6UJw5snKRH54b2rWwjjwMh/YADyW1P8qOz9EgLIwdFOy86zwVcTFY+qG3tcqA6LceAbGjwySoaO7mN7KhoVpojVVT95PQw/9T2bDM7bNInDcWKV7//yFnUz6ErGxoic5KzL6e7/tZ25zLKrpxmdlTfJ+dOHGktb9ruur+NGnFEU4CMZM8ei0lQ7gs+9uxUO7TiyfYP7G6NyaYtlEj61bnX6rPKlhl1GjaYvuA+k3FpGbQY12nWBt3nGqPfNzboc0kCPPm3o9hEdUqf+/PRa2gcOxZ1Wxp1eknN6+CUc16vCuxfr2LwQK5zxozJ6yYFKnTQIIQwcd2srrNGYVzp0AuimKI4AAEQAAEQAIFTSGBmwOHH8NnFZ+G99Pfxdz+vBcWLl/9ai1wvdFN6vN7hnR1ZYfDRnfDWVGxMfiR/EKSQItVEiPRoHe64P4ETiW77+iAc0AoGs3ohlokrHGxrOIfqNMo7ybMP7cS3dmCso6TEugm05Fh59g4sT/Td3XmpN96Wib8v5/VxPjsy2jnWtXqyovOSVwrMDbyQ6AaLLjdtituntrTvMNc2i/yq/coW4X3e3GmPSosue1fdy9PHolPM9seSrrf9Mq5NlUNbj0WWK32bVx8kh1W1O5dLAR9vgz/mlTfZyRTrB+OBbCX9VZ3oiJ53Y0cc+jK2iLkOKDkWYoK0tRe4qphJxfaYlNyq/ex0i+NPpbw9rb7wZfxx2war29YpeaRP2xMt12Mxptj6vh9JXmauGBY9UUo5brWTytTptS1RVvd/Pz67Y6grwWbolX7NAIQt/u72br3ygYMHH4ZrKmjOtdx1zUiavG42rrlenjuurrNGIR3EoMPOF0+qHCSAAAiAAAiAwGknMDPgsBkMmwoEbEpPk9rUxIomMrQsMwcFGpMfETw5cQq8OsLc5XETpUAysq4QFg44iC2NwMMyAYdlVzjYO3faEYp3teWusZjLWz+BTpl+Ik6T+SI/FhJHoCnXKIkHXmYp4hyOkhH3mg5buw7blB3I2sEoTolXMsexatRpJMV2xsdbLJvaZrGnYqP6hcvw4y22T+PjAipNOa5eHsmQ/hOd0XRiZB/taDRp8OJK1yZlA8vxx5wYdYo9xjFW7c71mwEHb3fd11Sf2loCCu0y+RGhPG5Yc3JQdVDBtVWK5e1EfnMcd2wSmZ6HpKe2DceXr9vsC2cz2+iCBF5Opbshg1i+fhCu3vTL2GzwMjbH1W/aqRqedvvjuMe0TvfnSa3FpTRYcAmyuRm8cvX1YfM6OFrhUK9u0OL4OkbXTQk8+OucLjx53Wxcc708d90cBxywwkHjxz4IgAAIgMDZI4CAw3H0ub6z09SvJzxxaWj3kQqZYDXlTAccaKKkZVPAIU/aOjL7yfRehvIIRTfgEOL7G1qPVPRl93PsxLmeWGuH00hpORjpkQrrECrHVgmweimDnIfi3JaitU05b5aD4ZwSs4Q6S2IHM9vNToC1u8uBRDScCWrf6JEKzjd3ubVDFVkUp5AYKOee2Sf7yFZ391Yc5exY6fJib171EGVLHdsvZEfhkOVVMiJHyverKfocXL+4vjS6ovjsyAuXyLC9woHqS38aWX7cNvqO1On6MbBQOGRzaKdTX2SIrUaeEUAHlnOVzQmO10AvFx/kGx4N2cxVBVHq8lTJ2uPr9GywsqyMuJLgLr8nxL7fhaXx41rSpzHF1XdjKJap/zc2ECdzLrT7meoU3aRXnY/5UbJ2XbZg0B+jMVRZv8w7HKjO1OoAExSga+iHwQTbxZAVBBz8ddMfi6oQRkGUUgp7IAACIAACIHCaCSDgcGy9a+/YsKOfX9ZogwAhxMlT9WKswcSJJkBSPm7Tux5oUqb01MEFrau8H6KHKb6nobw08uBWeYSiH3AgJyc9ipFeKHmU4AM5CmUi3XDueUIuS5PtHUyahMuSZZERncCSLg6XBBSkvHdMJV/kZGZdJ6Jha6rkbfAyTb44Vrqd/PJB5zzofHFQTFpqs8iTu+Sy9F8FBcjMaIPVQWnZ1iTbHwu/wjXdjW/oMY4VcVROUum79JK8ZLdho8qTzaUOtdXaXvLtGCnpiU/mMHAWqe25HElQ/1I7qC0Xb9JqEBVwEAa07fWDs9swUmrYCRR5bjxYDsrx9OPBtCE6qdJ/OkhEag33Tl/ksVCtFFCGexsUC2936cOBbd2+mKgj7GSb2mR5uzEgHAw3xybJi+Pf1e/+Vig+w3Hc/02R3yfpP90Xpf/qcyJrdhx9X+jzOdfxOxxsn/o6E60I0O858sdFqL/OmQCDu9blvO51U1/70vVTVv85WdV10+TL+x/iyoapdxCV1mAPBEAABEAABE4nAQQcTme/9ltFEyOZRPVLnekc4zQfmcTAAZjpXBzZhDMmYNR/1llcH5il9DiHTlvXlTeoo+tv3f4G7e6ycyscVsWor29VGmLgbJaDvzqV8Qs9Kgi2StFDWXNWNwwFrCAT180VQIQIEAABEACBs0oAAYez1vOYOE32+MhhnayMAsdOYNR/m3AGlwYwcMK32u6lG3zcFd3qgiOaQ30UV63U7244ouiq+qbGA51LsiKiXtFVmXV6E3DdPL19i5aBAAiAAAisnQACDmtHDAUgAAIgAAIgAAIgAAIgAAIgAAIgcPYIIOBw9vocLQYBEAABEAABEAABEAABEAABEACBtRNAwGHtiKEABEAABEAABEAABEAABEAABEAABM4eAQQczl6fo8UgAAIgAAIgAAIgAAIgAAIgAAIgsHYCaws4/Pvf/17Y+Bcv/7VwnWUqbErPMratts7gW+SrVXTCpIHLCeswmAsCIAACIAACIAACIAACIHACCawt4PDPf/4z/P73vw9///vfZ2PZVCBgU3pmN3xtBRd3rN9+82n46ps3a7NojuAnX+yE9X67/GRymcMOZUAABEAABEAABEAABEAABEBgWwisNeDwq1/9Kvz6178Oh4eHs9q7qUDApvSMG/0kXN+5Hp6MC208txdwoCDA7u13K7Pn3e3dtrxXh2H30mFYnabVmLwpLquxFlJAAARAAARAAARAAARAAARA4PgJrD3gQEEH+vvDH/4Q3r59O2zxpgIBm9LTbSw51Tv+Lv6bcP+jD8O1c+nvyjNV3eblFQgPvwzXrtxR9b4ML1ItcpBF1sFDJYq+J96qQ+miO28/DfdfSt134fDSaoIOFLzY6QQV6tUNtu3XTjEXIY0tCIAACIAACIAACIAACIAACJwGAhsLOFDQ4be//W3485//3OW2qUDApvQ0G8rBht1w+MrlcvBABxlK/osrH7Yfc6A650pQoHUXnupWAYdzJY0DE8qJb8koloTAwYIvll+XMa7fWPVxRrhoxtgHARAAARAAARAAARAAARAAgdNAYGbA4cfw2cVn4b309/F3P0+2nd7hIKsbaPu73/0u/OUvfxnW21QgYFN6qsY+vR52eo9RyAqDj+4Euw6E3jdQVi4YmQNnXMo1Aw5aB+lVx1MBB5I7WqEgeuvt9AqJ5mMWp55LTQopIAACIAACIAACIAACIAACIHAaCMwMOCzeVB1w+OMf/xjoeOrfpgIBm9LTbG9vhYMUrhzsNQccKGixQMBhvEJBGtHf9us3VjdoMaeci24q9kEABEAABEAABEAABEAABEDgNBBYa8DhN7/5Tbhz585sTpsKBGxKT7fhzXc46NI6yBDfYZDf26CLrWCFg39cwz9iUdSNVij8Lfz3n74Kf33zNvz1qz+Fr/73bXj7v1+FP/3P30p1tddcIUGrPyYf1ThpXFSjsQsCIAACIAACIAACIAACIAACZ4zA2gIO//jHPwL9LfJvU4GATekZt93e0WdHP7+s0b+zgRzt8kLJHHwYBBwokCAvjYzb9K4HWSkg8tT7G6K9Wld5PwQFCfpfqVgs4EB67OMTFMxovNcihHCyuYxHAHJBAARAAARAAARAAARAAARA4DQTWFvAYRlomwoEbErPMgzWXocCDuoRirXrm6Ng1uqGOYKOUGYbuRyhOagKAiAAAiAAAiAAAiAAAiAAAsdNAAGH4+6BTeuHY90mDi5tLkgFARAAARAAARAAARAAARAAgSUJIOCwJDhUAwEQAAEQAAEQAAEQAAEQAAEQAAEQ6BNAwKHPBjkgAAIgAAIgAAIgAAIgAAIgAAIgAAJLEkDAYUlwqAYCIAACIAACIAACIAACIAACIAACINAnsLaAw7///e++1k7Opl7muCk9nWZuMDl+ceLg4QZVnghV4HIiuglGggAIgAAIgAAIgAAIgAAInGgCaws4/POf/wy///3vw9///vfZgDYVCNiUntkNX1vBxR1r+gxl/uzm2uwaC6ZPcF5/Oi5ztNyTyeVobUZtEAABEAABEAABEAABEAABENgsgbUGHH71q1+FX//61+Hw8HBWqzYVCNiUnnGjn4TrO9fDk3Ghjef2Ag4UBNi9/W5l9ry7vduW9+ow7F46DKvTtBqTN8VlNdZCCgiAAAiAAAiAAAiAAAiAAAgcP4G1Bxwo6EB/f/jDH8Lbt2+HLd5UIGBTerqNJad6x9/FfxPuf/RhuHYu/V15pqrbvLwC4eGX4dqVO6rel+FFqkUOssgyj1TQ5x9bdShddOftp+H+SzHjXTi8tJqgAwUvdjpBhXp1g237tVPMRUhjCwIgAAIgAAIgAAIgAAIgAAKngcDGAg4UdPjtb38b/vznP3e5bSoQsCk9zYZysGE3HL5yuRw80EGGkv/iyoftxxyozrkSFGjdhae6VcDhXEnjwIRy4lsyiiUhcLDgi+XXZYzrN1Z9nBEumjH2QQAEQAAEQAAEQAAEQAAEQOA0EJgZcPgxfHbxWXgv/X383c+Tbad3OMjqBtr+7ne/C3/5y1+G9TYVCNiUnqqxT6+Hnd5jFLLC4KM7wa4DofcNlJULRubAGZdyzYCD1kF61fFUwIHkjlYoiN56O71CovmYxannUpNCCgiAAAiAAAiAAAiAAAiAAAicBgIzAw6LN1UHHP74xz8GOp76t6lAwKb0NNvbW+EghSsHe80BBwpaLBBwGK9QkEb0t/36jdUNWswp56Kbin0QAAEQAAEQAAEQAAEQAAEQOA0E1hpw+M1vfhPu3Lkzm9OmAgGb0tNtePMdDrq0DjLEdxjk9zboYitY4eAf1/CPWBR1oxUKfwv//aevwl/fvA1//epP4av/fRve/u9X4U//87dSXe01V0jQ6o/JRzVOGhfVaOyCAAiAAAiAAAiAAAiAAAiAwBkjsLaAwz/+8Y9Af4v821QgYFN6xm23d/TZ0c8va/TvbCBHu7xQMgcfBgEHCiTISyPjNr3rQVYKiDz1/oZor9ZV3g9BQYL+VyoWCziQHvv4BAUzGu+1CCGcbC7jEYBcEAABEAABEAABEAABEAABEDjNBNYWcFgG2qYCAZvSswyDtdehgIN6hGLt+uYomLW6YY6gI5TZRi5HaA6qggAIgAAIgAAIgAAIgAAIgMBxE0DA4bh7YNP64Vi3iYNLmwtSQQAEQAAEQAAEQAAEQAAEQGBJAgg4LAkO1UAABEAABEAABEAABEAABEAABEAABPoEEHDos0EOCIAACIAACIAACIAACIAACIAACIDAkgQQcFgSHKqBAAiAAAiAAAiAAAiAAAiAAAiAAAj0CSDg0GdzCnLiFycOHp6CpqAJIHCqCDwPVz/4Olx9fKoahcZslMDqx9Cbm9+G8x/cDY822g4oW5TAo72vw/nLD8KbRSuetPL0Ja5zX4YXJ81u2AsCIAACIGAIIOBgcJy2g8UDDvQZyvzZzYVxvA0PL38SHr6eWfH1QTi48H64wX+fhx9mVluo2OsH4eIH34b916/C/uWvw8Wbr5rVaaLdy6srxIn++V8cxvMsuy4xN4UnjnvPQ3h8dwsn+sWhyXZywyi975SMWJKczTrZA1tpbMyctI/a1OvrcZ3Ctld/XvqgffME2FILMLEVt+tozH6Fti7AaymbhvKPMoba44ZsXCrg0LAzyqLfSP27G22Ov51fh/P028f/4u9zTp95XkpP8u8T/x4XXVq//53W5c3vEbUjyTEOfaN9WreRIRm05d/1yMDICyF0bdD1O/tcdyYj5kBluW10LewIXSKZPpd9/ekSFedWWSLgQJ8Ex02WuYBRDgRAAAQ2QwABh81wbmh5Eq7vXA9PGjnHmbTJgMMPe++He+u+w8uTLHKOVxdwoAnc/ODEuDdp4siytjbgECeoPMHNzkHbWYWyW3cAACAASURBVJGWjviQnO7kXASscLsqW0ZyeuYuU6cnq58+7ot+vU7OwLHq1NjC5BUzGbRwkfG81HhYU38sZcsCHEh+CSaUivn3jpPoN7ntANtypX5zr8Uo/+6nGvT7mn6/rG00VsQGvR+CKdfSkUR3x4CzQTM3soPV22zjERKzLrZH2hpCeHUYdifnIO/C4aXdcNiK01P9S4fh3RFsW0fVXsCBgiO7t7fN2nUQgEwQAAEQ2D4CCDgcR5/whd7fGXgT7n/0Ybh2Lv1deaYss3l5BQJF/6/cUfXK0kMKHIgsE+2nzz+26lC66M7bT8P9l8qMzi4FDuIqBdrqFQ604qHk2eBCfzWElndw623Smsrf+jzrKnkdwyhZTfqqiaG++2Tuwtm7Tz64UMlJ6ild7tDpOnGi+YCX0HO+ujNFdbjsYEJbte5xYWB4U/regWJuV438dOuTzO7G5YPwUyXYJ5SJsJ4sB54g3w37fDdUrfJg1oVBZJEmuI51zEurJKje3gNegWLS2Rx35zMHPaKtPJnurrYg+5MO37QG7yhL7Fe2yR3PvC2Tdt3n+c7wiENIjkySVQdfyGaxYU5wRrcxscrjy7LTYzL2YUOP4ZJsEeauD4vtz8PVyw/Cfh7/hQ8xvXpT3TUWWb4/quM2h0d734b9m7QaKNpu21TGhEl3/aHzuvKoTndMJmMNq5RmGCUOTr85L6iaqSN9bvvOt1eP1dIPyYYUXPV1JFfO3/LYhGWdx3GqoHX5PC5ScdBjsmilPZYl45O5tM7P2Pa6XVZWPiJ+1biKbRIZ+XeW2ZTxGa8PKuir5MRzW/0OmDFe7KZyeozn8eXtypyofR0bcqMaO34cCUcuavsw2yDMuV2Nfnl6Pex0gw50U6TvpNerG+KKSpl35HkK27foHEaXL/MaFtWbw/BqCDWH4nmMrkvBk357GsSRBAIgAAIgsCICCDisCORsMRxsaNwx4OCBDjIUiRSxtxfvlMcX2BIUaK1OqKL9KbAgQQgOTKjgRktGsaTeYyd27/uUYYMIdgXD9+FeCkbogIIEKiR4QPJkP4QYsIiBirh/I+siedGhponPzo79m1zm6Sa7NBGWSZreD2nyThNXO/FOzlqaoPbqEJhYz01Ql17ZYRmbHnlMgYgS8DEsKa8VZOAJp2W388XUups0uVVt1xN+y8JYyMuIxQnIOWkiLenMSyb+ftKeK8Udz9ZkD+rWNjYm40pYXV5lyq7TN1WHHRUzDhZ0tFhvsZsdJOGWlmzLmNbj2O6TEJKhnGN2ZKItpb40UrZFrwQvclnikJwh2z9z29cvx20UR8udw9EyqqucOTE3b22+kec5/BLUaI7JJKvuXys7q+yW9yXoWHNNAVNpb6N4PYZisDT3RaMOBzjUOLFFnH5vjy3MRxUH6hfjnLv+oPFBAaOqXaTb/q421JWk9LshgZW4Lb+zMs4pXfrR8GU7YuCUeJV2xPF38SYFiZO8wW9Udwyp84CMLuUUY2dDadzEXmIs73Aotk/Ua2U35yQx2NC/jtYrNEdzh+XnMBTE0EGDEMLEHKaa87g283xh8hrnKuEQBEAABEDgSARmBhx+DJ9dfBbeS38ff/fzkZT2Kr94+a9e1krTN6WnMnp0N0FWGHx0J8g9/Vi/ccEVwYMghRSpLr6kR+twx6NJg8gsW+/86mMKCJTVDTGwUJzhGEzQxyQ1BRVcvRJw8OWLJYvu+QlaOY6TTTuJ1RPWOHEsE1jSPK5TZC9qZbu8BGzsihG6U0orHCT4Y+va4I/NW/xITZipMk2alQMzam/LQeK7jNr50JNpcSp0/iyDR86fs5/lSR865yjp6rWJ0s1YmcmBxFYsdLtntZEK9Zy0uv2lDXX7sy3C2634YXNUnnXuvLxyXHTGBvnjZjMHHLKdXLHoyXLcWIzpVK6s5tDP81t5qk+8Df6444iTPOvgZsuUQ1vSeK/LdZmAQ4OJUVePC5NdtWt8XhgHXgSxE61+M+lYzl/Oi058PHd0gEAEJOdcnUslp7HX7PNodwy8xP4v+3fDI2WTjMm4fc4rreLvu2Lp+18dd8eQBBnS2ONVEMwhyW3Y0GhdO0np5wLMVb8To12tm6pXXTYDELbmu9u79eMJssJA3cCItY4yh2nUdXMWDkCoOU0157Gm8xEHHbbwcZCGqUgCARAAgVNBYGbAYTNt3VQgYFN6mtSmLuZV4KFxwRXBqwg4kAx1sV5twMEu6Rez41YHJySnlTadt8wKB5lkivRyPDUhV06JVPbLdHN63CmyXcYRD6vAwzIBh6VXOChHwU34R+31k3NG0Jo8i4MijKgMTdx9uuT7rbNJZ4/sK8EjG3ho1mGbVDmns1lHGVKx8BxU2f5udF748RbDph7HxR7lSCXB2ZZkAz8eYRw+7cBRJS1D79vHmIrOqIj0DO++U7EBh2wni3N6O+ch1SkBMcvFyottZGfT20B9q/j6dsXWlf9Zp7mzHlc61W0fcR2zIG3WfkrxTIpNvOfGqMsd1I926mAN1W1y8OyyTYpvUkz210xSEFPxru1UKa02uf4qj9aldijZ2Qaqo/uM2qFXOKg6Oshq+4Dkq98EZWapM7BBlx/tV4xT4dSGMt5HQlJec04yWuFQr24wWqrAw1HmMI26PuDg5jBTAQescDC9hQMQAAEQ2AgBBBw2gtkp0XcTXFY81BfZ+Cxj95GK6m6CFVhdfN3FmvK1bAo4XJuQqTWQ0yuPQMR3BJRVCDpP14n77eCCfURD12qX1yUW2tcTUp5YlokvTaJHEzY7wYxaR3Wak/KFjO0Xrh6b6KxwYK6tRyr6ogc5zqkhlso5HbHIk3st3U2em2W4vNPbeFxFxLb6KOYNHAKp3HDkmm3SDomscpnJgVTVNlL71J1hZQ/vunEaswsTtlE5RZajlh0dnrxKh+UmJ0n1BdUv/WrrsC5xxrJDGS3SrGi/OJRkg3PGum1qc7DMStszH9X+aE3knG1gh6zYYOSxLSmQpjiQHMty3hiybU+PVqnxEe0bcbXBG2mP3hr7OSPKy+3VhZtjzhVwfelzrb4eB9fP6re25tjvZ98Gqtt8h4T7/WGbdV9SgrLB9AuXk/FgxxPrk/4ajAfDxOvNAC2Tvg2xAuX74E4WRTvOntl5pmAIYbTqMsSgQ/WiRaoz9UiCmWccZQ6j50LJeCM7BD+H8celyXiHQ2GBPRAAARDYLAEEHDbLW2mzdwnY0c8va7RBgBDooltehpQDBIMVDnTRlZc3xW161wNdrJWsOrigdZX3QyjD7a76tOXBre/dZzHdYxXG4e0FEChdP4ohqyR65a0584/ixJyXhl9+EB4Zx0jl0V317FhF6WaCmRX265jJZS6/7I5jmt5jwdIGKxwoX1ZE8OMtpi8WtcVOzMudO5FD+bKEXSbzKY8n5JKnnLtcXju58v4LKV+CQqIpTszVagvKGE3GW86J1NE2VI5ru03RCSL70ssMxUFhA6fqSLsUI8PHOWMpzzpiti+iPcJD63fsenoMuzSmhQWxS4zM8+3spEpb7CqU2D8lLwc5pAObbRJHu65nz7267ZV837f8IsjCu/Qf6Srp8Y540V8CL/UjRNIU83gLc5J+kBK6P5SuLtdYT9sofa/TYp8oea4/pM7wvBATfcDBjRO9yqM+77OQ9LJe4ac5aAZ6TPbSi8zYZi0r5XXOaTv2dD37W23GjOoL01bPQZ3nti90P2g9Op3s1nnuPM+BVF+nsPB9aW2o5amaZZdvfEx9Kct/pcIfF3F+ziHviYol9LxCzW+6cxhbnucwshJzag5j8sv7H2hlQxU8KeZjDwRAAARAYI0EEHBYI9ytFO3uDmyljTDqbBEwTu7Rm06Tb+NEZJE0yR9M4nM57CxGwDr+uu5qg21asttfcgx1x0pX3skdQ922apTddutCtH9yOfiWnMjjTpBl7W2Zs7ph3UZgDrNuwpAPAiAAAisngIDDypFuuUBcrLe8g86gebOdnDPI5kQ0eQsCDkty6jrhZ2lM6rv6epXHkkxRbT0E+is21qNva6ViDrO1XQPDQAAEQKBHAAGHHhmkgwAIgAAIgAAIgAAIgAAIgAAIgAAILE0AAYel0aEiCIAACIAACIAACIAACIAACIAACIBAjwACDj0ySAcBEAABEAABEAABEAABEAABEAABEFiaAAIOS6NDRRAAARAAARAAARAAARAAARAAARAAgR4BBBx6ZE5Fevy0lP081aloGBoBAiecQPwMYPtrGie8aTB/QwRWP4biiwn1JyQ31BSoWYgAvezUfLZzodonqDB9NvNc+bTlCbIcpoIACIAACCgCCDgoGKdvd/GAw9tvPg1fffNmSRRvw8PLn4SHr2dWf30QDi68H27w3+fhh5nVFipGb5vnN6/H757nb9I7IYt9vi9O9M9/QN+ZP9pnFnniSN905zfFb9tEvzg02U7mRul9W0csu18FcP2xusOBrQt8iWDUpp6t4zqFba/+vPRB++YJsKUWYGIrbtfRmP0KbV2A11I2DeUfZQy1xw3ZeH5wbnfJNe2Mv7lFnhzT72b5s0E3KdP/fWnZEO1ufQ43Miq/1SK/6Kc8a0NLQ0zj38Fke7uO5qr3nUzzZZD5+kUK23H5QZhzpWY2VJb66IjXK9Ev2ydf7ITrT+VoDdslAg4vrnwYcJNlDX0BkSAAAiBwBAIIOBwB3tGqPgnXd66HJ0cTsvLamww4/LD3frj3eOVNsAJ5kkWT1zjRXEXAYSnHwVqVj2jiyDZtbcAhBlR4gkuBEf43mEiHEEZ8SE57op6RrHRnVbaM5PQMXqZOT1Y/fdwX/XqdnKbj2Cm7tckrZjJo5yLjeanxsKb+WMqWBTmQjvN7dwfBSfpNtgHb6ToNI9Jv/NXGb8t0O2sbGho4Kf9W9wpwuh57en9QKV+jBmWOkBWZPg+B9Sjerw7D7uQc5F04vLQbDl81DKD6lw7Du0bWcSb1Ag4UHNm9vW3WHicp6AYBEACBzRFAwGFzrIsmvtD7OwNvwv2PPgzXzqW/K89K+WDz8goEiv5fuaPqlaWHFDgQWSbaT9+wbtWhdNGdt5+G+y+VGZ1dChzEVQq01SscaMVDybPBhf5qCC3v4NbbpDWVv/V51lXyOoZRsprMVc6Bu8ukgxFUVu7C6XQSWclJ6nt14qT3Qbgqd/XUnSmqw/LJTpU+aFEIjwsDw5vS9w4Uc7tq5Kdbn2R2Ny4fhJ+GSiiTJsxxgmon7nEivc93Q4lTmsQy68Kt3FUMaQWHz0t3Mane3oOwf1nyUzrb5+5I5qBHNJ4n0907soMJf4N3lOVsGLUpjQUZJ/lO7kQdracOvpDNYsOc4IxuY2KVx5FlZ8dxR4/hksoIc3e+FNufh6uXH4T9fM4Up4baevUm3VlNbRJZs8ZezeHR3rdh/+bd7rlJYkmnaavrD53XlUd1umMyGW9YpTTDaMZ5QdVMHelz23cyxsT28RiydaVOsjCd1/ocs2Mhj+NUQevyeVykxYGZkw49PosFvEft1uNhTh0nIqRAMo3F1u9yK82IcDbo33DT1lYbsyDLu9SLba9+J3O9tEM25HPWZ6pj5lPOCVvH9qHuc+4/5tzoi6fXw0436EA3RfpOer26Ia6olHlHnqdwExadw+jyZV7DonpzGF4NoeZQPI/RdSl40m+PIo1dEAABEACBFRNAwGHFQCfFcbChcceAgwc6yFAkUcTeXrxTHl9gS1CgtTqhivanwIIEITgwoYIbLRnFknqPndi971OGDSLYFQzfh3spGKEDChKokOAByZP9EGLAIgYq4v6NrIvkRYeaJj47O/ZvcplnntxG07WTovf1hNZOvK0D1atD0mO9MsGfnATXmFWKZawyUiCiBHwMy8efh2aQgSeclt3OF1PrbtLkNjkL3D7lOFgWxsKmUxCDQuJoJV4izzkEVlrN1uQP6tY2NibjSlhdXmXKrtM3VaceB9FxKY68CB5ti93sLAm3FAwpjoeWrfdJNslQzjE7P7FMqe9tKHpj/RQ4o2LKgSIGxQHzev8/e9/Oq0eR/E2ItBlf4HyXJSRG1iaklpAzvgGRN8A6yME/WnmjfY2OZBsha0lInNiyDAKRkaLlYon9Bqt+qaqurktX98w8Nz/HpywdT9/q9uuemaqafmY8T66Px6GNHJy5c5iogVYSHsxRjrbf8PM4/Jkk4blAOxS2wK+fX8tbZFKpH+9HQF3jWhOmbG8wvF9DFHiP563Oj7NFWDv5Xh8Z2Eq9XXr+PD8m81itoWFaOep50VhgOye5+NjZ7HUQvljS5zOW46QoyBW8tb1QVn3qvAD+ouNsvTqduOoSIP0c8MAVx9AnoWTD+D7a79Cc+Q67+zCQxNBJg1LKgg/T+TwOAvQXFu9xjiiriUAikAgkAnshsDLh8J/y91vfl7/Uv7/9+797CR0R//jz/0ZdB20/lZxO6dnTBN5h8OFXhZ/pE31ww2XGkyQFD+luviBHy3D1mdPAPOXog19dh4SA7G6gxIIEw5RM0HXgWpMKjk4SDn68aLK15B00qZPjy08U+ciBB8jRji3JndMI761axuM5YWN3jEAgATscOPljaW3yx/Ztr2mnug9gZvb22AVBlXamMajc5QVps2DC6Y8A8BzGzv/IJmjnNYJHFdSMaBjvDgttNw9aPFJQ42VToszaIvr09jddGG8dKLEOqo9s5iSa5yd1kUlMfJ1Zm+MEh6YnEoicRq+DxNYI49STYU6uBOdy4+918PVBIA70gI2+XrAaQ9uHuAbnBjOrx6Zvaw8waX1QmJ0X0O/p5+dFP94lDDt+VZko+G7njtfBGCAVxI3XYHRdjtsaA6cDtMMc0druE8ptJxePQ329rrquy8Dd16smaIc9V5uOo4Jfj2ALrPGG4Yhw0K53XYYJCEv3+svb/c8TeIeBeoBBVPv4MAGt81kwAaF8ms7nsapjDZMOZ/hzkEDVbEoEEoFE4K1AYGXC4TS2nioRcCo5IWpLN/Mu8RDccJnxIRIOwEPdrA+bcLBb+lltOurkBPdEbct9u+xw8M6/1Jcc8siJndMIb7blMMcu8bBLwmHnHQ7i6OMTbeXozuztA6QgqAoCAd4FYbcRT3AEHkonPXKmH+9o0cEF0IY0PlBwMkMapUiHhQ8i1NhxkYIY3LZtnoT3a1L06QOfpkvVAX8eYfCjwHP8JFetB8SF6iKTLAA5wmNg1QSHpieSejt6m2EY0MhasGMsP7IRkwVeB7cmvV3eEpTpEg8xzQzX4Nxwgqz+0OkxcQRujbreCT3puXxe8Did4PFJGIUzKrCGptcU8DTJAU4qqXXb48N8vA4Va5WMMtc1j1tbHx5vXdfl2VwGurCao2OT7waAnlsTD6FPMtvh0O9uMFp0iYd9fJiA1iccnA+zlHDIHQ5mtrKSCCQCicBJEMiEw0lgdkL00wTXRVV9k6XfMg5/UtE9TbAMu5uvu1lDv+YNCYd7Czy1BAh6+ScQ9I4A2YWg+zQNlePkgv2JhqaKx+sRm8o6gADnTT3RRUdWOa2eb+TEzmjiQMNz3a3e/WxisMMBcV313oY1ejhH2jnjMywAuy7gdM5zOAbVcnL5SWPwDodojsgycO6XnyZ6+tAmXDccaNegSa2bkEbB62VQsBg/HUcyt06JlWCC8lTSweII45i3C3CQb8VEzQXQ20Cd6flJMNsuOoBO2m4oy3zDOIf90CaRpSBzu4usXExKKfuZzuCAAZnoYOYAdak2KRyAj+GxuEuAJFvbLS6sGye4eEcEYqfXs9ZJiFrJ6I+tNLeCeRuKhX687V9KWFj6NeeSmyMQp6+9XjzWAxpOHGlsHK3VjTqjNuyJdDBYu/PZ9Om5tOcSyJOfEFk79HlhVHe8oY/WgaxTMx4qQBOsdRw36/OMZrsuCyUduhctAs3STxKMn7GPD6N9oaq84V2K92F8XUzOdzgIFllKBBKBROC0CGTC4bR4K2n2KQEG+u1ljTYJUArcdOVlSC1BMNnhADddfnkTHeu7HuBmrXj1yQUtS94PoRS3RfVpy6vHL91nMd3PKkzAO0ogQLv+KQbvkhiNt+qsr1WHEp4G3XlWXpjASPXhUzMOrIh77MSOaXzgsV7HaKTDtL7HAke+Gv+kAvp5RwT+vMXMRSRn1mYdafMkEMmgn59wOqcZnWvuU8FdG6+DXHa8eXyfrOgCNJA/c7hdcqRZafSKfsIR20QBBuhXX2aoEg6cQKCnsIKD0LBd0td2clQ8OBBFPauONpi0c9EHPCzDYefsbXIMdnVNc2CDwTrxu/UIXoLK54XGxmJH8yM6NDkMfGgTP23u6ey519ve8ef1wOsLXwQpeNu5kHY/D5J46X9CxKbY+QbdGR8eoXFSsoa4Ep3Wkedet/n15fVgmul5wSr6HRJunZgdRqNzqfGCgp0jn2AxQ1vF01AH2ewxbUQuGSU0/Zqgdd23190wuFaC81nNU4dDO1+17nq+Z+dFb9PWhINfD5FtglQt4YOPpS9l+a9U+Lpw9T4HvyeKRmi/Qvk3Qx/GjkcfhndiLvkwpl/e/wA7G7rkiaifpUQgEUgEEoEjIpAJhyOCe5as3dOBs9QxlbpZCJggd3/TwfmOHW4INFSgt7+o5IAI6CDLQnLYZJvlbWo7rqHhWhnyu75raGirBnJotx4E5euLg7fkWtZXJXuOYNma3Q1HEGtYpg9j4MhKIpAIJALXAYFMOFyHWTqkjnmzPiSayesQCKwOcg4hLHkcHoEzSDjsaNQwCL9Ja1I/ufc/edkR1yQ7PAJ2t1C/K+LwEs+UY/owZzoxqVYikAgkAmMEMuEwxiZ7EoFEIBFIBBKBRCARSAQSgUQgEUgEEoFEYEcEMuGwI3BJlggkAolAIpAIJAKJQCKQCCQCiUAikAgkAmMEMuEwxiZ7EoFEIBFIBBKBRCARSAQSgUQgEUgEEoFEYEcEMuGwI3DXg4ze9GzfFn09NE8tE4G3GwF6g338csu32/K07lAIHH4N0XsCbvD7AQ41NUfmA+8eMV/KOLK8N8YevmLxjnxp4o3pkYITgUQgEUgE9kIgEw57wXfuxNsTDvB5zvbZzc3mbfx0pfqk5gP9ecfNcicE8PI3fBEafQqtfSLOkWx7mz45+v3n6BzTFVV0HOFTivjitnNz9CWgaXqiTdA+1nWG5fAlfSuw2m3IRNcNLwac2TTSa04j2I7o17VP7FvHwI7agIklPK/aHPsD6roBr510mvLfZw3F6wZ07D/nuQKvUE+65ob86osq5XrMY/tPoS5Jx2vTX91nXz3Ryq86kP2sg/uiDdiIn7+Mr32sB9wXyK4YY6/aLl/8QFn8udqeoWlBm2As6u9sMiO3V+BTk/e/2063mmKHhAN8njMfsqxGOAcmAolAInASBDLhcBKYIyHflvsXS9/AjuiO23bKhMNPl++Vr18d1x789jwGx4dLOOwUOAzMBMcRndOzTTiQg4oOLiRG8N/ckZ7hA3xO+VT/ULrM+AymtuxCM+I1bp/PxZhu0BMGjoOxZ9t8YEwmdm5ZzzuthyPNx066bMQBZLx7+TRITsL8fFHuXn5RA3NgDNfnrcEwXdPhetKuoyMd1yQcMCBXyQRNA+UWtKsxLC+cp7XrcBfbWfDykebhh0L3QoXxL0/K7UUf5HV58vHt8uSXQA7Qf/ykvA663mTTKOEAyZHbX56btm8SqZSdCCQCicDpEMiEw+mwFkl4o/dPBn4r33z4Qbn3Tv379HsZX2xf24EA2f9Pv1J0svUQEgfMy2T74ZNSEQ20s+x2/KR887NSY1CExMGD9/nvo/L8Vx4IOx643ScXxrshNL+rx79XZnX848+aLOljecFROZFdcIBBPj/N4qdSxAPG0g4G2w69HZ8qdkRDzv2zchefjtmtsECDCYfQYQ3sgaZXgsGD9xXe0H55pTD/rPykWPzx+KOG3YM7V+UP1RcXKTB4+GtxwTM50g/xaSjgVJ1YxFpwMztAHNbUVx13oLt8Vh7eYVrt0FNQwXPxbkt6kMboTA93W0wc/gBv4uV0mNlU10LTjfVYoNFy+uQL6Mw6rEnOaBsrVu3Jp8VOniYDdgM5Bpc6hjF3cyi6/1Du3nlWHrZzRoIasPXuI34y/M/i5y9ed2P9Xlx+UR4+ejo8N4ESZBpb3XzoviE/oBmuyaq1waq2GYxWnBdAZmh4zu3c8Rpj3edryNIyTdWwzr0+x+xa8DsStCzfhzwjHBBzkKHXJ2nA1zw7T6CzrBvRdV2JeZrRqIOcS3rtxddqwoHX9Zinxq5KhDnk86QpQbZ318nar3Vo19BGGxS8Pe08h7F2DvWc4/yhbv1clO/ul4th0gEeioyD9H53A+2oZL+j+SloylYfRo8XvwZZjXwY3A2hfCj0YzQtJE/G9gSIZ1MikAgkAonAgRDIhMOBgFzNBpMNwRMDTB7oJINwhIy9vXnXPrzBSlIg2p3QZftrYoGTEJiYUMmNiIdo0pcwiL18WTtsEsHuYHhZvq7BsU4ocKKCkwfAj8ulUMKCdkFQ+UGTBfwooAbH5+LC/i1u82wOMamunV9dpidvFASg46aCQQwCqpM5ogHuRCdOKjia7NT2iC61WIzN6FeQiJAEhMES+qIkAzqcFruLz781bPtKdW6V7drZtlhY6tD26kgzJogXO++hIy88PbbSUwM55mM6gqA0CIw0ycymNs7pukTTY0GBIuPQ+E4LEkRgAKPshboEHpq3LgNz4KGCYwxkaIzQeyVELgc7bSzgUIMhOz9erufJ9fE4tJEDLXcOEzXQzgJX22/4eRz+PNd5LtAOhS3I6ufX8mZr+NiP5x591LgWeirN9uphtQz6s47cbeedW9XRrVPVM0hGyLXLjqVab5eeP2ePWxttzeAOB5UcmNgc6dDbrNY0ECibrb5aVxhIdbi2e1xRrl9z9drFCSE6Ml6ggzoHne1yzZyvm8he3K2gMLI2hRTjxtAnoWTD+D7a79Cc+Q67+zCQZBee6gAAIABJREFUxNBJg1LKgg/T+TzOcvQXFu9xjiiriUAikAgkAnshsDLh8J/y91vfl7/Uv7/9+797CR0R//jz/0ZdB20/lZxO6dnTBN5h8OFXhZ/pE31ww2XGkyQFD+luviBHy3D1mdPAPOXog19dh4SA7G6gxIIEw5RM0HXgWpMKjk4SDn68aLK15B00qYvDqZ1I7Xz2Tv6cRnhv1TIezwmb7ucokFRoCRlLa5M/tm97LQgiVDA2s7fHLgiqwIlnZ5odeq6vVnbmxDv9kSfPYRysjmyCdr1OJIiIAlKrfIeFttsOndQoqEEd1BxEW9TFht7+pgvjrQMllq76+sCKgywYLPxFJjHxdWZtjhMcmp5IIHIavQosWxvqo4JZTq4Eu5Uaf6+DrysbRQ7tfgJs9PWC+4e2D3ENzg1mVo9N39YeYNL6oDA7L6Df08/Pi358TbC2taj5QVnOryEevHOo8TAGhBXAQZIXNsGABG1dsD16PfB8UR/xAV0dT2CEc6XXelWn8dfqaduhnet+Dnxd8xiU/XoE+ZAM34CZ4ax3XYYJCDO6vP7ydv/zBN5hoB5gENU+PkxA63wWTEAon6bzeazqWMOkwxn+HCRQNZsSgUQgEXgrEFiZcDiNradKBJxKToja0s28SzwEN1xmfIiEA/BQN+vDJhzsln5Wm446OcE9Udty3y47HLyzK/Vl56938uc0wpttOcyxSzzsknDYeYeDcrqdsz2zt8cuCKqAn08wcFDm20dQOp30sJl+8oRTAiOgDWlQJzXOyQxplCIdFj6IUGPHRQpicNu2waZfk6IPBz7CtelSdcCfR5jgBfjpAEzz0GUblIlMkgVyTGAoKkhpgkPTE0c7uYNgGmgkELO4WH5kIyYLvA5uTXq7RHkqoUyXeIhpZrgG54YTZPWHTo+JI3Br1PVO6ElPv/W/t4nH2YAekzD/T34KQwmrOsas26rRop5Wc8DBrCtP3+qgnzpnNRsYo3WBNcA/k+JxURv0Nf48EI5uLtqa8jr4uuYxKDderh/02Jp4CH2S2Q6HfneD0aJLPOzjwwS0PuHgfJilhEPucDCzlZVEIBFIBE6CQCYcTgKzE6KfJrguquqbLP2WcfiTiu5pgmXY3XzdzRr6NW9IONxb4KklQNDLP4GgdwTILgTdp2moHCcX7E80NFU8Xo/YVNbOJTqR4rCCEy0BSs+1d/L9Uz1L0zvltn+fWvezicEOB8Q1+knFTsKdI+2c7Rl+XWAA8p3zHI5BPZ3c4OcqbE40R9S3zrn39KFNuG448QJ8dWA7XxOgi5dBAQo/bWVL1NGtU+oRTFBHFTBZHGEc8yZd21N45FuDMDUXQC/ngaVBWS0YEx1AJ40VlCUQhHEu2BvaxLoq+zvMrFy/jpjS4IABmehg5gB1qfOpcAA+hscgscHy+Ghtt7jwGE5w8VxYXG3yRmikZPTHZponwVzGQqkfb/u7INl1W3qQJVi6obXq5kgN8vhIV2wDyA7fIdHNj8cNdJC1jBibZFqVrOcfmvQ9gpXzY7jdXQOp2dqu5YItPEc05xbHqI1F4dGtz9V9ZmApO73DAZLUSz9JMH7GPj6M9oWq8oZ3Kd6H8XUxOd/hIFhkKRFIBBKB0yKQCYfT4q2k2acEGOi3lzXaJEApcNOVlyG1BMFkhwPcdPnlTXSs73qAm7Xi1ScXtCx5P4RS3BbVpy2vHr8sz+9IwqEU97MKE/COEgjQrn+KwbskRuOtOutr5NTi06A7z8oLExipPnBUW2BF3K3TzRLHNOA8snPJo3c/Okz150QnOxxAHu+IwJ+3mLnYqo11pPune9XBR+ysI01bkvnppwrucGxtV8EAOd48Xpx01pj6OeivrTNnPAwMOEAROeZJJ7KNbaIgCOjqywyV7pxAoKe5goPQsDzps/i4oBuDHY+BnQvizXhonR1d5cVPmjngtUF7XdOcxMBgnXS+9QheghrL0dj5+WtyeAJDm/r5YDp77vW28zhmj0dtK74IUvC2cyHtfh4k8TJ6mg2SLN7+umH7lawhrmSF1pGvI7rNry8rR8074MBzaQDSFYtph4OmH51Lmp1/yq/67HXRYsd2quGYLPGYznCQvqflhdF1fq3mc8LI0muIr1X6XDf8WWtrkz4vNK63Hv3QJW7ovFFrhFny0c2l2ErnZ3geMC0f8cHH0pey/FcqfJ2ZUeCvfQ5+TxSN0H6F8m+GPowdj3x5J+aSD2P65f0PsLMhv1Ih85WlRCARSAROiUAmHE6J9jnIck8HzkGl1OGGI+Cc533RAOc7drgh0Jg48fsKvrH0LkhVONigUnUcurjjGhqulSG/67uGhrbquRjarQdB+fri4C25lvUwwXECS9bsbji2GunDHBvh5J8IJAKJwMERyITDwSE9c4Z5sz7zCbqB6q0Ocm4gNtfC5DNIOOyI0zAIv0lrEoJXfmrvf/KyI65JdngE7G4h3l10eDlnzzF9mLOfolQwEUgEEgGPQCYcPCJZTwQSgUQgEUgEEoFEIBFIBBKBRCARSAQSgb0RyITD3hAmg0QgEUgEEoFEIBFIBBKBRCARSAQSgUQgEfAIZMLBI5L1RCARSAQSgUQgEUgEEoFEIBFIBBKBRCAR2BuBTDjsDWEySAQSgUQgEUgEEoFEIBFIBBKBRCARSAQSAY9AJhw8Im9VnT4tZT9P9VYZmMYkAtcUAfpkXvw1jWtqUqp9YgQOv4boxYQ3+IWEJ57BXcXBy07NZzZ3ZXTudPDZzHfk05bnrm7qlwgkAolAIhAjkAmHGJe3pHV7wuH3f31S/vGv33a0//fy/M5H5fmvK8l/vSpX779XHuDfZ+WnlWSbhsHb5vHN6/Tt9ej77sBv2+f7yNGnN7vv95lFdBzhe+74pvhzc/QloGl6IvjQPtZ1huXwqwCbJnXL4ImuG75EMLNppM2cRrAd0a9rn9i3joEdtQETS3hetTn2B9R1A1476TTlv88aitcN6Pju5NweIhfqSddcy4/b/olfxrAJN7Ln3aN/KWOmA1jI/fYaR9iQ3u/CNbv94/HQt/Z+wLZG/BrjYWFLwgH1vvOs/AZztFq/oWjT8e3nF+X+d6bpsJUdEg4/fvpByYcsh52G5JYIJAKJwL4IZMJhXwR3pv+23L+4X77dmf44hKdMOPx0+V75+tVx7Ghc0ckCx5GcwkMkHHYKHJpCtgCOI+p0tgkHcqCva8JhNldbkh8zPnZGpbYLjVCvLcWB41rqblwYOHajzrzhwJhMrD32GipHmo9Dr80IB5Dx7uVTm5x89ZSud4Cpvua16zTM3dqgfTIxs66RDpUm1Lv8UO5C0I5jKFnAyRKwvd1Xmh0zBUoxNHhvOp7NZM8PBdeSxvaXJ+X2og/yujz5+HZ58ktgD9B//KS8DrreZNMo4QDJkdtfnpu2bxKplJ0IJAKJwOkQyITD6bAWSXij908GfivffPhBufdO/fv0exlfbF/bgQDZ/0+/UnSy9RASB8zLZPvhG9YRDbSz7Hb8pHzzs1JjUITEAe1SgKPe4QA7HqTPJhfGuyE0v6vHv1epdfzjz5os6RsoBs3KAeycYvP9eeU0FnII+dv0zZmsYjo+qj2iIef+WbnL37pvjqtyPLcEFq8EA4M3tF9eKcztrpE/Hn/UsHtw56r8MYGNusT5JxvY66SA7iE+DVVP9RDr+sSObWUH12FNONUniEB3+aw8vMO0tR2V0E8P/1nsk0XamWKfoGqjSM8XuonLAd7omDe9lW6tjfWT4ADWAs9502OGQ91NwzQctLBaBQIbJa/vl5FU0jZWrNr6stjZdTyQY3CpY/hprptD0Y2CsYcNC8EHML37CJ6sVpyYlzejq8f6vbj8ojx89LRhbm0iJnat8jVA5knTDPlN12RV1mBV2wxGFYeF9UCBt+hHuNq54/XCuuu1KvPAIFpapuFeWmP6HLNYt3VcCbQs34dDIhzQZpABvLUs0aLXA/pgvKwfPTouW1stFravx4HlKf1W6U3XbZLl7Kvzz3qE1we+BvB52mTGFrZWHCfrxP6kws6hthXnD887pysw/u5+uRgmHeChyDhI73c30I5K9juan4IGbPVh9Hjxa5DVyIfB3RDKh0I/RtNC8mRsT8M5C4lAIpAIJAIHRyATDgeHdIEhJhuCJwaYPNBJBuEDGXt78659eIOVpEC0O6HL9tfEAichMDGhkhsRD9GkL2EQe/mydtgkgt3B8LJ8XZMROqHAiQpOHgA/LpdCCQtKVFD5QZMF/CigBsfn4sL+LW7zdE6eDlJ0mbfXggNpHW8bQI1oABiiE6d2lLDo0Y1aLMZmxCtIREjCx2AJfVGSAR1Oi93F50v7bqpzW4NHtE8FkhYLoyE+2WNnvPVUR5rbDT9w4BXvRlMLHlvTP6HtdQycccWsH686uejkLdH064ACJMaB2c6PojcGNworqEvgoXnrMnAHHio4xkCIxgi910LkEr2SBTjUYMrOj5freXJ9PA5tnAZqQDsLWG2/4edx+DNJwnOBdihsQdN+fi1vtoaP/Xju0UeNa02WsL16WC2D/qwjd9t551Z1dOtU9dS1INeqOClgKXq79Pw5ezSpWifSrNaiNA5L1n5Lu4gDcDU6rNTbrxO91u88K5B483OCBnjcoQ6JuMn8Dg2Ha6ai6+dgSNl3hD4JJRvG99F+h+bMd9jdh4Ekhk4alFIWfJjO53EWo7+weI9zRFlNBBKBRCAR2AuBlQmH/5S/3/q+/KX+/e3f/91L6Ij4x5//N+o6aPup5HRKz54m8A6DD78q/Eyf6IMbLjOeJCl4SHfzBTlahqvPnAbmKUcf/Oo6JARkdwMlFiQYpmSCrgPXmlRwdJJw8ONFk60l76BJnZxOfqLIR+1AWicXJM9phPdWLePxnLCxO0bAeYYdDpz8sbQ2+WP7ttdcEOEc6Zm9PXZBUKWd6ZqM2O6Uw5yMAk+nPwLAcxjTjGyCdl4jeFRB6YiG8e6w0HbzoMUj2GKTX0TS2y/69PY3XRjvv6oEAuug+shmDkw9P6mLTGLi68zaHCc4ND2RQOQ0ercWqR3GqSfDnFypO5nCc9vr4OsYdLL9TTom1AAbzZN7h7YPcQ3ODWZWjxYPaAwwMTT9ujDdHf38vIjkgZ2SJBzogzZH5xqMj9qtllTz8wpzzLQDuZqN02GV3v6neXVdvFA26zlBnnrt8fUBkw20fmhMv5a0ql25ym1vW+LkBfPvCBYa9K7LMAFh6V9/ebv/eQLvMFAPMIhqHx8moHU+CyYglE/T+TxWdaxh0uEMfw4SqJpNiUAikAi8FQisTDicxtZTJQJOJSdEbelm3iUeghsuMz5EwgF4qJv1YRMOdks/q01HnZzgnqhtuW+XHQ7g5Omnt1Jfcsj1dlrWbU4jvHn8YY5d4uHVDgmHnXc4KAfZBXkze7Uz3lCInGf19A7HYXCw4Wmg06nJCp9M6944wAptQp04wKlPS5XDH9IoUR0WHgc1dlykwAp/3mIw69ek6NMHY02XqgP+PELZwkk1OWc0D13mnzBIMCU06idEY4PoZ1DGFhnc9MQmJ3fwW3igkQDY4mL50dxjssDPBawnpZNgKbrpEsp0iYeYhmQKRs4mr4cWEiRMogSAIZmcFzTOyW/EpKcE9NTR28TjdIKHyi0JAzY5bJoYvXtAGgelka4wfNbHa1QnhlbozYllc16AHL++Kl+0M7o+kKyGR51HWQMDc3XzaF3A/Bp9NNGgHPoksx0O/e4Gw7lLPOzjwwS0PuHgfJilhEPucDCzlZVEIBFIBE6CQCYcTgKzE6KfJrguquqbLP2WcfiTiu5pgmXY3XzdzRr6NW9IONxb4KklQNDLP4GgdwTILgTdp2moHCcX7E80NFU8Xo/YVNYBRHWA2eEDJ1oClJ6rDVKof0bTO+U9z11bup9NDHY4IK7RTyp2EuyceRfEzLAA7BjnJto5z+EYHOzkBj9XYZ7RHFEfOPsqCGACd/T0oU24bjjxUgMWFYyENEqOl0FBkg6C1GAounVKvYIJylNBscWRAiMKclzAg3wrJmougF7OA0uDstpv80UH0EnbDWWZbxjnsB/aFONgMbNyRy9YNDhgQCY6GH6oS51PhQPYZHgMEhs0H/K/td3iIqNmuPKc8xoTKi4Z/bGR+AnmPJKO/XjbvxSoW3qQJVh6TlR3c4SJgHhuZXzME2T7d0hAW2zrDAfQaaYDaOL1pjUg54NYazDB9aXWUDtHSB+mt3pTn05A0PkV44CS3foUbeqaUdcB0+crs12XhZIO3YsWgWbpJwnGz9jHh9G+UFXe8C7F+zC+LibnOxwEiywlAolAInBaBDLhcFq8lTT7lAAD/fayRpsEKAVuuvIypJYgmOxwgJsuv7yJjvVdD3CzVrz65IKWJe+HUIrbovq05dXjl+6zmO5nFSbgHSUQoF3/FIN3SYzGW3XW16oDCE+D7jwrsCVWHFfVB/3NaSTuxsFsAsc0PvBoJDsVHKb1PRbI6tV4hwP0844I/HmLmYutijhn3CUcOHCmbffOaa4BptmSb9p0kMvvv5CnpTJHpDM55i4gmznjna7Vdq9D57BTkOJtgrXQ2uBlhirhMMJBaBQtf0rW6aGDkKWEA1hCvBkPrbMLzEZyDHZ1TTMWGEyRzrcewUtQYzl+JwDhQ3TGHlC46uHnlduZlunsuWfXoe2r86pkIC98OamsSTsX0u7lm3kdraEaTLPO/roxWg/6pZEWV7JB68g46TaSp3R3ejAN2sRzqeCxRYtph4OmH+KgOVp+vd68Lu1aRZu0rG5tswxHZ2hsH+Mw1oF5wtHqreeozW+TpeXoeeDzEdZ+fdlpuz5oGsZA5G9NOHib+HwRjkEJH3wsfSnLf6XC14Wv9zn4PVE0QvsVyr8Z+jB2PPowvBNzyYcx/fL+B9jZ0CVPRP0sJQKJQCKQCBwRgUw4HBHcs2Ttng6cpY6p1M1CwAS5+5sOznfscEMAbQOC/aUlhy44U5AcNtmmGPvijmtouFaG/K7vGhraqrEc2q0HQfn64uAtuZb1VcmeI1i2ZnfDEcQalunDGDiykggkAonAdUAgEw7XYZYOqWPerA+JZvI6BAKrg5xDCEseh0fAPQ1WAk6WcFAytxSHQfhNWpNq54p/R8MWLHPscRGgXQ+8K4p3Fx1X5llyTx/mLKcllUoEEoFEYIZAJhxm6GRfIpAIJAKJQCKQCCQCiUAikAgkAolAIpAI7IRAJhx2gi2JEoFEIBFIBBKBRCARSAQSgUQgEUgEEoFEYIZAJhxm6GRfIpAIJAKJQCKQCCQCiUAikAgkAolAIpAI7IRAJhx2gu26ENGbnu3boq+L7qlnIvA2I0BvqY9fbvk22522HQ6Bw68hek/ADX4/wOEm56ic4N0j+mswRxX2JpnDVyzekS9NvElVUnYikAgkAonA7ghkwmF37K4B5faEA3yes312c7OFGz9dqT6p+UB/3nGz3AkBvPwNPkn2K33ijz+N5im2vdxOf9Jsv68eoOMIn0rDF7edm6MvAU3TE4GD9rGuMyyHL+nzE3Kw+kTXDS8GnNk0UnVOI9iO6Ne1T+xbx8CO2oCJJTyv2hz7A+q6Aa+ddJry32cNxesGdOw/57kCr0BP4sWfUf2lMqHrMH9aUhJuth36pW+F/G5IbB8Pa7q1z1TWHv0CzfbZS+prNPCpZE9X5BO+Rm/ABT+tfNgEwZaEA+oNtqAu+92vGD8+wqcm73/HtSMcd0g4wOc58yHLEeYiWSYCiUAisAcCmXDYA7z9SL8t9y+WvoG9n4RdqE+ZcPjp8r3y9atdtNxAg04WBMeHSziAAzdKXGzQDIeC44i8zjbhQA7qdU04zOZqS/Jjxmc057vQjHiN2+eB1Zhu0BMEjoORZ9x8YEwmlh57DZUjzceh16bHAfhHQTmMk2unnie4Ph8yGNa87QSyDp2O7V5B4w1GcH1WCQhvL87TX5+Wu+aTvKCD2NTJs2odrdbkon2iT/nlSbm96IO8Lk8+vl2ecL5Iawn0Hz8pr3XbGZRHCQdIjtz+8ty0PQPAUoVEIBFIBE6AQCYcTgByJwJv9P7JwG/lmw8/KPfeqX+ffq/IbF/bgQDZ/0+/UnSy9RASB8zLZPvhk1IRDbSz7Hb8pHzzs1JjUITEwYP3+e+j8vxXHgg7HrjdJxfGuyE0v6vHv1dmdfzjz5os6WN5wVE5kZ2TqJ9m/VU7wqXAWH4KJw4y8e/4VLEjGnJcn5W7wZMuoEH+WwKLV4LBg/cV3tB+eaUw/6z8pCD54/FHDbsHd67KH6ovLorDbJzvQs78Q3waCjhVJxaxFtwIv9rnsKa+uksC6C6flYd3mLa2o1Luyad7sojO9HC3xTjoiAI54uV0mNlU7DppT4YXaLQc8zQU7QWdWYc1T3m1jRWrFhhZ7Ow6HsgB3Rt9HcOYuzkU3X8od+88Kw/bOSNBDdh695F6ysu84gWnWmP9Xlx+UR4+ejo8N4EByDS2uvnQfUN+QDNck1VNg1VtMxitOC+AzNDwnNu589ei+RqytNpe0lKvGWixWLd1XE3SsnwfDulw8PwrI0z6ytqAVrmWgs62j6mWjkY/s3aflu4apZghnV6PMA+6ruyCsQZHM5bwhvNB7KnzqvjR/UGubVSnc93wVjqaIuijrg06AeLnUPMTO4N5+e5+uRgmHeChyDhI73c30I5K9juan4JGbPVh9Hjxa5DVyIfB3RDKh0I/RtNC8mRsj8E6K4lAIpAIJAIHRSATDgeFcwUzTDYETwwweaCTDMILMvb25l378AYrSYFod0KX7a+JBU5CYGJCJTciHqJJX8Ig9vJl7bBJBLuD4WX5ugbHOqHAiQpOHgA/LpdCCQvaBUHlB00W8KOAGhyfiwv7t7jNE503cf60Q6nLpe6MAGcSHTft8EG5OpQjGgCG6ESWcUp7SBdaLMZm8CtIREgCwmAJfVGSAR1Oi93F598atn2lBijKdsYBxlosLHVoe3WkOYBFvNhRN4695cWywiAIOie0vY6BM67E9eNVJxedvCWaHgsJXJjl8lH0xgCGcavBnAQemrcugwTgoYJjDNpojNB7TUQuBzttLOBQAz+cy5YQ8nI9T66Px6GNHFS6c5iogXYWuNp+w8/j8Of5Ha7JqmY/v5Y3W8PHfjz36KPGtZQoMaZH92uIgt42F3owl9065WY6Ovk1ufjCDjK1zi6YlzAB5ebVnPfUx4kVXj9GUFRRa812gx0qiRyMw7Wpzhe8XvDa4mSiXsdtbNW11jUfPR+CC42/9QiSznQfkD7Q2uFiDYlrFePfaq/lF5MMW0OfhJIN4/tov0Nz5jvs7sNAEkMnDUopCz5M5/M4w9FfWLzHOaKsJgKJQCKQCOyFwMqEw3/K3299X/5S//727//uJXRE/OPP/xt1HbT9VHI6pWdPE3iHwYdfFX6mT/TBDZcZT5IUPKS7+YIcLcPVZ04D85SjD351HRICsruBEgsSDFMyQdeBa00qODpJOPjxosnWknfQpO4c35pg4MAD5GinkuTOaYT3Vi3j8Zyw6X6OAkmFlpCxtDb5Y/u211xQ4gKYmb09dkFQpZ3pGpSsDkCaMTAno8DT6Y80PIcxzcgmaG9BkkpAAcsRDavYYaHt5kGLRwqsUIcWEAFRb7/o09vfdGG8dbDGOqg+spmCJ0o4cBkGC3+RSUx8nVmb4wSHpicSiJxG79YitSuM8HyWObb81LntdfB1ZWOTzUGqSlTovqHtQ1yDc0MzDK9FASaGpl8Xpruza35e6LlufGAONAY62Ne21qSEvrYyD5gXncTkdn/08yf9Hgdfr4lgc87Q/PP5jDtzWgKCcYAdCXWXDdCiPbL2tT403z/gzi2ykXXQvLbsZhLrukRUxXwNZoqLFPWuyzABIUOh9PrL2/3PE3iHgXqAQVT7+DABrfNZMAGhfJrO57GqYw2TDmf4c5BA1WxKBBKBROCtQGBlwuE0tp4qEXAqOSFqSzfzLvEQ3HCZ8SESDsBD3awPm3CwW/pZbTrq5AT3RG3LfbvscPDOv9SXHHIVlLBqQXDXulYEnnrslnKXeNgl4bDzDgdxsv1OAsGyt0Y75K3XB3M6QOFBHKi0AIA7Bkfg4YIJHjnTj582tp+JVKKQBnWS4HULDsC2w8LjwApPjxTE4NZxg02/jsUGDnyEcdOl6oA/jzD4UZAkT841D12uQXL4JJdsFh4i35QmODQ9kcDJHZyHQCNrweJi+ZGNGBx6HdyaFCyN5q2CMnXQPbwOzHA9QsJhcl6Q8h5TNon0XH1emLU446nOHxYFx0U9abCdP83AyfTzWedD1oWmreWJDjz/cOQEhTnCuQP0eg2ADnhe2DUYSF5uCuxBoipzapfnHvoksx0O/e4Gw7JLPOzjwwS0PuHgfJilhEPucDCzlZVEIBFIBE6CQCYcTgKzE6KfJrguquqbLP2WcfiTiu5pgmXY3XzdzRr6NW9IONxb4KklQNDLP4GgdwTILgTdp2moHCcX7E80NFU8Xo/YVAbHjJ1idARl+y06kSbYspwjJ3dGw86p5XKYWvezicEOB8Q1+knFTmo4Z9455jMsALsu4HTOczgG9XRyOWhoW/bFmGiOqHeds+/pQ5taAAGca0Cm1k1IIyr2CQd8uizb+NVQKrp1So2CCcrjNV0TGoI1jGPepGt7sox8a+Cn5gIwkMDF0qCshrvoADppu6FsdXAB5tAm1tWiYOfFyu2e+lZSoGk6YEAmOhh+qEtNpCkcgI3hMUhsWE37HS4aFxk7w9Umb4RGSkZ/bCZ+zV4ZiqV+vBvQ7XCw/ZYeZAmWMhLmRbXra60MMutENbdzydsAsv3PpxBTteaFj10bEfZRm6VXNkhHt6tBd1l8rA6of70+zGXXc0hjqIVA2a1P0z3rMwNLKbNdl4WSDt2LFoFm6ScJxs/Yx4fRvlBV3vAuxfswvi4m5zscBIssJQKJQCJwWgQy4XBavJU0+5QAA/32skZDVNhOAAAgAElEQVSbBCgFbrryMqSWIJjscICbLr+8iY71XQ9ws1a8+uSCliXvh1CK26L6tOXV45fl+R1JOJTiflZhAt5RAgHa9U8xeJfEaLxVZ32NHHN8KnXnWXlhAiPV92eQ5p1c61SyxDENOJfeeWaq7UeHqf6c6GSHA8jhHRH48xYzF1u1sI50/zQS+nmrsHPaMajjPhXctfE6yGXHm8erwLGqjI57C3xr48zhdsmRZrnRK/qEXWwTBUGgn9pm3Zgu0bBdCiOnR0sKAM/aZ9eSnQvSh3efaPkOu5EcaG8BXF3TXMdgnXTWv0fndzi0J7w8npMPam6NPUObxFbmyXT23Ott53FtCpQM5IUvghS8Zf7qHPILbx0+kniZPX23ePvrhsVJdOAn4aCfxZWs0Dry3Os2wkjxq4krxo5ppkFqA8xiymuOebUkLYwfnUsec31+qjVkMB3p3PSipE+PKbfXc6mtPTcXrb2/poBttG70NVzjCUpofnx+KeVq0a7PihGvf6VDS1Byn8aonTdeByXPnKcOg2aPGh8V8cHH0pey/FcqfF0Ye5+D3xNFI7RfofyboQ9jx6MPwzsxl3wY0y/vf4CdDV3yRNTPUiKQCCQCicAREciEwxHBPUvW7unAWeqYSt0sBJzzvK/xndPfGEJAMXHi27gsbEPABamK+LDJNsXYF3dcQ8O1MuR3fdfQ0FaN5dBuPQjK1xcHb8m1rM+SPcc0aM3uhmPKB97pwxwb4eSfCCQCicDBEciEw8EhPXOGebM+8wm6geqtDnJuIDbXwuQzSDjsiNMwCL9Ja1LvOpht498R4yQ7DAK0m4t3RY13WRxG2hlzSR/mjCcnVUsEEoFEIEYgEw4xLtmaCCQCiUAikAgkAolAIpAIJAKJQCKQCCQCeyCQCYc9wEvSRCARSAQSgUQgEUgEEoFEIBFIBBKBRCARiBHIhEOMS7YmAolAIpAIJAKJQCKQCCQCiUAikAgkAonAHghkwmEP8M6flN70bN8Wff5ap4aJwNuPAL31PvyqwttvfFp4EAQOv4bCr74cRNdkckgE4N0j5oshh2R+TrzgKxbvyJcmzkm11CURSAQSgURgPQKZcFiP1TUcuT3hAJ/nbJ/d3Gzxxk9Xqk9qPtCfd9wsd0IAL3/DF6HRJ8/aJ+Icyba36ZOj33+OzjFdUUXHEb7Nji9uO7cXgUlA0/REm6B9rOsMy+FL+lZgtduQia4bXgw4s2mk15xGsB3Rr2uf2LeOgR21ARNLeF61OfYH1HUDXjvpNOW/zxqK1w3oGH16chGxTk/SDT8Xy58axS9b8EsP5chJN5LN7du+JoPXp/qJSbzGmxdhVp7ms5Tu85jtGszyAxrNE8a3f2wr0Di9NY2Wr9tBb93X+I4LaO9KGsQVxsIcef3GIlb1wKcm73+3auhug3ZIOMDnOfMhy25wJ1UikAgkAsdCIBMOx0J2ke+35f7F0jewF5kcfMApEw4/Xb5Xvn51cBMsQ3SyIDg+XMJhp8DBatVq4DiKgzwO4hvBSQvgSJMDjQ5uc7LjYIVVm+EDfDjA4PHHPB5Klxmfkf670Ix4jdvnczGmG/R0geNg3Fk3HxiTia1b1vNO6+FI87GTLmtxaNdcuX7EpOrTmo2mjoSAvF1vYurWugajjt+KNaJpnH7tul3vK+2aZnQB+/ia7u4/mncz5DgFmGvEEm1QCZFfnpTbiz7I6/Lk49vlyS+BbkD/8ZPyOuh6k02jhAMkR25/eW7avkmkUnYikAgkAqdDIBMOp8NaJOGN3j8Z+K188+EH5d479e/T72V8sX1tBwJk/z/9StHJ1kNIHDAvk+2HT0pFNNDOstvxk/LNz0qNQRESBw/e57+PyvP2RAt2PHC7Ty6Md0NoflePf69S6/jHnzVZ0jdQDJqVo9gFB+D01adicNS7H2As9+l2YNnxqeJHNOTcPyt3WZZ6MgU0yN84qhN7oOuVYPDgfYU3tF9eKcw/Kz8pVn88/qhh9+DOVflD9cVFCRhsgELO+kN8Gqqe6iHWgpvZAeKwpr7qjAPd5bPy8A7TspMOWpGjznPhgxB0poe7LSZBRYA38XI6zGyqa6Hpxnos0Gg5LVBpEwA6sw5rkjPaxopVW18WO7uOB3IMLnUMB35uDkX3H8rdO8/Kw3bOSFADtt59BE9Wq03Mq9k7KsT6vbj8ojx8JOettYl4gUzT7uZD9w35Ac1wTVadDVa1zWBUcXDyzXkBZIaG59zOHa8x1n2+hiwt01QNSyl6zUCrxdrvcNCyfB/yjHDADuAra0Hk1xLY3dYD6cBrql0XO6KgwfAJ+vEa4vQY6sz0gKHQ2DVV8cXzzGNp6ZgbHA2PRZ01ZS37ddTOc+i3c6jnHOcPcfa6llK+u18uhkkHeCgyDtL73Q20o5L9juanoPpbfRg9XvwaZDXyYXA3hPKh0I/RtJA8GdtTUc5DIpAIJAKJwBEQyITDEUCdssRkQ/DEAJMHOskgXCBjb2/etQ9vsJIUiHYndNn+mljgJAQmJlRyI+IhmvQlDGIvX9YOm0SwOxhelq9rcKwTCpyo4OQB8ONyKZSwoF0QVH7QZAE/CqjB8bm4sH+L2zzReZPAVjuDuswBLzjC6Lhx4MTH6jCPaAAYohNZo4RFj27UYjE2I15BIkISEAZL6IuSDOhwWuwuPv/WsO0r1blVtkvg4BxrRxzaXh1pDjYQLw5EFhxzj60RN6G18wVUgTOumPXjVScXnbwlmh4LCmQYB2Y7P4rewE/PA9Ql8NC8dRm4Aw8VHGMgQ2OE3mshcjnYaWMBhxoM2fnxcj1Pro/HoY0caLlzmKiBVgJF5ihH22/4eRz+PMd5LtAOXpOVWT+/lrfIpFI/3o+Ausa1JkzZ3mA46M86credd25VR7dOVU8v3+tjB2NtbJdaVx1dhBW0UWLK29SRQ4MPwPGaLNfZRmPsBZ0kodclf5jI0OgkM9FjEg3nxdkIdHwuMS88km3NLhwnerR2QzOpgO1qXYznYMKDu0KfhJIN4/tov0Nz5jvs7sNAEkMnDUopCz5M5/OwnfWI/sLiPc4RZTURSAQSgURgLwRWJhz+U/5+6/vyl/r3t3//dy+hI+Iff/7fqOug7aeS0yk9e5rAOww+/KrwM32iD264zHiSpOAh3c0X5GgZrj5zGpinHH3wq+uQEJDdDZRYkGCYkgm6DlxrUsHRScLBjxdNtpa8gyZ1cXr5qSIctUPYO/lzGuG9Vct4PCdsup+jQFKhJWQsrU3+2L7tNXCylWPvnPOZvT12QVClnWkOKpRzvU5fmJNR4On0R4Y8hzHNyCZo1+tEB/wjGta/w0LbzYMWjxQAoQ4mIO7tF316+5sujLfb8YNqqD6ymdeA5yd1kUmG+Hpo3gSHpicSipzGx61FaodxEtzpgNDyU4Gl18HXB4E48PPXC9ZtaPsQ1+DcYGb16PXvEhZuPCVQ4zVOQz2m8/NiLg94DWTBPJlzmuRQ0ormqyWwOhtcQzjnPIb46us39nTzyePh2NMQzsoeTQ/yeX3hrpjeZlwX5vxU8nD+exo1oi9q+dDLOoxk9Bxsi951GSYg7PDXX97uf57AOwzUAwyi2seHCWidz4IJCOXTdD6PVR1rmHQ4w5+DBKpmUyKQCCQCbwUCKxMOp7H1VImAU8kJUVu6mXeJh+CGy4wPkXAAHupmfdiEg93Sz2rTUScnuCdqW+7bZYeDd/6lDs7m3Pnrnfw5jfBmWw5z7BIPuyQcdt7hwMFmdXaVozuzt8cuCKq6YEQ9zTRBygTHSRAy04+DDR2UgpSQxgcKTmZIo1TusPBBhBo7LlKAiD9vMdj0a1L0IZoXimnTpeqAP49Qc8q4SBCoeegyzxWtD5FJwkCO8FAK6OIEh6Ynjndyo63z/LOXZovFxfKDvppc9Dq4Nent0upDGfj6xENMQzIFE2eT18MJsvpDp6N34zEwbVj4zhk96bnqvGhsQZfoWqpw5rEOX/1TOB4yPLrzzozzfLlzhmtAA3NnbA/GEOsef1wL5txkJfgIeEQ4cX9wHOkPekHyYzrHjl/ok8x2OPS7GwzHLvGwjw8T0PqEg/NhlhIOucPBzFZWEoFEIBE4CQKZcDgJzE6Ifprguqiqb7L0W8bhTyq6pwmWYXfzdTdr6Ne8IeFwb4GnlgBBL/8Egt4RILsQdJ+moXKcXLA/0dBU8Xg9YlNZO4zgvKknuuhcThy23smvP5sY0MSBxiZth4O7n00MdjggrtFPKoacZx3OqQYsle0z/AA7Ca6qDOc8h2NwqJMb/FyFtY7miPrWOfeePrQJ1w0nXmpAthIH0MXLoGDR7qZhe/Do1in1CSaoowpsLI4wjnm7gA/51oBHzQXQy7xaGpTVdrmIDqCTxgrKMt8wzgVWQ5tYV4OAw8zKxSBV2c+UBgcMyEQHMweoS51PhQPwMTwGiQ2Wx0dru8WFx3Aih5/AW1xt8kZopGT0x2aaJ8FcxkKpH2/7lxIWlh5kCZaeE/EK+vW1l4k09tAWjAHZ4Tsk3PWHWXpspT1IcrZOu85bs1kPY4xBR409zmewJhtfKOCa5OsI9dA6CLBjQqMPN9bjrM8N3ekdDpCkXvpJgvEz9vFhtC9UlTe8S/E+jK+LyfkOB8EiS4lAIpAInBaBTDicFm8lzT4lwEC/vazRJgFKgZuuvAypJQgmOxzgpssvb6JjfdcD3KwVrz65oGXJ+yGU4raoPm159fhleX5HEg6luJ9VmIB3lECAdv1TDN4lMRpv1VlfI6cRnwbdeVZemMBI9eFWWesMWqebJY5pfODBFLsdHab6c6Kvxj+pAFm8IwJ/3mLmYqsmLtDrHH7o5y3szmnGwIL7VHDXxusgtwZpqk8786B1F6BB48zh7nStthu9os/UxTZREAT21JcZqoQDJxBou7XgIDSMg/T536VzIIpaVh0tBnYuiDevV62zDYSGcgx2dU1zwISBEel86xG8BDWWo7fK0/ywnUESIbSJA+2ezp57ve0Grzq1xla35d3OxXgeJPHS7+hhMXa+QXfGh0fo+VCyhrgSndaR5163+fXl9WCa6XnBKvodErPzYnQuIQ+ZO77G/oYyaE1F82TXiseOd4307cNdG6Afr91mXy2Yda46JzRGP3We6/aGNbD02Kl7iabp1wlf19QaUSpi0env10OEr2dR8MHH0pey/FcqfF24ep+D3xNFI7RfofyboQ9jx6MPwzsxl3wY0y/vf4CdDfmVCpmvLCUCiUAicEoEMuFwSrTPQZZ7OnAOKqUONxwB5zzviwY437HDDcHOxInfV/CNpbeBv4YBAisThOnOQ5Z3XEPDtTLkd33X0NBWPQ9Du/UgKF9fHLwl17I+TPYc2Zo1uxuOrIJ/Z8OxxSX/RCARSAQSgf0RyITD/hheLw6ZcLhe83UTtF0d5NwEMK6jjWeQcNgRtmEQfpPWJASvbRdRJuR2XEpHJ1vaFXF0Bc5FQPow5zITqUcikAgkAqsRyITDaqhyYCKQCCQCiUAikAgkAolAIpAIJAKJQCKQCKxFIBMOa5HKcYlAIpAIJAKJQCKQCCQCiUAikAgkAolAIrAagUw4rIYqByYCiUAikAgkAolAIpAIJAKJQCKQCCQCicBaBDLhsBapHJcIJAKJQCKQCCQCiUAikAgkAolAIpAIJAKrEciEw2qoruNA+rSU/TzVdbQjdU4E3jYE6BOJ8dc03jZb057jIHD4NUQvJgw+PXkcA5LrjgjAy06Hn/zckedZksFnM9+RT1uepY6pVCKQCCQCicAiAplwWIToOg/YnnD4/V+flH/8i76Yvt3y38vzOx+V57+upPz1qly9/155gH+flZ9Wkm0aBm+b/yu8eZ2+/z76RN+2z/eRo09vdt/vre7oOMI33fFN8efm6EtA0/RE8KF9rOsMy+FXATZN6pbBE103fIlgZtNImzmNYDuiX9c+sW8dAztqAyaW8Lxqc+wPqOsGvHbSacp/nzUUrxvQ8d3JuT1EzulJfP5Zv36hrpHmixhR0EzX6dU6gNz2hY1/yidYvRwYc+dZWXdn26hDoXkI7wdaj9Xyhyi3ji0JB5wLkI1Yqblo3HYvfPv5Rbn/3e70i5Q7JBx+/PSDkg9ZFpHNAYlAIpAInBSBTDicFG4t7Nty/+J++VY3nUH5lAmHny7fK1+/OrLR6GRBcHy4hMNOgcPATHAcMQlytgkHclCva8JhNldbkh8zPoOpLbvQjHiN2+PAcTx+occFjgujz7T7wJhMrDz2GipHmo9Dr02DQ7vmVuDg2gZJVfiny7VbH0Cvdy+fThOaMp6u6bJLaDLvC3KFZ8Hzdr0ONJ51QP05seBwODTmWudZmTD9oeBawuR7Hf3Lk3J70Qd5XZ58fLs8+SWQAPQfPymvg6432TRKOEBy5PaX56btm0QqZScCiUAicDoEMuFwOqxFEt7o/ZOB38o3H35Q7r1T/z79XsYX29d2IED2/9OvFJ1sPYTEAfMy2X74hnVEA+0sux0/Kd/8rNQYFCFxQLsU4Kh3OMCOB+mzyYXxbgjN7+rx71VqHf/4syZL+gaKQbNy+oxTDH0Y5PNTOPV0rJQCY/nb9H5XRMenih/RkKP5rNzlJ3HskFY5yH9LYPFKMDB4Q/vllcLc7hr54/FHDbsHd67KHxPYqAsceEo4WGeZHPuH+DQUcKpPzRBrwc088XNYU1/dJQF0l8/KwztMW9tRCX7aWPs4cKm6ozM9fCI7CUACvImX02Fmk1sn7ansAo2Ww4GKTAXozDr8s/T9MpJK2saKVVtfFju7jgdyDC51DGPu5lB0+6HcvfOsPGznjDxFBVvvPlJPoZmXN6Orx/q9uPyiPHz0dHhuAhuQaWx186H7hvyAZrgmq7IGq9pmMFpxXgCZoeE5t3Pnr0XzNWRptb2kpV4z0GKxbuu4mqRl+T4c0uFA/Hh9wHWx6QC2jtYAzhOc+16/qkhwwGsu8wPebe3rwYCHrEnsMZir681MB00Tyqn3G+7ztmqcUI6c5w0frbYvOxprq51DzQ/nDzEKcP3ufrkYJh3gocg4SO93N9COSvY7mp+Cdmz1YfR48WuQ1ciHwd0QyodCP0bTQvJkbI+HO+uJQCKQCCQCh0MgEw6Hw3IdJ0w2BE8MMHmgkwzCDjL29uZd+/AGK0mBaHdCl+2viQVOQmBiQiU3Ih6iSV/CIPbyZe2wSQS7g+Fl+bomI3RCgRMVnDwAflwuhRIWlKig8oMmC/hRQA2Oz8WF/Vvc5tkcS1JdBym6XOrOCHCereNtA+ARDXAnOnFqRwmLHt2oxWJsRryCRIQkfAyW0BclGdDhtNhdfL6076Y6t9XRR/vY6Y8CPqVkaHt1pDlAMfy80654QdFja7ontECnnXIKumSODJ8Fm9pYJ6+X0UZioceCAkXGwY4e1SSIMMGXTmYhqeaty9AJPFRwjAETjbEYaR1ELgesbSzgUIMuOz9eruany+NxaCMHdO4cJg5A64JLzRrPZ+k3/DwOfyZ+eC7QDrXGgWU/v3PZ/XijWK1oXF0AGwzv1xAlS9tcBDTzXQZO/orgP7aL5hASJYwhqgJrI0yo6Tn3OkRGSBvODfB089NGuPNSJ6HbGCxMdIC1xuuOrzuBPNSF29V5AOztWtOS5+tGj2zlQJ/pnDfCoBD6JJRsGN9H+x2aM99hdx8Gkhg6aVBKWfBhOp/HmYz+wuI9zhFlNRFIBBKBRGAvBFYmHP5T/n7r+/KX+ve3f/93L6Ej4h9//t+o66Dtp5LTKT17msA7DD78qvAzfaIPbrjMeJKk4CHdzRfkaBmuPnMamKccffCr65AQkN0NlFiQYJiSCboOXGtSwdFJwsGPF022lryTLHVxlGPHmBxH40TXpIQerx1t4b1Vy3g8J2zsjhF4Ugo7HDj5Y2lt8sf2ba+5gMA59DN7owCp2zaunWkMKrf8/pqtmTnxTn8k4XmXYJQ5wXFkE7SbeedgY0LDfDsstN08aPEIttjkF5H09osNvf1NF8b7r+qpNOug+shmTtB4flIXmcTE15m1OU5waHoigchp9G4tUjuMk6fJbUdODQL1udz4ex18fRCIA70+95tes/UwxHWXhEOAiVbCJVxMF1Y8/fy8iBN1REMBMGEfBsNoN51veB61c8fr0GvJLUhXEwGIvUoK0BjSRc/xaA3OdMA+s4aCBAesPbfbitcDrgnY6dP0I1zk2hFfd9jO7ujXI8oOdOoIBw1612WYgLB0r7+83f88gXcYqAcYRLWPDxPQOp8FExDKp+l8Hqs61jDpcIY/BwlUzaZEIBFIBN4KBFYmHE5j66kSAaeSE6K2dDPvEg/BDZcZHyLhADzUzfqwCQe7pZ/VpqNOTnBP1Lbct8sOB+90Sr0P1FgDPraghBsWnHjh3QgOUugSD7skHHbe4cDBZv+77Jm9PXZBUAXOc3PMK1QclPn2EZJh4EmDZ/rxjhYdlAJVSKMCJuTsZIY0St8OCx9EqLHjIgVn+PMWg02/jkWfPqBrulQd8OcRLQAE6TqIhLrmoct1PmvgJTLJApATBp/awAkOTU8c7+QOzkOgkaffFhfLj2zE4NTr4Nakt0urD2WU+WeAuhzoznANzg0nyOoPnR4TR+DWqOud0JOeq84Lh9V8RwEE2sxbJ4XGiRvRGWzVgbqaPx7kdRmdy3V9SwJAdIE5XJpv+lmM1oUVUEeF/WxNKopx0a9PHgkyIDFizl3uHBxDn2S2w6Hf3WA4d4mHfXyYgNYnHJwPs5RwyB0OZraykggkAonASRDIhMNJYHZC9NME10VVfZOl3zIOf1LRPU2wDLubr7tZQ7/mDQmHews8tQQIevknEPSOANmFoPs0DZXj5IL9iYamisfrEZvK2hEF50090QXncuaw9U4+OaQjmkVndZPidnD3s4nBDgfENfpJhWW3suaCGuVIA4MZfoBdF3A65zkcg5o5uSzLPVWEodEckXEQlCwEBgF9aBOuG0681KBJOfohDSmB//c6gn02SFXD6/tIPH6CCcpTSQeLo+btAjO0o2Ki5gLoZU1bGpTVcBcdQF9tN5RlvmGcwx5lRzbFOFjMrNxup0wFz+CAAZnoYPjp+VQ4ABvDY5DYMHMVBLYaFxk7w9Umb4RGSkZ/bCZ+grmMhVI/3vYvJSwsPcgSLBsnjSM06mttG8TvruDzR3e4ea1dINvuILDYke5aH99fGeEaiOROdPA26aHYp+XqTi7btQ+2tDlyaxIo6Pya8HTrk6XgcdZnBpZSZrsuCyUduhctAs3STxKMn7GPD6N9oaq84V2K92F8XUzOdzgIFllKBBKBROC0CGTC4bR4K2n2KQEG+u1ljTYJUArcdOVlSC1BMNnhADddfnkTHeu7HuBmrXj1yQUtS94PoRS3RfVpy6vHL91nMd3PKkzAO0ogQLv+KQbvkhiNt+qsr5Ezik+D7jwrL0xgpPpwG611Tq3TzRLHNDbo4vG7Hh2m9T0WyO3V+CcV0M87IvDnLWYuturiAgJwmFWgTY4/PyF0TjM659xXcTVtOshlx5vHKye9qkyOuZ2fUeBJGHldKyOvgwrcaQTYzHqITRQEQXt9meEKHISm50dPg7ndBd1VxxaooGJ2Log346F1dtg5e9uTeGhvttc1zXUMjEi3W4/gJaixHL07heZnYA/oH9ok7fzEmfWz515vO4+rs0oHbSu+CDKaP9BR2lkvlm/Wd7feWZrF2wbHMEb3K1lDXImvXi8897qNdFT8jBw172ZuWWd/tJh2OPBaALIhDv685XUybrdaOB1qp13btVHPrU/WgX5aXyXErkvRT4b0OlgaPjf9dZ/WOq1D3afnx61vtyZBB5LlaEQ5Om+UbX49hOeBpocyPvhY+lKW/0qFrwtT73Pwe6JohPYrlH8z9GHsePRheCfmkg9j+uX9D7CzoUueiPpZSgQSgUQgETgiAplwOCK4Z8naPR04Sx1TqZuFwKpAaD0k4HzHDjcEABMnfr2IHGkQ6IMz7obAiYNkbjvKccc1NFwrQ37Xdw0NbdUTMrRbD4Ly9cXBW3It65Nkz1HtWbO74agK1JdGcvLh2LKSfyKQCCQCicBBEMiEw0FgvEZMMuFwjSbrhqi6Osi5IXhcOzPPIOGwI2bDIPwmrUm1w8Ls8tgR0yQ7DgJ2h0W0K+M4cs+Oa/owZzclqVAikAgkAksIZMJhCaHsTwQSgUQgEUgEEoFEIBFIBBKBRCARSAQSgc0IZMJhM2RJkAgkAolAIpAIJAKJQCKQCCQCiUAikAgkAksIZMJhCaHsTwQSgUQgEUgEEoFEIBFIBBKBRCARSAQSgc0IZMJhM2TXiYDe9GzfFn2d9E9dE4G3FQF478Ho5ZZvq81p12EROPwaovcE3OD3Axx2go7GDd49MvoCx9GEvgnG8BWLd+RLE29ChZSZCCQCiUAisD8CmXDYH8Mz5rA94QCf52yf3dxs2cZPV6pPaj7Qn3fcLHdCAC9/w8/d0SfKRm/M3/Y2fXL0+8/RTfQYdKHjCJ9SxBe3nZujLwFN0xPtgPaxrjMshy/pG+Czf/NE1w0vBpzZNNJxTiPYjujXtU/sW8fAjtqAiSU8r9oc+wPqugGvnXSa8t9nDcXrBnTsP+e5Ai+vp34Rpfp8I33dYvCZ1CHNTD5h0F+L6XrfPmsaJfeqPH1PIPtZP/mijW2v/eoTuHh9/Kv6BCmorO3hT+oqLBpPxWdmqe5DeYqX7vNllANjYY70p1/9wB3q8KnJ+9/tQLiWZIeEA3yeMx+yrAU4xyUCiUAicBoEMuFwGpwDKd+W+xdL38AOyI7cdMqEw0+X75WvXx3ZIHSyIDg+XMIBHDjtpO5jATiOyAud03EQv4+M3WnBmSenGx3c5hjHwQrLmeEDfOJPVjL1YY+H0mXGZ6TxLjQjXuP2+VyM6QY9PnAcDDvv5gNjMjF2y3reaT0caT520mUtDu2aSwRG1quncu001zy4PvP1b36tFjVoXLueGEbSWPoAACAASURBVKygTxIGQsMlurbdvVTXcqc3JgzaNY/p6Cg2iQ7tWm6HSg3srfx4LPDhNhl42FKTgfYpTH55Um4v+iCvy5OPb5cnvwQ6Af3HT8rroOtNNo0SDpAcuf3luWn7JpFK2YlAIpAInA6BTDicDmuRhDd6/2Tgt/LNhx+Ue+/Uv0+/l/HF9rUdCJD9//QrRSdbDyFxwLxMth8+KRXRQDvLbsdPyjc/KzUGRUgcPHif/z4qz3/lgbDjgdt9cmG8G0Lzu3r8e2VWxz/+rMmSPpYXHJUT2QUH7gmUTiLAWH46pttBQsenih3RkHP6DLfQI0/1ZApokL9xlgM7dNMrweDB+wpvaL+8Uph/Vn5SdH88/qhh9+DOVflD9cVFcsof/lqKONgwkgK6h/g0FHCqTixiLbiZp44Oa+qrAQbQXT4rD+8wLQceIIscep4L75yjMz3cbTEJPAO8iZfTYWZTXQtNN9ZjgUbLacFSmwDQmXVYk5zRNlas2vqy2Nl1PJBjcKljOOhycyi6/1Du3nlWHrZzRoIasPXuI3iyWm1iXs3eUSHW78XlF+Xho6fDcxO4gUxjq5sP3TfkBzTDNVl1NljVNoPRivMCyAwNz7mdO15jrPt8DVlapqkatvP3RWuwWPsdDlqW70MWHgewR8+z7zdy9bneOvo5lC5VAr01PdjNa0+XFUkt8nXXrhXCgdc1j+mpvVwaMR4P/bE+iK3GqhcmLYAjn0dwbOc5DLFzqOdcZAR6f3e/XAyTDvBQZByk97sbaEcl+x3NT0ELtvowerz4Nchq5MPgbgjlQ6Efo2kheTK2R4DOUiKQCCQCicChEciEw6ERXeKHyYbgiQEmD3SSQRhBxt7evGsf3mAlKRDtTuiy/TWxwEkITEyo5EbEQzTpSxjEXr6sHTaJYHcwvCxf1+BYJxQ4UcHJA+DH5VIoYUG7IKj8oMkCfhRQg+NzcWH/Frd5ovMmzqp2PHWZA15wQtFx0w4flKuzOKIBYIhOZIFjyk5tj+hSi8XYjH4FiQhJQBgsoS9KMqDDabG7+Pxbw7avVOdW2c44wFiLhaUOba+ONGOCeLET7oMXy67D1nRPaHsdA2dcMevHq04uOnlLND0WFCgyDsx2fhS9gZ+eB6hL4KF56zJwBx4qOMZAhsYIvddC5HKw08YCDjUYwrlsQaGX63lyfTwObeRAy53DRA20HHQyP320/Yafx+HP85vnAu3gNVnZ9fNreWupUO7H+xFQ17iWUsBGtjcYDvqzjtxt551b1dGtU9XTy/f62MFY6+xS8w8DLMaKgRsnPeP5lzFQUusWqsCP17FPVGoMldxOd0XncWXZPQ31THEHmW79ABXwitpZ1vDo1sVIpyG97gh9Eko2jO+j/Q7Nme+wuw8DSQydNCilLPgwnc+jbS2loL+weI9zRFlNBBKBRCAR2AuBlQmH/5S/3/q+/KX+/e3f/91L6Ij4x5//N+o6aPup5HRKz54m8A6DD78q/Eyf6IMbLjOeJCl4SHfzBTlahqvPnAbmKUcf/Oo6JARkdwMlFiQYpmSCrgPXmlRwdJJw8ONFk60l76BJnZxdfqLIR+189k7+nEZ4b9UyHs8Jm+7nKJBUaAkZS2uTP7Zve80FRc6ZntnbYxcEVdqZxqDSP81bo/Es+HP6IzuewzhYHdkE7bxG8KiCihENa99hoe3mQYtHsCXaPdDbL/r09jddGG//e3TQQ/WRzZxE8/ykLjLJEF8PzZvg0PREQpHT+Li1SO0wTnaNSFDa71Zq/L0Ovj4IxIEesNHXC9ZtaPsQ1+DcYGb12PRt7QEmrQ8K/bow3Z1d8/OiS5BUZowDYgE7XHTAD2PQ5vhcQ1p1Hln9XA3mm+cWd6Qs8QR8ZIydE7KVEme0ZloSrYm19K25Jlb68TCC+I7WxCESDm2XzFrctOKoIvy8ou66DBMQluD1l7f7nyfwDgP1AIOo9vFhAlrns2ACQvk0nc9jVccaJh3O8OcggarZlAgkAonAW4HAyoTDaWw9VSLgVHJC1JZu5l3iIbjhMuNDJByAh7pZHzbhYLf0s9p01MkJ7onalvt22eFgHU399HHJIe+DlCUn3stii/Y9domHXRIOO+9w4GCzPllUju7M3j5ACoIqCCLCAGVD4iEMPAnxmX4cHOigFKhCGh80OZkhjZr0DosuqFWDh0UKMPHnLQazfh2LPkQjW+rVmq464M8j1JwyLhJQaR66zMEkrQ+RSQaAzcJjYNQEB4uZkzsIpoFGgjqLi+WnAkOvg1uT3i5vCcp0iYeYhmQKJs4mr4cTZPWHTkfvxs/eS0BDR/Sk56rzYkkm2OSwYRLEzaxj7llzHOmurlEwj5yg0EeQ6eaYkiLqOrewIwF0l3lU+nq+qgvWhKxN1bFUHK0Lts+cuwvMQp9ktsOh391gJHSJh318mIDWJxycD7OUcMgdDma2spIIJAKJwEkQyITDSWB2QvAG79/hoMfomyz9lnH4k4ruaYLmU0p383U3a+jXvCHhcG+Bp5YAQS//BILeESC7EHSfpqFynFywP9HQVPF4PWJTWTuB1QFmZ3HJCeyd/PnW2DjQ2KTtcHD3s4nBDgfENfpJxZDzrMM59oClcnBn+IVOuXOewzGojpPLAUDbsi86R3NEvTbgFApb8vShTbhuOCCpAdlKHECal0HBYvx0HLVz65Q0FkxQRxWsWRxhHPMmXdsTV+Rbn/qquQB6mVdLg7Ia7qID6KSxgjKfV90WeBg8tIl1JSv5f4uZlYu8lP2apumAAZk84Tb8UJc6nwoH4GOxXLeGrO0WF9aNEzk8FxZXxofXmFBxyeiPjTRPzV4eWI/9eDdgIWFh6dfgAHMkeM/WONoezB9rCLLDd0go22K7x5iYOdLzDzz1PQJleFtYMzqCfr18ks3zaylGa6K2G9wcpVufpnfWZwaWUma7LgslHboXLQLN0k8SjJ+xjw+jfaGqvOFNPo72YbxPIybnOxwEiywlAolAInBaBDLhcFq8lTT7lAAD/fayRpsEKAVuuvIypHZznexwgJsuv7yJjvVdD3CzVrz65IKWJe+HUIrbovq05dXjl+X5HUk4lOJ+VmEC3lECAdr1TzF4l8RovFVnfY0cQXzadedZeWECI9WHT8Gsw2+dbpY4pjFOLQ/f+egw1Z8TfTX+SQWI4x0R+PMWMxdblXGBnks4cFBBTxJ1sMEBFG9vV8Gdftrog3bV5x36LkADU2YOd6drtR2DDdYr2kkBNnO/2ERBELTXlxkq3Uc4CE3PjwNwfgprApWqo8XAzgXx5vWqdXbBkLO3yTHY1TXNQSAG66TzrUfwEtRYjt6dQvPDdgZJhNAmv06Ezp57ve3NDr2kta1u272dC5lXPw+SeFFPy7UMLFu8++BY9ytZQ1xJgNaR51639eeZlqPm3cxtp3xtsJh2OPBagNGjc0m9B8HviOj1rvrpOWrnGa8vjYNt0+uLsaHRAwyqlXzw12bNz88f9pnzW+sla9zYDBhpzKpgK4do9dqlfrVGWGE+urn0uGpeTNId8cHH0pey/FcqfF24ep+D3xNFI7RfofyboQ9jx6MPwzsxl3wY0y/vf4CdDV3yRNTPUiKQCCQCicAREciEwxHBPUvW7unAWeqYSt0sBJzzvK/x4HzHDjcE0BMnfl/BN5beBakKBwicbCCoOg9Z3HENDdfKkN/1XUNDW/U8DO3Wg6B8fXHwllzL+jDZc2Rr1uxuOLIK/p0NxxaX/BOBRCARSAT2RyATDvtjeL04ZMLhes3XTdB2dZBzE8C4jjaeQcJhR9iGQfhNWpNqh4V5Or8jpkl2HATsrgi70+M4Es+Ua/owZzoxqVYikAgkAmMEMuEwxiZ7EoFEIBFIBBKBRCARSAQSgUQgEUgEEoFEYEcEMuGwI3BJlggkAolAIpAIJAKJQCKQCCQCiUAikAgkAmMEMuEwxiZ7EoFEIBFIBBKBRCARSAQSgUQgEUgEEoFEYEcEMuGwI3BJlggkAolAIpAIJAKJQCKQCCQCiUAikAgkAmMEMuEwxuYt6KFPS9nPU70FZqUJicC1R4A+2xd/TePaG5cGnASBw68hejHhgV5IiC+jPBCvk+D5dgs56NyeNVTp95z19KRyiUAicCMRyITDWz3t22+8v//rk/KPf/22Iyq/l+d3PirPf11J/utVuXr/vfIA/z4rP60k2zQM3jb/V/gUInzGTX2T3jHZ9vk+cvTfxe/F7/eZRXhL/rvwbfezdM4loGl6Im7QPg4kZlgOvwrg5uNw1YmuG75EMLNppOucRrAd0a9rn9i3joEdtQETS3hetTn2B9R1A1476TTlv88aitcN6Pju5NweIhfpuc81DWjhunjwf3QfoGv3PwsflxJ/hIuMR7o1+gEueJ/4Z3n3zrOyeGdFzJycAd3W9bRlbnEsyEX997vH+Sn89vOLcv8733rI+qn9nkPqnrwSgUQgEXg7EciEwxub12/L/Yv75ds3Jj8WfMqEw0+X75WvX8V6HKwVHSYIjg+XcNjq6M1sgQD81qNfzjjhQM7mdU04zOZqS/Jjxmc0v7vQjHiN2+PAcTx+oScKHBdIzq/7wJhMDDz2GipHmo9Dr80tOEzglK6jJRxEBJXgvrA9oF6HH6xD4Q00m5MoExzW6eDtXVdvunYJh9flycfLCYPXX94ut7983Qv75Um5/fGTEvT0Y0/YMvJ7IDkS2nFC3VJUIpAIJAJvAwKZcHgTswg33Qt/0/6tfPPhB+XeO/Xv0++VZrav7UB4/n/l3qdfKbr/Kz9WKriBMi/zkwr4hnVEA+0sux0/Kd/8rNQYFCFxQLsU4Kh3OMCOB+mzyYXxbgjN7+rx72wR7Z54/FmTJX0DxaC5JRxK6Zxi9zQJA//KCsby0y/dDt0dnwUacgyflbvBky7ghfy3BBavBAODN7RfXinM7a6RPx5/1LB7cOeq/FH1Hh/EYbbOLQV0D/FpKOBUnWrEWnAj/Gqfw5r66i4JoLt8hjtQTDsq5p5IuqeK6BgPn8hOAs8Ab+LF+ivdeN7aUYIIvU7ak+EZDqUULad/sgo6sw7/LH2/ny1tY8WqPRG12Nl1PJBjcKljGHM3h6LbD+XunWflYTtnBB+w9e4j9ZSXeXkzunqs34vLL8rDR0+H5yawAZnGVjcfum/ID2iGa7Iqa7CqbQajFecFkBkannM7d/5aNF9DllbbS1rqNQMtFuu2jqtJWpbvwyEdDlp+PY8Ur+F6cPNkgnONUVvfpHezr9LLuqxCZwfgq9ek0cHqLmw8ftpenr86r4o3XSsUT21TeA0DvnIuoXxDM96xZ3WV64mdP6u3xgHnHHX3tgJneFji/ReRCEH6xSCp0O9usL7NvTV+T4EdDP9Xvgl8nMP7PZRgyaSDzG+WEoFEIBHYBYFMOOyC2j40mGy4XZ784phg8kAnGaT/x08/iH/mADTvSFIgytIDbZdweEfa8AatbvIRD9GkL2EQe/mydtgkgt3B8LJ8XZMROqHAiQpOHgA/LpdCCQtKVNTkRZMF/CigRgfn4qJcqL/FLZvoWIrzp4MUXS51ZwQ4sdbxrk5cdShHNAAM0YmsUcKiRzdqsRibEa8gESEJH4Ml9EVJhu/uG9wQw8+X9t3UAEXZ7p3VFgQYBQfJGhcoIF7sqPuAwPHz2JruCa2dL6CKHGvh1o+XvlZy8pZo+nVAAcCmgEnpjQEN41YTYzIPmrcus+0qOMaAjsYIfbOyFjRetB7aWMChBoV2frxcz5Pr43FoIwec7hwmaqB1QRqzxaPtN/wQS4XDn4kfngu0Q2ELrPr5tbyN2HC8HwF1jWtNmLK9wfB+DdE51uYioMEEh7NFhjn5Xh8Z2Eo9DtzleflrIfTzXOmyC9ZhnhUGdi5ERoQFaxIf/XwJLxyv1rGm9/ZauWKHjAM5kByApHO9D4RrV0txGECXoxH+jm5YDewbroMhk9oRB+J4Lx7eP4Jdnbv4PZhwUD4RPCz58KvCjyZAwUP7PXO7lrDK/kQgEUgEEoGVCYf/lL/f+r78pf797d//PQpyP/78v6Pw9UxPJcfLLRjcDX5GwTsM3I2z1Gw+71wwPCc3ax4X3ni1DHez3pZw8MGvrkNCQHY3UGJBgmFKJug6aFyTCo5OEg5+PFu5/eidNamTc8hPFPnIgQdIsg4mtMxphPd2PSMKTtjYHSPgoMIOB07+WEqb/LF922tzx3Vmb49dEFTpAAOd7JW/fzaG+GBCdzr9sYvnkAMgPT4KLqkfbOU1gkflwM9wAOoOC223FT+pgS02+UWDe/tFn97+pgvj/dfg6anqI5tr8NQFpcJfZJJWvh4aNsGh6YmEIqfxcUkfalcYIVYyx5afmhOvg693NpMk4AfY6OsF6za0fYhrcG4ws3r0+ncJCzeerlVif9fd2TU/L+by+vmxGKg16udN1YHGnGMwh+o8aztEdFtvWN/iEwpQ53OJjyrRQQzAJo2fX1sw/9RPtv6AyQZaD4KHxaFXje8peh15Gl+PuNg2kY/tvO46Gy3VuEZJhwtMMMQJCE0b/sxiF79n5hNVgcfwezDpMNi5oe3MciKQCCQCiUCPwMqEQ094jJZTJQJOJSfEaLTDgQd3N2DaPni0hAMkLVQC4rAJB7uln02ko05OcE/Utty3yw4H76xJXTnBLNodeyd/TiO8HaM9q13iYZeEw847HDjY7J/EzeztsQuCKh8IAE5bnWMVsHiYZ/qxo89BA9OGNKiTCj6czJCGGR404fC04M9bTODQr0nRxwUeWhewiX8eYQI44KeTEJqHLvNc0foQmWQ4zP/06TsMqzpEL9iz68fJxcSfmo+KNdBIgGpxsfzIRgzyvA5uTXq71LRiEWW6xENMM8N1jgUIsvpDi8fEaebWqOud0JOeq86LxrTXxWKg5sLrpeqWpjGXwqun5dYl/G15yaSaa+akZHKTP4Iuspagt7ex0QA/vQbwehGfF42GC0Brzuc+6bmIC/Nqx4GuqNfWpG6cYBjvBAh2NzS9Silb/J5DJBw2+j1ju7QRWU4EEoFEIBEYIZAJhxEyx2wP3+GgBeokA/3Gsb23QQ87wA4HeBKgefufWGhxURmCXv4JBL0jQHYh6L6eNk4u2J9oaKp4vB6xqawduupwcSDUO5WWc+/k163CA4d3u2No5c1q3c8mBjscENfoJxUz5sM+57g6R32GH2DHODf2LrgLx+BgJzf4uQrzjOaI+lSQw4ODo6cPbVIBREtUqDUQ0ihZXgYFL/HTcSRz65RYCSYoTwUpFkcYx7xdsIV8a6Cu5gLoJbiyNCiLt4e7oEvbDWWZb9DBJQSGNrGuCrAuwBbbGz7KfqY0OGAQKDqYOUBdaiJN4QB8DI9BYoPl8dHaPrpGzHC1yRvmq49Gf+wgfoK5Hh0lKGz/NIDu8AdZgqXnFPGymCh6jT2uJ7X2TJ+TovrsHNE4XIt+zUGXvv43lsH6bH1QiPsjuURm1yeMa+cTrkOVtDVy7JpoXVpntNtdS6O2RgwFq4/pmvbZkTu9wwES28OfWjD/lX7PARIO6/2eOLHCGucxEUgEEoFEYB0CmXBYh9MRRtmMPwb67WWNNglAP6uQF0q2BMEk4QA3VH5pJB3rux74SQLLUu9vICPhps+08n6IIQDq05ZXj1+6z2K6n1WYgHeUQIB2/VMM3iUxGj/UbKGDnDrcQnvnWXlhAiPVh1trrWPYO/kgakxjnewFtRa7Hab1PRZI9mr8kwro5x0R+PMWMxeLQt0A57iCI6wCbXJs6zZ/7+xXp5i2LqvgDnHufxpAAQPzcg72KOEAMoLAkzDyulbTjF7R0z6wmfWQIAuDCGyvLzNcgYPQ9PzaTo4qS2+p5j4bTNq5IN68XrXODjtnb5NjsKtrmrHEIIl0Nr9H5wCR8eHxbX7YziCJUPWwNnGg3dPZc6+3vdmhV6y2FV8EGc0fyJJ2xrptsdfz2q13Fmbxti/ogzG6X8ka4kp89XphnHQb6aj4GTlq3s3css7+aDHtcFBzO34XhLazzmGls9dCWF+it9j0tLxwGPvrAM0zyZE5pzpjBJYRncgga2ldC53CQM0F4Nrx0uugkTl7PUbBeSG68Rrnc3aUDAEKdY/p7llyzmidm4pYAD1Fjsd0TKe5UAC+9I4k+/MJoAneWwU/olQvfgQ/pfk2KFL7IrpPJya0bvTuhkP6PbCzIV8YaTHOWiKQCCQCuyCQCYddULvONJBwUD+huM6mpO5vCQKrAqH1ttqgVNPZAEf3ZHkfBGwgoznZAFP3HLi84xoarpUhv+u7hoa26qkY2q0HQfn64uAtuTH11XN7YERW7W44sEzPLv0ej0jWE4FEIBE4KQKZcDgp3GcgLG+8ZzAJqYJB4E05wkaJrOyOwBkkHHZUfhiE36Q1aZ7q+90AOwKbZOeBQM4tzUP6PeexHlOLRCARuLEIZMLhxk59Gp4IJAKJQCKQCCQCiUAikAgkAolAIpAIHA+BTDgcD9vknAgkAolAIpAIJAKJQCKQCCQCiUAikAjcWAQy4XBjpz4NTwQSgUQgEUgEEoFEIBFIBBKBRCARSASOh0AmHI6H7WE5wxcp3vm/8uNhuSa3G4UAvU09fDv7jcIhjd0dgVxDu2OXlIlAIpAIJAKJQCKQCNw8BDLhcC5zjgkF+hyl/TRUVXBjwgE+i3n1fJtxfzz+qFw9/n0b0YrR+nOMy/wloIEXusnnFscvpgMVZm/DH74YboXuuw2Z6LrhZXS76D3DgT/Lt3/CYWLfLoBtwGQX9qeimWN/QC024LWTTlP+cn5ut+jA62aiQG836W0+x9o+m8ifJtQvTNTj9XVoIrR1adrK07y8z30eFPBe8+nE9klGzT/SHRSpY/QnGpt+QUHrt5YmYINN0/UzIpq0H5rfRNSsq92PECv5vOSMZnuf/iw0fxJ6BRdcQ7DW6NOZ6z5xOb9vxlLV2tt3nSzct2P5y62j++Zp5m9ZvxyRCCQCicBNRCATDm9s1r8t9y/ul2+dfPgudZhwcOOWqmeTcPj1qlzduSp/LCnc+sGhISe9OQjYB+1jJ68PMBrDMnJAZMRhS4fSZRe9Z7IPZ+V8LjbLOZOAYrPehuDAmBjetrJlXey0Ho40HzvpYk1fWfNzAXWdTKhsMEhT1xQIJFtQr0VRELc2Ubdop5FrdQNa0eGHcrcFdTDOJSqait7egte8W5dPy61G3wYHBbCPcdgWsAbMSjn0+jk0v1Dp5UY47zCQP2rCgfV4Wb5+f2vCAeZw2/wtrlVWxx8PNCc7y/f6qPro+jicv1+elNuBL6ZYZjERSAQSgURgTwQy4bAngDuR4w3uotz/rqfuEw6/lW8+pJ0P/icVMPbqX1+Vf7xT+z/9vjHUCQcYd++dT8o3P7fusEA7HK7K1++/Vx7A3+XLOg6eunxUnj/+jNrff8/shJjuYHj1meITinWN4oBbZ4Sc6ofgkOPTwBpAoPPOT/n4WPv0Uzt+gshJC6C7fFYe3mEadrhBHXLaSE7/dBODAubjtKcni5qXGhA4acTL6TDTu1Aw0XRjPWY4uCe5feBEwQzz7PuVDVjUAU7FqgU2Fjv7pG0gx+BSx3Dg57AQ3SgYewi7YPR6qLbefaSeGjMvb0ZXj/V7cflFefjoaZVTgw5Ha9dqoaCrrTlLM+Q3XZNVoMGqthmMVpwXozXk133Vn+dQr1WZBwZiNu8wRq+ZZRot611e40hm54h1Y45w9HPh6zKWeLEtLSCRAbUE44KERTeOGkYBTxsO88XnC5TV+gRaa2+jGiZOO/uY/+Jaia9THT9RoSvBWL5uNJuqXDk3RY7lDWuGcR2fzzaBUedfYdYp1RrsWuF5nl7fo3Op8mvrI8K1ydQFSho8f/xRu29+/Ur6p/fNsmvCge4PYiudD22O+FwCG9T1SV9DcU41vjhW5hAtCDGw14BFHdq5+gyTaahDJ5ev706+nid9LnU2Cd10/r67Xy4y6SCLM0uJQCKQCBwYgUw4HBjQRXaYbLhdnvwSj+wTDjzu+3Ll3uFAiQR+rwP0S1KhJRw2/BQDEg4P3v+oPP8VZILDw+W6zbMlIMQZsj/DoHHoVMHOBk5ctGN9YoM394tycaH+Pvd7PdhuPlpH0ztF1pFlGjqGAUB1uNgpMvxcEGC5sQMnjozpn9D2OoJNAz41KGT9jAxdcfJ6GXpw74yy870ox7ARvTFAUk5ic+pwPDmgxFuXoRN4qOAYnUYaEwWRJF7k8pbxNhZwqI4nzmXD1cs1hqjKeBzayE5t5HxjoM6Bk2LZisBb+g0/j8OfDjPPhVmTlVc/v5Z3Ezkc70eUUtwasgFePx70Zx251847t6qjl1HXd5s/NTROTtCA3n5DWJOFgjX0or7DBBTNOwQ73ibEoQYwsZ5WNq07DpDqUZ0b0i/6iT2kx61HEHxF1wR1vhix+pyADjXOB4Xh2jXMWrK1w8IPg7o650x3vbYyZnptiL1Aodcu6C2JOcSKsWt2MEaDm6dRgsaGdgRrkUi1PobZjhW4T6rkvNrtN7xvNklyj21NO983o/VEXO18sCS7psIxbU6Yxt9b1DoMk40i/12+D+i162n0WnOyzVrh810ldkTDhdKCb7ZAnd2JQCKQCCQCEwRWJhz+U/5+6/vyl/r3t3//d8Jy964ff/7f7sQbKE8lp1NpRRZ9a8JBfn4BOyFswuEe7nzghESnTdfQO0E64cBlTaZ/b1p3Rbz/XtFPccqrrTscNH9dtk6QD5JCp6iSRwFSF1RpJwbKEGhwkKnVmJZnDqvTH/mQUywOl2Ue6u12K/inQjMcgHvHU9ttxU9qYEsfUNkAgshFn97+pgvjrQKOJlz10VM4dp49P6mLTK9D49oXJjg0PZFK5DQmYQAD43TwKUGm5afmxOvg694JrwoAvzBgbk8Q+wANMCI8g3ns5DZLseD1nyUIiDI6LwIcm5jJeQFYA64cjDaaWujmovJq5zLVKRClMgXGNF8c3iIb9wAAIABJREFUJFu2epztiWo9Pm4U4FuDLFqrP+BOK9IpwmUsH+dRYQGymw1uHv154bTCKq4lxS8aw21DOydyrQ5gF58Xzm49j4gXrdNmGysxOjodzDDm19aE9KL9f66vMFEhw1aWgqQBUq64b27d4TDUiNbO6B5j50OYyNwCPV9zpb+7f+K1SV/voMxzO9bBylfrgc9zfQ2t8wU05trlrgeiu9J3bXGy+3QtixyXCCQCiUAi0COwMuHQEx6j5VSJgFPJCTFayKIfMuFAP7eQJESoj2rcLeEQJSIU0yjhcIgnNdohnQRWoEnogHiHFPh5B3TimCoLpeh0ko5+m7fu410G4qBR71Dv5sj1T6etA2elQK3j6XHoSYIWCg7w5y0GM+UwVirRxwUUWpeqA27BNsEOOaoSZGgeusw/YSDHWGSSEmCz8AjMgaYJDhYzJ9c8pRXeQCNBscXF8iMbMcDxOrg16e0SaVRCmS5YCmlAzmQNzbAASVZ/aPGYOM3C82KBBlkQNv68wC7g6QKNKOEFY72+DROHL9od7i6ou5rM2nQ2qqqXp7pqUc15taMFuDg3OsCrGISyAUMO6oA11H3QJ4Ffs7tXCFtw/ZjzeTCwNg/tdOtYy9VlO19uPeg1U/n114eJfk6HcCRiHSeWEQt3LoU8po2zhMPCfTNKOOx032QF43PJzgePrddDWHO/Pit3H/UJy/4a4eZPsZJir4OVD/11Pev5FwZYsjSuMzjf+xGDlgXfbECVzYlAIpAIJAIrEMiEwwqQDj5kkkU/aMIBvlLxM7zjYV3SYXvCoRSgkXc9BEhFCYdg2HKTc2icQwJOiAR4lhs4j13A6RzScAyycXLbDgMdFJC8oQM+CEqtln1gFOqETjLL7oORGQ4gr9cR7Js80atOucVPMEF5KkixOmvepKsNrKpzqeYC6GUeLQ3KagGh6AB2abuhLPrCOB2UcXLCrwmtq50Zi5mV2zveRGtwwKBSdDD89HwqHHiuxA7ljFv1TM3abnFpA7VMXJsac8aH11ijagWjP7bSPImubSgW+vHQPKfRHGL6IEnk8GMeem2w3Jbgaetp8hOBqmtbu8AYMfRriCQO9WWFDP52PQGtrH86X3WdWcDR2qV7atnjgeswnlfkpc5jzw310lix/IjGydVrUuuM5XZuWhzMDjbFz+ODeiKefi7G57O1zclVnVpv1byhOEo4rLhvRgmHDZJHQ/3a1PNhaeD8fIrvrnmIP7G0vdF1D3iPrgGaWutgMdbXOJgXuWZqejr34nUM49bqYXiu2H1qxmclEUgEEoFEYBMCmXDYBNchB9uvVND7GPjlkHSkz1rCuxls+70Pvyrw8UqbnOh/UtE+i1k/udnqAzN2STiU4reHujdrvzrNTyrs0z3nqFSHlLZhVkfFtFknnxxheVLonSjqdw6Pcoo7eF1ypPV7HbzzbvpFHjhUZEt9maF5+kmOduuvzqLQKFp2JI0cl3yofRYD66QTb9ZPy3cO6EgOtDfbKRBtu00wSCKd7e/brZw2ngMh9aTXBIoAfmiTtBN2ggPYJzx626WvzWyTgbzw5aSyJu1cSDvrxfJNoDlaQ91TbZ4H1kXjJLJEh2gN1UC3YshzLzTBGnJ6ME0UmLBm9pxVa8WtEz23XgeNPfTpusiJ7YF+e64r7JwOHd/RGgqTehM5oIRa49pW087ruZ0nMK8yn9rWVgYd23hqDe11ttL6U1hUm6KXWZr5YFlOLshs60GvE3Ne2PNqlHDghJHBaTQXzi6eQ4uBWndaN8TbYtBwXV0YJxzG902gkZ8n4subN33lySnnMDC44dD4+gBdiBPPKbP1/ACndv/RvNTOEU+jeNq1oRMO7rxwP7fzc8hzi2oaeSvmEB8A9V8MY5PzmAgkAolAIrA/Aplw2B/D5HAdEQCnRDk++5owDnacE7WvoKSvCLgAReFinVjVcejijmtouFaG/K7vGhraeiZzcWg1kl8i8LYgcLJz920BLO1IBBKBRCARGCKQCYchNNnxViMwDO7eaqvfIuPOIOGwI5pDRz7X5I6IJlkikAgcCgG4PsEuF9mVcijOyScRSAQSgUTgpiKQCYebOvNpdyKQCCQCiUAikAgkAolAIpAIJAKJQCJwRAQy4XBEcJN1IpAIJAKJQCKQCCQCiUAikAgkAolAInBTEciEw02d+bQ7EUgEEoFEIBFIBBKBRCARSAQSgUQgETgiAplwOCK4B2WNX5r4v/LjQZkms5uFAL1F3LzR+2YBkNbujUCuob0hTAaJQCKQCCQCiUAikAjcIAQy4XAuk10/XXnvnQ/KP/71W6/VxoTDj59+UJY+g+mF2M9i+t7d6z9dyme+rh7DBz1n/ySgwZdXmU9ujT9xNfsywfAlfTM19uobv9Bw/plAK3QXvWc48GcI9084TOyzJqyrvSUvS5xjvw6KVaM24LWTTlP+cn6u0tUMOvC6MbxtReyun1nlz0rWoz0HeIy9vgCP8BOlVtRRa/wCv+hTlSJY40rz0/RWn84UTISSSpre9+1Qn66fM+C3gwpA0u5H+BlTu1Z2ZBmQ6c9Mu09MB6NbE2COc01ree0LH8dronF2BbW+DvCVp+3ynTpBdXTfPM38BQplUyKQCCQCiUDJhMMbWwTflvsX/beff//XJ3HCYaOeZ5Nw+PWqXG36jjg4NPR9+eYgoO1zp3jmuIwckI2Qrh5+KF120Xsme7UBiwPnc7FI7gccOkDx/E9SPzAmE523rIud1sOR5mMnXSY4jLtmc9F/YhT0evfyabn7VxVEQlCpAqotmI/12tjjdBjjp+3VZStvHb2l2al26PVzaH47GUUJBwzkj5pwYOVelq/f35pwgPV77IRD1e9AczJek4zD9uPoXIX2cP5+eVJuB77YdslJkQgkAolAIjBCIBMOI2SO2Y43uIty/7teSJ9w+K188+EHBXY+3HvH/qQCxl7966vyD+z7oNz79PvGUCccYNy9dz4p3/zcusMC7XC4Kl+/X3ckXL6s4+Cpy0fl+ePPyoPap3cqTHcwvPqsPGh8QrGuERxmSjhYZ4Qc6YftqSONwR0D7unlu/xUDx1D+sSXPPGrQQU4TJfPysM73K+Cjeq0NZq2y4JUBb3e1cGJsWDs8Ee7G4iX02GmNz9pazYre1ob86sYlVK0HPt0F5QHnZnmn6XvNwbW8YxXfTrcgrNar/zsk7aBHOO81jGMucNCdPuh3L3zrDysn3Brc15tvfsInvhVm5iXN6Orx/q9uPyiPHz0tD3ttjYRE7tWS/HrUtMM+U3XZFXWYFXbDEYrzovRGvLr3s3hfA3N5h30BGx5zVS9nTyNkZZlzzU7R5qGuXZzwR1wBKz0egA8US+rX8fD02mepjzAAeXIOWb1ntHwOUxjZP1bGsHI2qFVI5ueybnecCCa7tqqiQdlM098DahrVM5NmXeLK9jA9o3PZ3vdrPPfdB8ohs11bF3HQ+w0r+hcqiJawBqdg6EalDR4/vijdt/8+pUMnN43y64JB0qMiK322t/WiVuPdK+jucA51ZjgWJlDtCDEwK7JRR3qtfrWo2hN+muok6/nidedbuNrv7rmTOfvu/vlIpMOsjizlAgkAonAgRHIhMOBAV1kh8mG2+XJL/HIPuHA474vV0HCQZIQ0C9JhZZw2PBTDEg4PHj/o/L8V5AJDg+X6zbPljgQZ8j+DIPGoVMFOxs4cdGO9YkN3twvysWF+vv8WzZ0cLSOpneKrCNrWYRPPKrDxU6R4bcQXOBY5cgYaRPaXkdy9F8YBlIJ9ZZuKjl5vQxL0PP0gYwdH9dEb+CnAzioSzCleesycAUeKjhGp5HGCL2XLnI5SdLGAg7V8bTz4+V6nlwfj0Mb2amNnG8MnDlwYn76CLyl3/DzOPzpKIdrsrLr59fy1lKh3I/3IwZBONsbDAf9WUfutvPOrero1in0jGn0PCseq+yZ4eH7oM62WJm4hlrQReP0OrdaSW1sk4wpbr3MaUAvSFTI+gFOlkbrzuP7ZNv4vCCa6FzSWndldc6ZvnptZX5aV7se9XxYHQz+LbileWC+RmZX0XPrOoO1SCO0Po5mpyrcJ98rLTmvdvsN75tNjtxjW9PO900XrDeGo+uDXk+DMW1OhBnMs1wXgAevWctPKDgZosfpstJbrzUn26yVem6IHlraQnnBN1ugzu5EIBFIBBKBCQIrEw7/KX+/9X35S/3727//O2G5e9ePP/9vd+INlKeS06m0Iou+NeEg73uAnRA24RDtiuh0Ug29E6QTDlxWBEX/3lTe06Cf4pRXW3c4aP667JwW5zRaR1bT9U98sNc5LeYpGvSBkz8JuqwErs0cVqc/kpBT7IMJ5mYdOG5lJ02elupAaIYDcOh4ehxEzKQEtvQBjQ+kgIHo09vfdGG8/6qTFVW86qOncOyEen5SF5nEw9dDwyY4ND2RUOQ0Pm4tUjuMU3PUnO9+Dhp/r4Ovh7sEiB9gEznZI9uhve3gAT1bcF2fLE7WftO3ARBg0vqgEJ0XM5rJeQFYe321rHAu6gDoU3YhBs1urw/rAHNYd7i0sVqgLnsevi9aD8s0OK/1PKA59jS+znLJBg7Q/VqQuqf3deZnj/06qP1u3YocfT2AsXpdOJl6HqvtMO9si9UkqDkdzAjmp9YC94NNo3OJx6w/BkkDJF5x39y6w2GoFK9jDuTtQD03ukfmFuj5mqtGdPjC/On1Xc8bfHgx1sHKV+uBz3PNs84X0Jhrl7seiO5K37XFye7TtSxyXCKQCCQCiUCPwMqEQ094jJZTJQJOJSfEaCGLfsiEA/3cQpIQoT6qcbeEQ5SIUEyjhMMhntRoh9QEtkp2LYYOiHeYXDCCpBPHtJcSPClWg6xjpTqwGDtkQ71V8Oq3iM/l9MGuSbR4tYZ1Cg5wC7Zx2pXDWGlFHxdQ6ORHnQvcgm2COsJFggzNQ5d5+y05xiKTlAAchcfAKL8e1DA7D06uCZqECGgkiLe4WH5kYwsqNZ5uTXq7RBqVUOafzrdOPIQ0uK5VAOLOpaU1YfUH2R4Tp5nnj90LNDiGsAkTcsDTBRo2gHU64DxpbJi3D5L0GOER4ijdtTS2abwexjQgU9ZQvb7g+vA0vi6Kab11GUbIPDr6ybkgnDW9bu0TVlquLtv5cjroNTO8Pji5urrGBjwP4sRydC5p9uvKs4TDwn0zSjjsdN9kTXm9q/N+dt8EbOBa/OuzcvdRsB2zw9fNH4s1x16H4XrQ8294+KSV6zTruu+btiz4ZlPa7EwEEoFEIBGYIpAJhyk8R+qcZNEPmnB4Xkr5Gd7xsC7psD3hUArQTN/RECUcdoLVOTTOIQHHxTjnSgY4j13A6RymcAzycHKrk9Z+C+vk6GBPusDRso6e9ElJAgBqC3VCJ5mfOFUHTgXpMxyAq5fBP02I9eZA3uMnmKA8FSRbnWEcB3Cka5ODdlRM1FwAvcyjpUFZ7acsogPYpe2Gssw3jHPYo+zIJtZV5qTHzModBecGBwyORQczB3o+FQ4sV+xYt4as7RaXZpWWWQNxwZznnNdYo2oFoz+20jyJrm0oFvrx0Dyn0Rxi+j6wHc0F8oI5UOtU86eym1c9wOBVO7DNr6GxTWBDw8eshzENJhOVzrLGiYbPJeAdXY/8uW3Xhj4vrO0iR0CIZOA4pV8b7daxlqt5Y7mdm1YHk0hV/FAPdb1DmeFcAL/4fG56YsHJVZ1ab9W8oThKOKy4b0YJhw2SR0MBP143MEbPh6WBNfYU313zEHcp2N7oXAPebY274bqqdbAYg0y+TsK8cFlTr7s+rdHDcF2x+9SMz0oikAgkAonAJgQy4bAJrkMOtl+pgEQD/QSCXxDJn7WEdzNIG4758KsCH5e0yYn+JxXts5j1k5utPjBjl4RD6X5W4d6sfaKEAzvXtNXSOSrVIaW+GkiZNh3kVicMnp7WP++8kKPsAjLlFHfwuuRI6/c6eOf9/7d3/jxWHEv/J7TkzG9g38slJEbIidOVLDLSJyLCgRFoA5IHcSOEtRIsQpadkJAssgCt7/6S6+BJkPknXb+Dq/65qru6q6r/nJnZc5aznC/Scmb6T3X1p2tmump6Zkx+aY8n3axba6l3nGh7DqWO9EsxMu3YCSlPLKulzHaSHmWLfrp9NwHttUPpue/RmcrOITtnUef4crF2O7m8TKLV+OkJNrNPevhxlb7KuEs9PUH2d/NtXh5Z+9JIfjlp4W3HoqT79k0QoGdDvLpAxpR+hY/oosejtFV0aNlQDEwJB+FU6kh7RZ49/tS4m7EVneRX6+bqqPHTY+t1kDEiiZSn96UVCW6086SUtWnbH89UnB6ls4hx4yHszNg6e7BtWZmmv/kYSasdEqNbr5TuvWNseFzYcdC8pVtRj5pDUz835tapVG0ZDqoP1Ki2dyPPnR+obOpzZi1Kd1jE87fYsOatdGO2dX9F9LTffsChf92kOuXxRH5J86yvPDnNHIN6bHWf9fGcroPa5ki0l0eccgBIy1IrR3wdJdPahg44WBunc5EeXz+G5tg27U0YQ74BVH8xzJHELgiAAAiAwBkIIOBwBnioeoEJ0KRETXzO2pOxs2MncmdtC/WJgHNQFBQ7iVUZ695caENdW+nKcxPxdfdjg/K6fV13m112624I8kBgNwic27G7GzjRSxAAARDYaQIIOOz08O9w5+GgXPDB34KAw0KC3Yk8bHIhUVQDARBYFwE6P/kVBeuSDTkgAAIgAAK7SQABh90cd/QaBEAABEAABEAABEAABEAABEAABDZKAAGHjeKFcBAAARAAARAAARAAARAAARAAARDYTQIIOOzmuKPXIAACIAACIAACIAACIAACIAACILBRAgg4bBQvhIMACIAACIAACIAACIAACIAACIDAbhJAwOGijDt/2vJeOL0o+kLPLSQQP1tmPiG2hVpCpW0mABva5tGBbiAAAiAAAiAAAiCwbQQQcNiWEeGAwpVw+9KVcP/hh1qrmQGH05tXwuFxLWaU8p8n34XDJx9HRRbl/XGnfFd8tfzi0PDbss03vvvf1B59CrH7VYBFvZlSqf8FBf6O+cTPcS7Re8Qhfkryn+HsAYdB/6bg8WW+kK8zjNn7Tp9hfwavRToN5Zfjc34P1mw3AwXqfke96e37X/1DnUde/cxv5Od0c1zq8lRn4qdte/J0+t86dI9BKpfPef0OUv9iX7xuTu+uLPWpVadbzaKvRzNnaD/NGuPEdcsbt9bNzdcj5qVsqFtjScbHcHxdrpc/hj+miiBGbKM0rv8M1x6/m1SzPk5WVVP2ZY6XVfXa+fPbb8vRqb3r5vmMn9YE2yAAAiAAAkIAAQchce6/r8PB3kF47dr9+PBGO+Dgyq3a3ZqAw/vDcHj9MPxnlcI5nyY0cXKfJwicR+n9Sd5o4tKbgOQm17yxLl2W6D1qe33dHI/F7Ha2xKGYrbepsGYmRrbdmWMXi+xhQ+OxSBfb9Yl7fixovxEwYCetnFOsfl7GhKaH8lR9V07lhDAx4FDVaTp/0flsBzdUwMEIC8t00DLWbT/rlqd1nbFNxx078hsNOIhCv4VfL88NOJAtbzrgkPRb05jYY076frbf3vmxO37vjsJ+Yy52Ni1QGwRAAARAQBNAwEHTOK9tvsDthYM3dYN1wOFDeH41rny4fck+UkFlDx8+C/cvpfybJ1mgDjhQuduXboTnb3N2cyOucDgMv15Od1ju/JbK0V2X78Lxkx/Dg5SnVyoMVzC8+jE8yHKazbrE4hzYyUh0AB7lO3vJgeDJe/xueHXHr3XnToIWVO/OC74bFOsVxyOkSVuW5+4Skl7mLqnpwcBRaUzSoizRP+kw0juEQBOnrJvuD9+91XnFydLt1A4I6Vzq1fmmgyGulBBecYL7VXZ40n6SZ++0ddoxXFIZYe5YFN1+D7euvwiPMgvb11uP6Y5f6pPI8t2o9tv6vbzzU3j0uNwJt32KQqythsArWaT9f9g7jl15Q5tMyhpWKc0wmnBc9GzI270bw7ENjcad9CS2YjNJb9ee5qrbsseaHSNdR6T6sfD7Uq5y7g3blr65ZnuDxkHbmpGnqlC5fLzUtmJk6LHVdZQ4ZqXbzXnUh3JcULI9d9i8WI3GsZWehZoNM06iX+p3OTbLuNux0G31j2e7KiyNf7O/RrVkc63zmrXVLu8GO7a33rj65kMMGhw/+S5fN399VQoNr5up7rwVDpGzd7jNGMkxSH1Q56d4PYnjXtkTly1jyD1oMrBcy7k6hKYOIaZfe/yiXH/0uBodXfut40Kn5b6Vejng0NL9zUHYQ9ChGCe2QAAEQGDNBBBwWDPQleI42LAfjjorHuuAg0g8CYeNgEMJQlB+CSrkgMOMRzEo4PDg8nfh+D21SZMl2U7LPHPgoNx9sY9hxHI8qaKVDRK4yL/pjg1f3PfC3p76u+vXeki/5ddONP2kiPZbzgfV9hMwlpgmMzIpMvJo4qInPqJC+o2TpzKRMdmDurWOY6emqbdprL4bWbdhK9Qy4yRRONjSvb2iN8nTrGi/jIOWrbdJLslIjk2eAMYypb5vv7Qrj4fkssQ9OTx2fHy7Xqbs98txH7UzJZN2qcqO88hJI9kl38jzHP6eKMtYcD+cHdbja2VnldJGXd6XqG3IOnh1edJfdJRcO+6Sqn4bx0W/jh5nJSM7KJ2TJxetebC+rQCUshmqSuXEhsS+cmDPjYPVKu0N5Wmnq9iCOQ5IjOaUj4so39sD68uOlTsXpXMb6Z6Pj8SuHKs1J25Ft5+61f1x/c3lUvvSth5na49aBxrzoq/pa+ZA5UuZ3F5zI5b1dspFu33U+jSFzkyk6+Q35TFFtdqve93MLZRrbE5afN109pEFisPvjyd7/NkxS5XzmBRhfJzlgArJEDu38koNOSZ0Ob2t9Na25to2ttK73utGe9sr5ma9akgHARAAARBYTWBiwOHP8MO1k/B1+vv2l79WS15Q4vTtfxfUml/lvNqpNJsQRZ8bcCjve6CVEDbgQO+DKAGJSpsqoZ4E6YCDbOtq+nlTee70m6Dv4oRXc1c4aPl6201a3KSxOSlK1e1EKCW6SYtxsiiPJvLiZGo1htujCavTn+XESXHv+fCm3uI45Ds41uEfcaAmK5mew7B/kkl9aa0eqPtf9Kn7n3UR3srhkJb8SoFyt9vLK/ulzSjF72fZemPAIevJ5Us7ubqzxZhO5crdVT3GVp4aE6+D32+uEkiO8t9ttZyrXt8pPTvTpKd2qKt2c095w+sfnWblHNjiIa4YEkdCMhscJSuvfPB1kkPu9c31nMPO6ekYy8dy3BdW1BfhwKticjktNNYRB1rn+O1J8oivOGPedtR+NUa9flOdKghGmmm9aVvz9PulvLDxffP7tR2kEs5+tA3qbWsXzh4UB30OmDIGrIXTwejO/Nvndxm/qQyM3GqnETTgMhOum3NXOFRtS0K0AX3+kRz6teNRcsrYUv3GsV3x9ec7Oq7E3vo62PaVTbJNl2OTj9F0bFIdOWbzrzp/Fd1LfyZvDVafTpaBgiAAAiAAAhWBiQGHqt5GEs4rEHBe7TQhrYiirzPgEB+3KEGIpj4qcVnAoRWIUEJbAYd13KnRE9LBxIk0aU5A/ISJ5HlnYzAxVT0sm06nktGf2MUy7QlZV+88kasdLDuB0xrE7Uqm51BXaaRE54AfbzHM1IQx1Sr6OIdCj0vSgZdgq4mjdZhIoJaht2VZepwYlzajEtTnlY7KgINl5trtrG6gOsWJt1ysvDj27OB4HZxN+n75geE2XeChWYfaGdiQCb75RvS45TzPJGfEjeZxsaIO12wfF5xFMisH3HIWLSzvwbHY1DNKaXKUBnq/XXlqzH0ZtT+9TWIpzp1VhmREO/Rs/H46l5jj2crye55rznd2rPuht2cFHOTxKXN+yC3WG06HuoCcMzYZeBgFHFZcN1sBh0XXTel5tLkSBIjpdjykbGJDrN+/CLdaL6Cs+C47nm37yibVcaC04k1bx+d2rvd1sTplxdysroAUEAABEACBqQQQcJhKap3lBlH0tQYc6CsVb+kdD9OCDvMDDiFQneE7GloBh0Us3YTGTUhoElIcPNsATYwrh9NNmJplWIxrN68wqO/6dCfgHafUallPlJo6kd75bmaaRKpJ+IgDtVfrSP1r3x1n/bg9z68w4faUk2J11rKjrvnOIctNTpIaC6pfxtHW4bZy34sOpKfuN22X8aZyzhnr9qnNwTKz7facc8OBbFXpYOSxLsmWFAcZq9IPNRnngWn/Z/tuueQauk1ZTaBsKN5Rru1b6hv9OTGOU9FVSsbfujylj+toCe36ySlSttcbC20b0m62w9xQw05MnrONpg3lCvaRIZ1M25q/3uaAmrJ/k+eFqH2yL80hZ9njhzjKGDETZZN9LlEY1fWrKFhGq13SW6Vrm9RjYXVwx5U+vyt5rIe2VVKPOZW+RY1JnhuzzEVvuHZVltZbJc/Y7AUcJlw3WwGHGS33ivpjSY+HrUO28zO/u+YRP2Jpc1vHmrYvV9rsah0sY2pTztWD43HFcTFVD6PUhNWnpjx2QAAEQAAEZhFAwGEWrnUWtl+poEBDfARCXhApn7WkdzOUNC5z9Vmgj1fa4ET9SEX+LGb65Gbe73RjScAhBL881L1Z+5wCDvaZa5m0pI6mCWlcfqmcO7pDKn9qEhsnwiVPJumCLeY7h0xNiqVc/tWT55xYJspZBzVJ52ItvVPQINZJLzNUuvc40CQst8N9VoxMO26SnvIsAztJj7KFR5zoS1umXq8dSs99j05SdqDYWY+6x5eLtdvJ5SX4IOP692/lXDb7VI+H1NMTZLvKohXASQOs+8ovJy287ViUdHGchF0JvNQrWYoZWd7eKVxtDy0biv0SPWQMrd40Jkp3cZYTd6nTckx6ups6avz02HodZIxIph2n0ork+f6Ikx3TdV/6tpClNm0o2S7rbuXZc4rYcJRW+vRzeOndjEUTAAAgAElEQVTOFbZeseVSx92h13bnbV/lXXv8u3LuVq9uiO1ZvT3XPE7UTj6e/YoSZa/muLDnlP67LNz5gZRojkVJl3EXW/FMs905G66PpTz6Ezf6AYf+dZPqlMcT+SXNs77y5FRTY84c1LjEkmo8zPGcgpW+vJdHtp6vP1qWsktfR8mksSj8dcAh2aQ6D5RySTeVJ2PLfTLt1TbrCIXAN4DqL4ZV5ZAAAiAAAiCwmAACDovRoeKFJkCTEjXxOWtf+s6Om0SdtSHUTwScg6K42Emsylj35kIb6tpKV97FtaFuX7dkLNatBuSBwJdC4NyO3S8FGPoBAiAAAiDQJYCAQxcNMr5oAl3n7ovu9RfUuS0IOCyk2Z3IwyYXEkU1EACBdRGg8xOthtArCtYlG3JAAARAAAR2kwACDrs57ug1CIAACIAACIAACIAACIAACIAACGyUAAIOG8UL4SAAAiAAAiAAAiAAAiAAAiAAAiCwmwQQcNjNcUevQQAEQAAEQAAEQAAEQAAEQAAEQGCjBBBw2CjeNQrnL03cC6drFAlRu0YgvkXcvNF71xCgv2ckABs6I0BUBwEQAAEQAAEQAIGdIoCAw7YMd/p0JX328v7DD7VWMwMOpzfls5q1qF6K/Sxmr9T89D/ulM98HT6hD3qO/hWHhl9eZT651f/E1ejLBN2X9I3UOFNe/4WG488E2kaX6D3iIJ9IPHvAYdA/24Vpe1/IyxLH7KehmFRqBq9FOg3ll+Nzkq6m0Jrtxsi2O6Xf6TOK6hN69EI8fQxQWfl0on5Rnrw8L+b1zz2l5YX9I96in/lyTmQtutnPkMZWRffcn9HYqU/Mjhi02il9nLA10mFC9arIuuVVDUxLyNcj5jjFHqbJtaX0Z6bdJ6ZtQbvHNkSfYo32ru3YFrR75Tix6f09ZZPGVvs1Rjnz2x9Ji3m96+b5jN9q/VACBEAABHaRAAIOn23UX4eDvfrbzx8f3mgHHGbquTUBh/eH4XDWd8RpQhO/YZ8nCNz38WR+NHHpTUBmIp1cfF26LNF71PbkDqwsOB6LldV9gS1xKLxa8/bXzGTQ+By7WGQPGxqPRboMOPSzRmNhPzFKOn2Vg5pKIjmVyqGapvuoXSXbbFKdeL6jZKvPCnnsZP4cbv39VYFJAQfdbqr7ktL0Nu1T31tMdP3R9rrtZ93yRroP8ui4Y0d+owEHUeC38OvluQEHCoJsOuCQ9FvTmEw7roTJtN/e+bE7fu+Own5jLjatNZQCARAAARCYQgABhymU1l2GL3B74eBNLbgOOHwIz69eCbTy4fYl+0gFlT18+Czc57wr4fbNkyxQBxyo3O1LN8Lztzm7uRFXOByGXy+nFQl3fkvl6K7Ld+H4yY/hQcrTKxWGKxhe/RgeZDnNZl1imYDbyUicfD/KdyPTJJ0ny/EzXtWdQJ4Y+rx0Z4rq3XkRHl2XfH3Hyt0VdZNvdgr+ocvrLgychMYkLcpyOoz0DiHQxKn0VfVH7pLmX+fIpPTsnGS1Secis87PBdOG7mNilZ0zy87eaeu0Y7ikMsLcsSi6/R5uXX8RHmUWtq+3Hqu7xiLLd6Pab+v38s5P4dHjnzNz26coxNqqOHGFqa7TlTe0yaSsYZXSDKMJx0XPhpKzUmwr6i+6a1st4yAQR+NOZbTNrK6j2/rKHGt2jEQ3kUi/1VjoTGKV7aGlUypMnHMgIPat7rMWTNtRXnWOkmJmnNJxa/SRY1vOLQP90liRTsbBSvZRjguRJUqkX2o3H7ORqfQvO2auSmvXjJPIG+hgx4a4ynHbP57tqrCoaxnDllaSlspW5z1rq0aWGSPRLcrLXFrHoDRpfmPQ4PjJd/m6+eurUmB43QxLAw7OHiSIlc/vq68XPKb5GJFzmbOjJgPLVeyJemzsRB3P0R5elOtP1a6cQ137epzE7nSa72865/H5oqX7m4Owh6BDMU5sgQAIgMCaCSDgsGagK8VxsGE/HL1rl6wDDlLuJBw2Ag4lCEH5JaiQAw4zHsWggMODy9+F4/fUJk14ZDst88yBgzIZso9hxHI8qaKVDRK4yL/pjg1f3PfC3p76u/taOtr5tRNNPymKE5c2VDMhF+k06fh7UiKTIiOPJi564iN10i+XVZMmkz2oW+tIfXITKSWsqbfK503XXt2GrVDLnOpMaTlFb5KnWdF+cQK1bL1NskiGco550hjLlPq6TakjvKI95LLEIU087fj4dr1M2e+X4z7KpJbtRnTQda1zIjnxl2SXfCPPc+jZZBJYj6+Vbdtd4XxLYWdD1sGTQuWX9JfjRlLtuEuq+vVtaAdAFYubxb58Vt1/X2LEw+Ulx6M452WMih7k8Ph036bs922yWkWQqpT+kG507JDzJfYV5eUAkDonsY2nfTMeo/Oacfx8n2L71JYfW+ld9auOOZOXdJBjU9tG6S/V0ONh2en+FXsURu3zvNFBBWRs+mgFh9anqrUgga6T34QcnFer/brXzdxKucbmpMXXTbGnLClv2PGQZHv8NcukY0c//GnsUJ/XUiCOV9NIE+mXxzkfX9Su2KXVgVfd6HOwbItNq2PD6uEaHO2umJuNqiIPBEAABEBgTGBiwOHP8MO1k/B1+vv2l7/GUhfmnr7978Ka86qdVzuVVhOi6HMDDuV9D7QSwgYcWqsiKp1UQj0J0gEH2VYVgn7etLynQd/FCa/mrnDQ8vV2YwKiJhnNSVGq3pyA+AmT3k8TZnFgtRbj7dGE1enPguIEuufQNPWWCVa+g2Md/hEHarKSqfs97pzKpb6kO09qDKwDEYsXfer+Z12E9z90sCI1p/Ki4yWTZy+v7Jc2vQ6qC35zwCHryXVKO1lEw5mW92VkZzFPpOsxyPK9Dn6/M3Gn+j1H0bMQnSm96GZtqDh4Utr+Zn1zcoNJzqON1nExqjM4Log12Z6xO9VYcyxSvneQk6zsYJt80i8538kGcznVnN30fSr7o3G49vh3DjZE+aWOlR2ZsBPP+shx4OzJ24zfF6EsQ5w7JZttrHEcSj31W9tBynRt6r7rbWsXrt96HFnXaOMSxFBqtDedDqaQyFNOq+SPjiUpM/23ETTgyhOum3NXOHSVGhxL6VrSYlrGluoXW8vNVHxp/NI1If9a+2pd57r2kI5Nc45K40V1TLo7HxTds7bTNwarT6cLQUkQAAEQAAFPYGLAwVfbzP55BQLOq50mpRVR9HUGHOLjFiUI0dRHJS4LOLQCEUpoK+Cwjjs1ekI6mDiRJs0JiJ8wGWcj6T+YmKoelk2nU8lYdae5PSns6q2cV/+8tZ3AaQ3idiXTc6irNFKic8BLx82knfohk8xYrejjHAo9LkkHvtNsHMnIpUyItQy9bZf9ljZLn4uMRncoacDBMnPtNp3paHPFKbZcrLzYR3Y2vQ7OJn2/fE9ILk3EtWPcrEPtDGxoxILatPpTimfiNGseFyvqsIjIpuWosN07R8M6sE6H1h1vz1v1g7iV8Ut3xY2te/m07/qk5DfHgaoQGz1mPDYNB0+d41g36rv/o2NHtckaNtlTjrI7Z2csI6+yYCnN/2o7SMWcDrrvetuOl2On9U7y6vNDU62Y6HRolqQyxLAxrq1jqSljmDgKOKy4brYCDouum6Jg+1iy4yFl0/kw2dOtx40VJRVfN35KVNmsdbDtU366fujxLwJ4y9Zxmc3zU12mmbJibtasg0QQAAEQAIFJBBBwmIRpzYUGUfS1BhyOQwhv6R0P04IO8wMOIVCd4TsaWgGHRTjdhMZNSGgSYhwE1QZNHiuH002YmmVYhms3rzConYLuBLzjlCoVedPXb+rEk2RpO03glJM+4kCN+DbkTrx2Uo1eaVJu+RUm3J6asFudqZw4wFHX3A7LTZNLNRZUv4yjrcNtZUeo6ED66n7TdtGXytkgSHSovE1oXQ0Bx8y2Wzl4qarhQLaqdDBjoMdTcSAxRsZEG7J9t1xyr3SbyfEszG3wJtdRG0Z/To/jVJirwk2bo/xxHS2hbi/lOl69seDSNAbKTqMEZxu6jN529sV1mWHLhuTYdOzZBkpe6kEVpKC+mrHIBSfap2NibSgLsy+KNPbQDq6wXvnYi3L4mKuY1sE7bZNcJ52veDsfF+64Il5yXlN9avLpjoWce1S/q03XrsrXeqvkGZu9gMOE62Yr4DCj5V5R4pfPwS27zhXp+PyZ313ziB+xzBlxQ42J5HRtTQqkX62DZUxtyrnaHZtahrdXnVedN11mb3fC6tNeVaSDAAiAAAisJoCAw2pGGyphv1JBgYb4CIS8IFI+a0nvZihpXObqs0Afl7TBifqRikMKONC/9MnNvJ+S/c+SgEOoHqtwb9Z+dT6PVIjjHO/6yaQl9TBNSGNemvSbNDvJjxPhcgfRO1Ix3zkPjQlY5qsnzzlRHLvSTuUQGR1Lezzp5rub6WWGMjFn2dEx8RxKHWlPMTLt2Alp3zn3+si+bt85ZL12DLvoiGYW7KhFnYfPtyvHx4+fnmAzoqSHH1fpq9w5lnp6guzvYts8Nbi6r/xy0sLbjkVJ9+1nh4vE9mwoLYEXne0LFqmiHo/SVtGhZUNphUa6gy6cSp2GDZl21LibsVV8eFPr5uqktrlfamy9DjJGJI7y9H5pLdpUM0+Pk3OoTVtKB5bbtCHbn2zDSRFrl3K8lFUOvq/eHpr6+36b/ozOa6p9cTwzc5snbGvbsnaS++vGnPotNmTs0RwXxE61q+3dyHPnB1KuORYlXY4N4WfHQdmds+FWf9NQTvzpBxz6102qUx5P5Jc0z/rKk1PN24O3Y9Pncn4gKczJl/fyyGby9adj/76OkmltQwcc3HHhHrfzYyhjy7037SmbcmjyLt8Aqr8YlvOxAQIgAAIgcGYCCDicGSEEXEgCNClRE5+z9mHs7NiJ3FnbQn0i4BwUBcVOYlXGujcX2lDXVrry3ER83f3YoLxuX9fdZpfduhuCPBDYDQLnduzuBk70EgRAAAR2mgACDjs9/DvceTgoF3zwtyDgsJBgdyIPm1xIFNVAAATWRYDOT7QqpKxKWZdkyAEBEAABENhVAgg47OrIo98gAAIgAAIgAAIgAAIgAAIgAAIgsEECCDhsEC5EgwAIgAAIgAAIgAAIgAAIgAAIgMCuEkDAYVdHHv0GARAAARAAARAAARAAARAAARAAgQ0SQMBhg3DXKpq/NHEvnK5VKITtFoH4FnHzRu/dAoDenpkAbOjMCCEABEAABEAABEAABHaIAAIO2zLY6dOV9NnL+w8/1FrNDDic3pTPataiein2s5i9UvPT/7hTPvN1+IQ+6Dn6VxwafnmV+eRW/xNXoy8TdF/SN1LjTHn9FxryJ9wmfh1jid4jDvJJurMHHAb9W8LtC3lZ4pj9EjCdOjN4LdJpKL8cnx3tBslrtptBS6bf6tOq5tOTPp0+8ZePzdhP+aTiV/+Y86UZXbfUk5fxkcxpx6CWoz8/SB1Pn4fkT1mWNiiH+p71zudPgaVl+vOpyPTpUnfi79B+JsrQxdYtT8uesZ2vR2w3Z2TUbfdjOL4u10v3ieluHfkEKNlBHMOpL3w0x8lIfs5T9pOPlZw5e2N++6ub6F03z2f8VuuHEiAAAiCwiwQQcPhso/46HOzV337++PBGO+AwU8+tCTi8PwyHs74jThOaOIHOEwTuO6X3J3mjiUtvAjIT6eTi69Jlid6jtid3YGXB8VisrO4LbIlD4dWat79mJoPG59jFInvY0Hgs0mXAoZ/lxoIcxMrxbtQ25ZyMRvFeUquflFZ0INk2SNCTVdKjIymBCrKB7FTSeMm5kfqgHEFrK+N2o44/D8+zRZ/B1rrtZ93yBqqPsjLzjQYcRIPfwq+X5wYc6Pq46YBD0m9NY9I6VoTA0l9r80VKd/zeHYX9xlys1MQWCIAACIDAWQkg4HBWgkvq8wVuLxy8qSvXAYcP4fnVK4FWPty+ZB+poLKHD5+F+5x3Jdy+eZIF6oADlbt96UZ4/jZnNzfiCofD8OvldIflzm+pHN11+S4cP/kxPEh5eqXCcAXDqx/Dgyyn2axLLJNiOxmJDsCjfPcuTdh5sh0/45Xv6slknieGPi8FLajenRfh0XXJ18EMudOX8pyzwhNzmeA77eMqAi1LFWhM0qIsp8NI7xACTZxKX1V/+G6nzitOjW5HnJaiGbEt9er8UjJuxbF4yTuJVXZyLLvsFHHZTjuGSyojzB2Lotvv4db1F+FRZmH7eusxOWGpTyLLd6Pab+v38s5P4dHjnzNz26coxNqq3HEsTHWdrryhTSZlDauUZhhNOC56NmTumte6j21oNO6kp7aZpLdrTzPSbX1ljjU7RrqOSK3GgvistAHSv9hQW19pYfxbOzxONo2h+ezgKnbUHvVb9HMs0/jTsTHqe5Wnu8E60bnEydZlGttmnOQckGy0HJvlfGh10Fz6x7NdFZbGf+V4CrNix+XcYXkb22gdS6nf2WFtHYMNNiHEoMHxk+/ydfPXV6Xg8LqZ6v5Rio+38vjF60Ppq1vxIscSly9s4vUk2hePqearZGclmgws15U6pNU41x6/KNefql3RsdgQ66DHSexOp8m5X/qbznl8vmjp/uYg7CHokIcXGyAAAiCwbgIIOKyb6Cp5HGzYD0fv2gXrgIOUOwmHjYBDCUJQfgkq5IDDjEcxKODw4PJ34fg9tUmTJdlOyzxz4KDcfbGPYcRyPKmilQ0SuMi/6Y4NX9z3wt6e+rv7Wjra+bUTTT8pshNZK6J2AIpDKJMiI48mLnriY8WlJctuAiRlBnVrHceT+6be0o78uvbqNqRg/K1lxkmicLCle3tFb5KnWdF+cQK1bL1NckmGco550hjLlPq+/dJurK/aIg5p4sljmSeavl0vU/b75biPMqltTb7ZcRZnUOTpX5Jd8o08z+HvibKMhbHJJK4eXytbt0rbdXlfIoTgbMg6eHV50l90lFw77pKqfn0b2gFQxeKmHmebubo/DR7UdnZAat25hUo/0kGcHWvjVqOyx+Ol69A2n0dUf1iXnwMFTsXOh+zY3qIeUl6PD7eZAm80Jryfz13RpuX45HFrBuJiuTimStfStfYW9UWOC10i6Sz66v7Z8dNjFXlLHdOP7CBGPaWMbrLe1n1yudVYS77WR9LO8kvXyW9CDs6r1X7d62Zurlxjc9Li62bnWtU9P1gbsGOWtMljkrXjQHg5L5AMOedZeaWGBEN0Ob2t9Na25to2tpLOK0UP3dqK7RVzsxW1kQ0CIAACIDAgMDHg8Gf44dpJ+Dr9ffvLXwORy7NO3/53eeUZNc+rnUqlCVH0uQGH8r4HWglhAw6tVRGVTiqhngTpgINsqwpBP28qz51+E/RdnPBq7goHLV9vu0mLmzQ2J0WpOk+01Z0lTnaTFj2J521yFlqTaa1StT2asDr9uW6cFPeeD2/q7Z/Rzk5NVGbEgUpUMj2Hqk+tBOpLcsayc0Pl6v4Xfer+Z11IhySvciZUXnQaZRLq5ZX90mbU3e+3emTG3xXIenJ6aScXc7YY06mccljz5Lsegyzfj4Xf79x9pvrEpjXJ7vWd0rUTLk4p6161m3vKG1nfnNxgkvNoo7aL8QqCwXFBrImrsTvVWHMsVD7bkzg1kh7ba/GLJWJ+ZZtS3f12+ZBuKigW5a1iJ8KVDml8XqrHNEqbwo5sIq3MYVYpPZ/T4j71mW0h85yqT23Hoqk/lrQN6m1rF65dPY48ZtHGp46B1yHrRhsiL7MouaNjqZSautUIGnDVCdfNuSscuiqJPXibjxXseBQh1p7knFvya740fvp8l+yPb170dbDtU7mkpxznWqY6dsy5y50Piu5K36mbg9WnU0WgHAiAAAiAQE1gYsChrriJlPMKBJxXO01GK6Lo6ww4xMctShCiqY9KXBZwaAUilNBWwGEdd2r0hLR7pybq0ZyApEl7fj2ncgay9oOJaS6jN5xOOstOrHQObbcnZF29lfPq706P22k4CZ6DV625H50DfrzFTNrVhDHVK/o4h0IHP5IOvAQ7Oz6FS3EytAy9LU5EnBiXNqMSxLHIaHYoOiGmL6WcHQfXbtOZjpyLU2y5WHlx7NnZ9WPhbNL3q2hY+ukDD806bNfKAfF26/VwDVn9KdMzcRW8fM5eUYfLtI8LziKZztGwDqzTIe/asciyOmMv1ZocJdP91nxSP1QbVGZewEEHBoidDrooG3K6aL29XjHv/6nHyqzD2A/AxEa8vNy0sx+tg9624+XsQdtMklefH3KL9YbToS4g54x2YJn65o+lpoxh4ijgsOK62Qo4LLpuioLtY8mOh5RNbOhc/P5FuPW4sRyz4uvGT4kqm7UOtn3KVwEHcy0oUmydki5bXbuUAr3fFXOzXjWkgwAIgAAIrCaAgMNqRusvMYiirzXgcBxCeEvveJgWdJgfcAiB6gzf0dAKOCwi6iY0ekIqd/07ExSagFQOp5swNcuwnq5daSsv2S+d6U901ESqFK+2fP2mTqR3bjtN4FS/aTJWHN2qiXqFAzuL7bvjXJvb8/wKE26v6UhRbSonsqOu2YlhuWlyqcaC+lz0t3W4rdz3ogO1pPtN22W8qZxyrqlwt0+iK/c8/2fHxbZb3+mL1czYsXNcdDDyWJd0B1FxIClGRiewkZVMG7bvlksuq9uUYJeyocgn6ZQrlQ2jPyfHcSrMS1naqstT6riOltCun8ZR2V5vLLQsDtBlGyp6ZLs0hWVH23FKa9pQzGvpa8aF64o9TOVgjwXTBttXY7zMOHtbsPKkp73gEbVn36WR5Gn+IoTaVem677Qtxzdv52PTHVf6/K7ksR7aVqlN7mfrHNU+nkXN+OvaVZlab5U8Y7MXcJhw3WwFHGa03Ctq7MadN20dsg969Ofn8IhXKdjc1rFGsnvnAF1b62AZU5tyXNC4yLauLePdsPdUbKoeRuqE1aemPHZAAARAAARmEUDAYRaudRa2X6mgQEN8BEJeECmftaR3M5Q0LnP1WaCPS9rgRP1IxSEFHOhf+uRm3k/J/mdJwCFUj1W4N2u/Op9HKsS5jUst3UQlTUhjXpqomDTt5KaJNN1BTH9+EhUnym7CoybFnqtfhZDzvQ5qks5lTH5pjyZUuZ/0MkMzAY/OUc5Pk8VSR9WViaRpx03SU55lYCfpUbbop9t3E9BeO5Se+x4dIVl6Hh3EqHN8uVi7nVxeJtFq/CpnstknmcgKn8KB+ldk1H0veXlksxPE48AvJy02aceipIvjJHZnxlU7YKoZa/eku/CRQno8SltFB73sXuqkFRrO/ksdYVTkeT2yvZixLfLjltZN2YqzEz22XgfNnvL0vrQWj1fR2fEhrtn2pEbfFnKJng2tCLDI2Fo9p3Ho1+mNg+tr0k10yGOUO0Ub1r4lK3Ify8sc3Zhbp1L11RwXrl1t70aeOz+Qgr2xSOnSX+Fn7UHZXQqQSvn6WBIaU3/7AYf+dZPqlMcT+SXNs77y5HRzDPIY5WJqPJyDz5z8seHl0TkiX3+0LLVyxNdRMq1t6IBDereMOo9re/VjKGPL3TLt1Tabuy4bfAOo/mKYZOMXBEAABEDg7AQQcDg7Q0i4iARoUqImPmftQs/ZscuGz9oK6hcCzkEpGdNelKjKL95caENdW+nKcxPxxQqff8VuX9etSpfduhuCPBDYDQLnduzuBk70EgRAAAR2mgACDjs9/DvceTgoF3zwtyDgsJBgdyIPm1xIFNVAAATWRYDOT7TKQ68oWJdsyAEBEAABENhNAgg47Oa4o9cgAAIgAAIgAAIgAAIgAAIgAAIgsFECCDhsFC+EgwAIgAAIgAAIgAAIgAAIgAAIgMBuEkDAYTfHHb0GARAAARAAARAAARAAARAAARAAgY0SQMBho3ghHARAAARAAARAAARAAARAAARAAAR2kwACDhdl3PnTlvfC6UXRF3puIYH42TLzCbEt1BIqbTMB2NA2jw50AwEQAAEQAAEQAIFtI4CAw7aMCAcUroTbl66E+w8/1FrNDDic3rwSDo9rMaOU/zz5Lhw++Tgqsijvjzvlu+Kr5ReHht+Wbb7x3f+mtv2et1Wz+1UAW2yNe/0vKPA34yd+jnOJ3iMOIX1n/uwBh0H/llD8Qr7OMGa/BEynzgxei3Qayi/HZ0e7QfKa7WbQku03fVY0vnmf3r5v7P/Vz/xGfkr/yh2XJIPTKS+fhwaNpixdr7zpP3JryiPe1EZDh35rWt5P4dH7fsmSM+CwSIci2WwN7ceUnLazbnnTWq1K5esR20z/WlRVnJXwMRxfl+vlj+GPqXV5/MgO4hgXuxsLsMfJuGzMVXbnjpcptX2Z+e17CfV+77p5PuNX64MUEAABEACBEBBw+GxW8Doc7B2E1679jw9vtAMOrtyq3a0JOLw/DIfXD8N/Vimc82lCEyfQeYLAeZTen+SNJi69CUhucs0b69Jlid6jttfXzfFYzG5nSxyK2XqbCmtmYmTbnTl2scgeNjQei3SxXZ+4Z8eCeBUHTOeRcybnFO+o/R5uZYeK6rhARUcT6mMrOGF1oLYkSECyZTuEXn3fHJWTwAnXybr6kmr/1c+Fg3Gal+mgJNvNddvPuuVZbSfv5TE07CZXn1nwt/Dr5bkBB7Jlb8fjZsl2yrExLmty1zQmi9s3ytid3vmxO37vjsJ+Yy5mpWIPBEAABEDgLAQQcDgLvaV1+QK3Fw7e1ALqgMOH8PxqXPlw+5J9pILKHj58Fu5fSvk3T7JAHXCgcrcv3QjP3+bs5kZc4XAYfr2c7rDc+S2Vo7su34XjJz+GBylPr1QYrmB49WN4kOU0m3WJZfJrJyOU/nN4lO86pkk6TXzk7mD+TXn67mXOSw4G1bvzQt35FMeD1ImTtubdyJCcgm7wI+r50vWKdxuTNHYWvG4jvUMINHHKuokeIw5Z51hPHJWiIulcZNb5pWTc0n1MrLLDY9nZyWynHcMllZE7yo5F0S06hI8yC+u03Xqs7EJk+W5U+239XqmRs1cAACAASURBVN75KTx6XO6E2z5FIdZWQ+CVLIqprtOVN7TJpKxhldIMownHRc+GvN0n/UV3batlHATiaNypjLaZ1XV0W1+JjXM1O0aim0ikXzsWpFexDcrvOSS2npbYr2NLtfoYS3B/5BjhYzWdb2jslH3GY1vORZapX4GR2zY2MbGOHo+hDrmV5oYZJ92/6y9COTalP6Ox6R/PdlVYGn/FrKkYJ1pbKTbrGGlZrWMpNZAdVsO733oIMWhw/OS7fN389VUpP7xuprrzVjhEzt6+zRjJscQ2WM758XoSjxMur5loexX1mwws18JbrpnSnreHF+X6U7Vb12EV9DiJ3em0fO4tbQ3H781B2EPQQUYXvyAAAiCwdgIIOKwd6QqBHGzYD0fv2uXqgIOUOwmHjYBDCUJQfgkq5IDDjEcxKODw4PJ34ZiX59JkSbbTMs8cOCh3X+xjGLEcT6poZYMELvJvumPDF/e9sLen/u76tR7Sb/m1E00/KaL9lvNBtf0EjCWmCZdMiow8NwEXDeSXy8rETRLld1C31rHvoJC4pt7Sjvy69uo2pGD8rWXGSaJwsKV7e0VvkucdpjIOWrbeJrkkQznHPGmMZUp9335pVx4PyWWJQ5p42vHx7XqZst8vx32USW1r8s2OunVqRWr8Jdkl38jzHP6eKMtYcD/0BLxypkm6lW3b9Q6ez037zoasg1fXqW0o2moei7pKCL6NZN/tOnqcrbBV9l3zcOPqjvsi3ZUrGdZWTbrbSU5YcbTLmHNJYkCOkNiSGc/Y/rXH5HwVJ0m30Ot7y06kXq8Oj4c6XuI4rNZB5Ob+qL7kvMRYxpbsRbatPtSeMKIxt+XyeSVx/ZACYiIrt9fcGIxnwxajCK1PU+jMRLpOflMeU1Sr/brXzdxCucbmpMXXzbY9kVw7HtKSPf6aZfKYSB1/vSIZemzbOpDsr0y5Th0aM7E11zbLUOfJ1vmpaDnYWjE3G9REFgiAAAiAwAoCEwMOf4Yfrp2Er9Pft7/8tULssuzTt/9dVnFmrfNqp1JrQhR9bsChvO+BVkLYgAO9D6IEJCptqoR6EqQDDrKtq+nnTeW502+CvosTXs1d4aDl6207CfIOTHNSlKo3JyBu0mKcLMpzjoHWpL89mrA6/VlInBSXCZeV3NQ7TRLLCgfr8I84kPRKpudgVejsUV/SnSc10audPT2hrfufdRHeyuHIDau82GeZuHp5Zd8z8PtZtt4YcMh6cvnSTq7edGConNydo1+ZSNdjkOV7Hfy+viudG4/yiI0EKlRWx6HwdxytDZljQQtL21nfnNdgkvNoo3VcjOoMjgtx2o3dqcZaY6FtKN1596yoT9nBVeKi7sURNll+J+mWZdO+OEmcF22X7FFWbUTb/J1XWsV6lgvrpeyocraVXFFnZR3mUexxlQ4i1//WdpBKOLvVx5/etnZh+23O72r8qv57pWTf6SDJ/CvyZGxUprDLY6jy5m82ggYsZMJ1c+4Kh65yg2OpG3DQ5yiqL+dc1UjFl8ZPn+/0Oa+vQ9ce0rFkrnNpvKiOSad21fmga5dK/e7mYPVptw4yQAAEQAAEVhKYGHBYKWctBc4rEHBe7TShrIiirzPgEB+3KEGIpj4qcVnAoRWIUEJbAYd13KmhCYmaZNiJi2q/5WRTtp8wkTw/AR1MTG0Lac/ppMuM9BOnRjulVLc5cWKdirNgJuaDCaToUsn0HKTg8Dc6B/x4i2FGE0ulm9HHORS6f0kHvjOsxlS4FCdDy9Db8ghDcehKnchR7ze7NuBgmbl2m850CgLkvlguVl6cjLOD43VwNjm2odSmCzw061A7KgDibag6Nhwwqz9leiauQvO4WFGHRfQdFdbZORrWgXU65F07FpRM/amOfd1+HscspL3hxy9zUWOcalKbbJPERo8Zj01y8DivOHvVWHK+Pd4il0Edlu+CUyMd2j3l1NoOUmHHQeutt+14OXsgnYR7klefHwbKOR2aJROL1tizTehxaQpYlTgKOKy4brYCDouum6Jj+1iy4yFl0/mU+L9/EW49bizHrPi68VOiymatg21fHZt6/IsA3rJ1XKa+rtRZ45QVc7NxZeSCAAiAAAiMCCDgMKKzqbxBFH2tAQf6SsVbesfDtKDD/IBDCFRn+I6GV+e3wiFPUN245cm9TncTpmYZLl9PpGjCI3cotcjuBLzjlOq6tO3rN3XiSbI4FGkCJxNzWf2g9le1IY8mdO/opUm5ddgLE2ahgg5WZyonzk3UNbfDcpOzpMaC6pdxtHUs96ID9ZHzUr9pu+hL5ZxT1u2T6Gqp2XGx7facc8PBOYZGHuuSxlNxEHso/VCTcaue2bN9t1xyQd1mWqZemNvgTa6jNoz+nB7HqeiqCjfsOuaO62gJdXsp1/HqjYWWpe2E0nlf2a8uS+0aLjqTGfqVD87WaNyTbJJV+Gi7tvZk2lT15TjNMrh9Z9ek36gOB0BaNj7QIfWZ9XKPenTZuXHRNqn583Y+Nq0OJgim5Bk+Mh7dsWj1VSrJr2tXkk2wVCXO2uwFHCZcN1sBh1lttwsTv3wOFvtvXi/IRumdST+3v4CixkRaItnZPiWx8at10LZRB6Aa9k3yeLzlGlg3MFUPU3PC6lNTHjsgAAIgAAKzCCDgMAvXOgvbr1RQoCE+AiEviJTPWtK7GUoal7n6LNDHK21won6kIn8WM31yM+93urEk4BCCXx7q3qx9TgEHmZDHpZZuopImpDFPOXd0h1T+1KQrToRLnp9ExXw34WlMwDJmcgKU/Jxu9GrcZTX5pT2aUOV+0ssMjWyaQKv89Lm8UqfOixM4SbcTUsmzDOwkPcoW/XT7bgJq+qPaMeyiMyaOWr6TzY9b6OfbbTu5vEyiMwPVjoBPetg+yUS25kD9K5P0uu8lTxpwsvjlpMUm7ViUdGHdsknjgKlmrN2T7jIOUkhzKm0VHdILMY0NldUSpItwKnWEUZHn9ZA63KeOQz+so8ZPj63XQbOnPL0vBLQNmWPF2WPknvjRMat1oG3dj0k2pMdCj0NhyjrqtnQbEgxiPeILcyPXdIw4/WLfdZ6uY8dU+pbHqatDpBi56/7o9GQPors5nmNQJ7eTgh7cvjku7HFl7N3Ic+cHUmPSWBTb6J/f7RjVx1Ls8/T/+wGH/nWT6pTHE/klzbO+8uS0S2xkvI0Nc1HdZ308d4JxXh7ZYD53aFnqePF1xE6qoA6NrdJB26Q6D5HafgzNcW/aq23WEQqBbwDVXwyryiEBBEAABEBgMQEEHBajQ8ULTYAmJWric9a+dJ2diasbztr+7tV3DooCQJPR4uCojHVvLrShrq105bmJ+Lr7sUF53b6uu80uu3U3BHkgsBsEzu3Y3Q2c6CUIgAAI7DQBBBx2evh3uPNwUC744G9BwGEhwe5EHja5kCiqgQAIrIsAnZ9oRcS5BG3XpTTkgAAIgAAIbDUBBBy2enigHAiAAAiAAAiAAAiAAAiAAAiAAAhcTAIIOFzMcYPWIAACIAACIAACIAACIAACIAACILDVBBBw2OrhgXIgAAIgAAIgAAIgAAIgAAIgAAIgcDEJIOBwUcaNvzRxL5xeFH2h5xYSiG8RN2/03kItodI2E7ioNhS/boDn0rfZtqAbCIAACIAACIDAl0gAAYdtGdX06Ur67OX9hx9qrWYGHE5vymc1a1G9FPtZzF6p+el/3Cmf+Tp8Qh/0HP0rDg2/vMp8cqv/iavRlwm6L+kbqXGmvP4LDcefCbSNLtF7xEE+Q3j2gMOgf7YL0/a+kJcljtlPQzGp1Axei3Qayi/H5yRdTaE1242RbXfqfp8t4FDLs+2dfS/q1/wUI41H/gSmOgfqdP/FHZ3nPpVKfcmfSZTzq/4EoZdFnWvKE53pJYPqc4aLYKzZNkjfVj8W6ba8Ur6GMV81dstFNmvStZs/oXn5m/Drq2aRRmI5lrOejVJV0my2sR22uXWMyez2qx5UCb3jm48V0pnt/6w2XjWLBBAAARDYGQIIOHy2oX4dDvbqbz9/fHijHXCYqefWBBzeH4bDWd8Rp8lJvLDbSdB4QtqbMBC2JY77TNym+Lp0WaL3qG2j5Jl2xmMxW/QGJpCzdThzhTUzGegzxy4W2cOGxmORLgMO/az1j8WmdSf5X935OdxywQHqY3O82QHqO7DNOgysxYYCByKrHZhpyaO0vGJkhT79sZKcll6St+B3QzY8V5PMaMMBB9GLgvvzAg6ta61I6/wuZbu0nldjXXKU3N7xHY/L31PATQccPoWj7/fCwRslBJsgAAIgAAJdAgg4dNFsMOPdUdjfa1+s6oDDh/D86pVAKx9uX7KPVFDZw4fPwn3OuxJu3zzJSuuAA5W7felGeP42Zzc34gqHw/Dr5bQi4c5vqdzHcHz9u3D85Md8F0WvVBiuYHj1Y3iQ5TSbdYk08YwXdjsJiBPSR/nuXLr40+Qj3/2Ln/PKd9v0XbtcJk2sqd6dF+HRdakjE25SR9+5+2f4Su4CJk15EtJwDGL2YOLcmChFWU6Hkd7JAcl3KEWPEYcQgm6nXuFAOosO/wx1vhuioPuYWOU7V5ZddkhYRKcdwyWVEeaORdHt93Dr+ovwKH3CLY956uutx8ouRJbvRrXf1u/lnZ/Co8c/57vCtk9RiLVVf0dYOWY8fh15Q5tMyhpWKc0wmnBc9GzI232yCenv2IZG4056aptJerv2pB3K1W3Zu/52jHQdkVqNheJjy/dtiGWpevYzgbav2Sa5fHFKYh/0eUU0dL987FK5HqMiU2q2AgCSF89fdR3Ob9lPqchbFT8eJy/P6ZpYZRZOptk1XIVPlFed36mi01nr1z02TZ1kM5POA3Zstb3E8ZTzpOhNCib57nihnBxwMPoYGm5nfK0Nr8o1+EEjkL804KCZskJmjGTsLRu5BjEj6p9ci1hALGvsocOAGBlZQqSpQ7GHcu7XY2F1NO1reXK9Yr1L+1EP6W86D7HdOHtnHemmUXseJ13ALwiAAAiAQCSAgMN5WwIHG/bD0bt2w3XAQcqdhMNGwKEEISi/BBVywGHGoxhxWeZ34fg9tflb+PWybNMk6BsVOKC8H8MfIQT7GEYsx3dYaGWDBC7yb6wT3hyEvb09+3f3tXS082snjTz5UxPIasKkpDQn52miIRMSI48mJkq2EsWbXNZMrlSJQd1ax9Ykpshq6l2y45Zrr27DVqhlNiaGtkpjr+jNk0XFivbLJF3L1tskkmSkiV2eiMYypb5vurQrk/xcljikSaQdH9+ulyn7/XLcRzNB1RNcqk91yyRVJJZfm2/keQ5/Oy1Nm0zC6vG1skubcasu70uEEJwNeQfP1yD9RUfJs+MuqerXt6GdMVUsbupxtpmr+9PnUdeldoq9Un4+7vn8UMZZ17X9V3ZMquZ+9vtge0T6Ck9bh+1EBQJL0CP1sREE69eJfRXHzjtWRSetT3SYbZ3EKx+zySlLwT9vF0Vu2nJcS37SL51LqrGQ4y8Fo+S45/5Knpad9Yv9kfKlvfYWyWuXtWOja2vb0OnLtvvX2uBWC/L12gXzq4DDomttsi+eBzR6kdnaPGKXx79VppFm2WnbG+hActRxq8fM6ODPrWInEtBU1y2rh+3XeC+udNh/+mlcDLkgAAIgsOMEJgYc/gw/XDsJX6e/b3/5ayPYTt/+dyNyvdDzase3Gx3t+jEKXW5uwKG874FWQtiAQ2tVhG7Lb9fBAx1wkG1dK02OckAhrowwSzrpjoybFGkJ07fdhC9P7KOE0YTBTkJSi37yo/fThEYc2Ok6DiZJPPkpDkyUGSdY+u68bqupt0yWtCMyY+JUydT91o0Pt5XzotpuOd5lXNz4JYeTJ6jCW00ic/MqLzo+wtDLK/ulzSjF72fZemPAwTIr7eTqzhZjOpXTd85KQMLKU0vmvQ5+v2lDxSnMk/2sWHQGWw4UMTGOpB7Hql0lUI9bTm4wyXm00TouRnUGxwWxJq5aX91WcyxigdoOnA6qri9b9v240hiXsaWWaHxJx9Z4aFVpm8ch98Xpw4V77DQDqqd1aNVJLU8Y25ptQ16S81IFabxd+75Kf1v2WK2AUWPhA2BlLNSxw40pfqRfOv7a7bW0U/Wr7DPYZCVrlEDX1Na1Ngb35T0N+dddW6uAw6ipQd7Qhns2pMaMxqiy/6qeMNXnyXLcdHVwcoo90PhZWXJs8nHm8/Jx1z9PDhCprBh02Ft500RVwSYIgAAI7BiBiQGH86FyXoGA82qnSW3NKxxGAYf4uEUJQjT1UYnLAg7tyVEW2wo4LLrr4iaDanJDbZVJR245bzQnwm7Swncm1R0QrkxlaJLi07Nkt+F00rkj/aJD1nZcmpM27Vy4Nsft+Al6WZ7aeE2pVt9tx7Hg5c+GTe2YFH3c+GnHNY0FL5FVk0DhUhwGLUNvyyMMMRhR2oxq0/gXGa4rsuvtQdK1npzm2m0608npzH2xXKw9xkk3j7PXgcZW8fX9UiryZmuC3qzDdq0cVGdD3sFrtWPt0jNxNbx8zl5Rh8uIQ6J0FdEkk47NzJgyLGcpKr81C6eD0tOXLfuujghXv7TM/xb9rXx5n/TPO0nF6Wr3qe5nbVMNZqSjtzGjd+9cV7cnK4wK/9iXVX0uHFXDvOm4qrHwOmsZtt9KRupnfU7x7ep9VV8nm20Zswbfpk2ayhN2xgEH/ShjS1gVcFh0rS2SW+cUPx6lNLGhc/C78OjOi1BdUyrba9lVkSZblQ5OTrGH/viVMiLV/q7Kt6X1HlY4aBrYBgEQAIEeAQQcemQ2mT7rHQ6iSPuRimHA4TiE8Jbe8TAt6DA/4JDuuri7LKIx/7YCDqbA1B03mdAT0upOoZVJE5bK4XSTlmYZFuPalbYaj1SQjPaEe/rEStdv6kR657bT5Fc5XTRxKk6A5UB7tY7Uv57e4sh7foUJt6ecYquzlh11zf3jfqRJuxoLql/0t3W4rdz3ogP1S/ebtst4UznnHHDbrT61OVhmtt3e5NtwYEek6GDk6fFUHGSsSj+m2ZDtu+WSrUG3yU66Zi5jHoM3uY7aMPpzehynoqsq3LQ5yh/X0RLq9lKu49UbC5Hl2QzvqtOYiV0zr2IvZmxFePotdtiwO16h4lib+s62OK897lYH31a7DovzzLTe0l+jE+205ZlxYRu3NkP59v0b6ZGTfAzrhlzf9fld22tjLPI5Ra8AUv1kPdQ5MrZK7fmx2IBN6i5O2u4HHPiRivQoY09UFXDoFZyRXh03ejycHCpL78+59bjxzKgaE6lWjhdJaf8aHZwcnWePCyVroDOVmqqHkhhCwDscLA/sgQAIgECfAAIOfTYbzrFfqYgvdpSXQ8bfQwoYBAo02PTbV58F+rikffyifqQi1g8hpE9u5v1Oz5YEHELwj1Wk9zRIG+cUcMh33GgS2XEw4xLyNCnmCYi6s6gmpDz5YDkx3ztSMd9OrofOjp48Cxf69Tr4Cb/JL+3FiXzqJz3HrXTvcSh1pM/FAfZ6lAl80dEysM5BlC36pYl84mfqmf4o557Sc9/jpD87e+zIyDi8UG/xt+3k8jJ5VONn+qO4G91UerSToh/1r8io+17y1ODqvvLLSQtvOxYl3Y+DGdeeDYkTm/sr4yC6aE6lraJDeoGlsaG0QsONYanTsCGnR2ZrxlZ0kl+tW3HoKw7ZNqxe/rEFO07SRnImMp+oexwzO5bl/QtUN9kh1bv+ItCjA7lPrq/Z9thWFX/eL8zzselYF02dPpzRdvaNfn/raG2wVycdz4onN6FtNXNS/egEHHJ/uI7uZ+xRtBctJ6bb86vku747ey+293OglVUyFnbMlQxjd+6cwmpQWR9woIyUnjhIO0ttMvZ4zv+DgEN6Z1J+nEJ9ApMCDTr9QX7/0py2paxlUAWNUhBRzpOZEVVnW3K20LKvfAyo44yZa3uQ8wz9Snptw2RPRQenu7J1a3f+mNH1nP6CxfziKxUGB3ZAAARAYAUBBBxWAEL2F0rATEjP3kc78dXyBpN/XQzbMwnQBFFNQlVtOwFVGeveXGhDXVvpyru4NtTt65aMxbrVgDwQ2GkCLlC00yzQeRAAARAAgUwAAYeMAhs7RaDr3O0UhQvc2S0IOCyk13XCYZMLiaIaCIDAZyXAq3l67wD5rJqhcRAAARAAgS0ggIDDFgwCVAABEAABEAABEAABEAABEAABEACBL40AAg5f2oiiPyAAAiAAAiAAAiAAAiAAAiAAAiCwBQR2MuCwBdyhAgiAAAiAAAiAAAiAAAiAAAiAAAh80QQQcPiihxedAwEQAAEQAAEQAAEQAAEQAAEQAIHPQwABh8/DHa2CAAiAAAiAAAiAAAiAAAiAAAiAwBdNAAGHGcP76el+2H/6iWt8fHgj3H/4YUbtOUU/hOdXb4Tnb+fUQVkQAAEQAAEQAAEQAAEQAAEQAAEQ2B4CCDj4sXhzEPbuvvapIYTX4WDvIEjOeQYcXt/dy4GOhmJIAgEQAAEQAAEQAAEQAAEQAAEQAIGtI4CAgxoSWsGwp4IKKivo1Q2UHgMOz8LhpSvhNv3dPFHFaYVCSr90JRweS5ZNv331WfgoWSGE05ulzu1LeoXDp3D0PYIOChU2QQAEQAAEQAAEQAAEQAAEQAAEtpwAAg5pgDjY8P1RiA9M+FEjh38/HL0r6RRwKEGBk3CoAgQUOChBBptXJEjQIj6WwfJy0KL9SAWtdGivvtBSsQ0CIAACIAACIAACIAACIAACIAACn5/AxIDDn+GHayfh6/T37S9/bUTz07f/3YjcVUJXOvKNxyzsIxU6QEABBr1SgbbLagW7iuFKeg+Erk/a+v3SA9a1Gxgp5bAFAiAAAiAAAiAAAiAAAiAAAiAAAp+TwMSAw/mo+LkCDtS7/gqHenUDlR8HHO6F0xay43vh9qWSV2T4AIPfj8JWBkZabSINBEAABEAABEAABEAABEAABEAABD4DAQQcFPTmOxzeHYX9xoqCEiwgATZAQKsYml+woIBDfm9DXAkh5XQdkq1XRYSAdzioYcImCIAACIAACIAACIAACIAACIDABSCAgIMfJPf4BK0qOHjjC41WOFBZ91hFDjJQYEIet7gXnutPa759Fu6nRzHuPzwxn8UkHeRznLUmSAEBEAABEAABEAABEAABEAABEACB7SOAgMNoTDqrG0ZVkAcCIAACIAACIAACIAACIAACIAACIBACAg6wAhAAARAAARAAARAAARAAARAAARAAgbUTQMBh7UghEARAAARAAARAAARAAARAAARAAARAAAEH2AAIgAAIgAAIgAAIgAAIgAAIgAAIgMDaCSDgsHakEAgCIAACIAACIAACIAACIAACIAACIICAA2wABEAABEAABEAABEAABEAABEAABEBg7QQQcBgipc9b3gunwzKrMtchY1UbyAcBEAABEAABEAABEAABEAABEACB7SKAgIMfjzcHYe/u65S6jmDBRBn0Cc69gyAte7WwDwIgAAIgAAIgAAIgAAIgAAIgAAIXiQACDmq0Pj3dD3vG6Y/BgucPb4Tbl66E25duhOdvpcKH8PwqpcW/+w8/SEYIwebdTqskTm9eCabc8b1w++qz8FFqUrDDtC8Z+AUBEAABEAABEAABEAABEAABEACBi0UAAYc0Xhxs+P4ofDLjRwEHFSRQAQIbPIgBhsPjWNnmqRUOb5+F+yrAQOWkTm6WVzrsh6N3OQUbIAACIAACIAACIAACIAACIAACIHDhCEwMOPwZfrh2Er5Of9/+8tdGOnr69r8bkbtK6Ou7e+oxCl1aBQs4WfYpwKBXO4Tw8eGNtHpByogcva/rnYRDFXyQ0vzLQYe9cPDGpGIHBEAABEAABEAABEAABEAABEAABC4MgYkBh/Ppz+cKOFDv+isc1Esj8woFHTiIbKYFHEIIx/diYOL4Xr26gURhhcP5GBtaAQEQAAEQAAEQAAEQAAEQAAEQ2CgBBBwU3t47HOQrFRRUuH3zhGvUj03I4xH14xXyDofYVFzZ8PymCmSIDniHg5DALwiAAAiAAAiAAAiAAAiAAAiAwAUngICDH8DqKxXlxZDmBY+BHpUoedXLIFPe4bF+pCI2RsEKCVzk5vGViowCGyAAAiAAAiAAAiAAAiAAAiAAAhefAAIO5z6G9eMY564CGgQBEAABEAABEAABEAABEAABEACBDRNAwGHDgIv4+KgFfUaz+jJFKYQtEAABEAABEAABEAABEAABEAABEPgiCCDg8EUMIzoBAiAAAiAAAiAAAiAAAiAAAiAAAttFYCcDDp/zaxjbNfzQBgRAAARAAARAAARAAARAAARAAAQ2QwABh81whVQQAAEQAAEQAAEQAAEQAAEQAAEQ2GkCCDjs9PC3Oh/fNWG+utEqhjQQ2CkCr8PB3l44eLNTnd58Z/Ep4M0zNi3g/G5wYAcEQAAEQAAEQGDjBBBw2Djii9bA/Anpx4c3wvQARctxo7T9cPTugrEyn1Ad6/767pY6q/Q51u+PwqeG+p+e7oe9vT3+W4ejreWR3HXIbKgdQvgUjr6PerP+nf616/ZSW3bbKxvTqb/7T1tkB/UG4zGotQVZxOcgvHaarGTwBQcctvOYn39+D2+fhftXn4WPbmyxCwIgAAIgAAIgAAJTCCDgMIXSRsq0J+gbaWrDQrsBB3ImWs6eS2dH9K53VTas9DrEf+EBB0G0CcdpEzK1vrMdfam8xt+VznarrV0LOLQYXKC07hhf2HFswO8FHNx5vFETSSAAAiAAAiAAAiAQEHD4HEZAk1F3h5ec9sOHz8L9S1cCfTrz9s2TotnxvZjGeffCac6Jd6u4vK8TQiCZOS/foToJh5fuhecqL3+mU7VjVyychMOrz8Lzm0m3SzfC87ch8J0v0Tf/prykIwcTGkEHcjijU+gDL/FOcn1n3ZWb6Oy/vrsfjp4e5Dv1xhElGekOvg2M2Dvk5k58Grtcb1WgRLchbak7wcxH0huc8lDrvQf3fgAAIABJREFUDaNDuatMsg6eRtti/bRuTo/cp+QYHd2VFQFFnjTZDA50dJA6q36tTMs7jwW3YfXR9Wg7j4NiSulmnI0ytq1SLtrXUWNVhx6jzI1lvg4H3x+Fwi6t0jFsRMdVK3isXtIvq5/Imrg6hI+RI7XaQ1gOjiXS/W6rjoFoduw4JB2T7RG7/adH/DiKtUndX9GriNXM99TYlhJ+S8vbM4HO/nHRGT8vurPP/e4cs5SnbWXZ+d2dwy/pc7/L28T5PbjrSzrH62sDj1OHQQcbkkEABEAABEAABHaMAAIO5z3g7IzUzkcMDsiEkoIC2qmX9BACBQVkcknbOjCh+6LL6fRAsq+URyAad69IFz2pDL6Ok12XNw2GwM6ucyqSM0kOXnGqotNQJurkGAmrgZPkmtO7xilIbfJaCtpWE2WeOCcnyToLXgfRJ8R+aadeN+y2rcyUSVw6OrjqarfBIcmITppw1nqr6rypZDCT4hxpDlKr1l3Vp0KuH1Jv9FvLLKVJB7EJW861W6rYsUh92su2UwqSPJFdUmmLZKs8Zx9cwjmRVR3HQffDtjXYa7Qrj4i0j4uBLD7uir0WfRxHKid27Oyhz8u362SmbLanPA5UpugTi7TqtdJ8e+P90tcQog5yXOhzDLWjxtyN36gF4pKZVQVr/Red3/m8q879uh13Di5Z6z+/r3ykgu1M+BZNsAUCIAACIAACIAACRGBiwOHP8MO1k/B1+vv2l782Qu+8Pld5Xu1UkAYTM+u0052lFHCoggpxhQKvcqBgAd11kgCEavD05pWQVy6o9Bg86ExiUzmrCyWqNrmM3a/LmwbjDvfdOhs8aTd3L+uJOpWJjpbLI3niJDWak6RSn1KKjOiElDvG5e4rlXHp4iT5Nv2+NNr4tXrEAtop4pSms+mEMUennwo4FGeaHCvFOzmScuc83zX2bfp9opbHIOky0MFp2931Mmm/6OacQBlnx7saQyknrUqfc1CnjL8UKb+jvFjK66ztKZUw7zGoxrc01t9q8K/baYxJS6LjVYq4vupyrv3pfXAyU2O2vrNJLtOqF4MCrYBR6UO91bMhq0MMQMTjxLft9+s2JPhTjrO6jG+PSthz5MTze15hYFeNkbzzPL+vDDiQQnxOUOebGgtSQAAEQAAEQAAEdpTAxIDD+dA5r0DAebXTpMZOUD0xWzYhTS00Ag8bnZByeyVoYXVv9Jono407YNrR4Wr1hL84eS6vqttot3KWi4yWUxAllDKVRN+m368qlITSj5JW6eCcvVJSbQ3atPK0cxcduOIkqT76NhvyK90bZZSGkzaNTJKnAk91P6Lt8OMx8mJRfxx1dYp9bwatjKaKiUkvO0ZnTnZ1WKdi57YfRc5wy49Hq53KrjsSu0yc3rqca396H5zMpJKtr21SdG7Xi7lx7CYFHgY2ZHWIwZpmwMGNn2jY+iVbaAc82/2x58ipAQdpWR5tKIGH8zy/rww4OPaiNX5BAARAAARAAARAgAgg4PA57IAntnLnPirQnZA2nPvWiga/CoHkTSnX6r7VhUrUKxr0oxzcVufRDprs68cGTHva0eEM7RyGEJiTBGdoIq+3exN+04K7O6+cgYFzQc5Ecc6VPFOHZE3TgSQ0ZVL/8933WKbtxCgdeJWGcNDp+s4tpWvnznLlMREHn/rkdPB9bzvabR2sRnbv9VP5GobVxz6SEblqHUjfgzfxefv8zQczFlFem12UFwMOsZyWXTRUtlESzVabgw0waB2Ys191YSQ2dky/JN/x4jIT+FfHl8ijvkr9yCfr7eyB+tDmJbLkV8uUtJFNSpkl3KWu+jXHUuyT6G37oPW0bbfGi8ZcB8NUi3xM6+OX8zrM7TlVBRwmn9/tqobzPL/Hd/WUALNmwMzU+UPnYRsEQAAEQAAEQAAEiAACDp/NDuxktzsh9S9/VC8O40lnflmjei9D6hPdBeu9NLK8eLIA8PKobnwsgwIOLVlSV+eXu3DWkZSy6rc1OWdnqiyvL8+ty7PYlJdeBDnBmbNOomXOk2X1+ERpi8oVHbRTER2Q5IS09FfdM5umX8VJLfLsi+5MXb9D7Sr92o4VOaniVMqS59in+BK/pIPRywZQjG7cXlse6SI6eFXNvmrLlk8BA27jINj3ekjgqW6j6KftQcuS/uYwBYV+zNgWPaxtaL1LO2ITwsHK0nYS6+t8qaMlt7d1e1k/xY54F1tty+DUgX0W29fsEmvlQFK5rMOgKcoqMosd2fraJjWbxFXadX2tubYU0eNubcjoZdg5HaR9JT6ORTleVRZv9vtnSy45v0dHv3/ePb/zewx2yLUkv9+H7KvBzPYceyAAAiAAAiAAArtOAAGHXbeASf23KxwmVUEhEPjiCZDD2ndGv/juX5AO2qCAVnrN4zcI8OhWt28b5/ftGxNoBAIgAAIgAAJfDgEEHL6csdxgTzAh3SBciL6wBNbssF5YDtut+LkFHLYbw0A7nN8HcJAFAiAAAiAAAiBwRgIIOJwRIKqDAAiAAAiAAAiAAAiAAAiAAAiAAAjUBBBwqJkgBQRAAARAAARAAARAAARAAARAAARA4IwEEHA4I0BUBwEQAAEQAAEQAAEQAAEQAAEQAAEQqAkg4FAzQQoIgAAIgAAIgAAIgAAIgAAIgAAIgMAZCSDgcEaA51b9+F64rT6JeW7tXpiG4mfxpn7C70zd4s9S4usEZ2LYqPyfJ9+FB9cPw38aeUhaToA/d3v1Wfi4XARqggAIgAAIgAAIgAAIgMAiAgg4LMK26UofwvOrN8Lzt6qdcwo4kNN3+GSGa/Lqx/Dg8jf8N6ue6prd/D3c+sc/w61XIby888/w1Z3fbXZ3b5sCDqTLfjh6V5R9fXcvHLwp+7z17ijsL/qO/Z/hh2sn4etrp+GnT1bmy/+l9Pj3w7903l/hp/+RPFfvX//Odb7+3z91pQXbS8cvhNUBh4/h+Pp34fj9arWy7bz6OXz1j5/Dy9VVFpag/rblb06Hwdcx6Dxx88T0BQEHgwM7IAACIAACIAACIAAC50gAAYdzhG2bGjgNoRFwsJU3tjc74JA0WVqv7gg5cD+FR+/nBhxqSZ8vZYMBh0//F7699u/wMlDQwQYOPvxyGkrAwOZTIOLbX/6KSLKMEILeDiGYcosAbnL85gUcrj1+F8JnDjg0daAVMisDTf3zQ/8zjyGERsBh3jDGwF0VHJsnBKVBAARAAARAAARAAARAgAkg4PA5DIHubO/Vd7xPb14Jty/Jn6xwoOCDpN0Lp1lf+na6lImJdCfz/sMPuURvg+8kp1UJDy7/GP6ggu8Pw2FOiysWHlyOd5O5/J3fijgum+ql1HbAgRxEkfVN+PVVEdHfKg7rh8c/BXbYyC9+uh/27x4wt727R+Ho+72wt5cea+BHHGh/L/hHKl7f3Q9HTw84r5Vf6dFadZDTojNGcnLbSgCtYoh59JtWOCjdSl7SO8k9yvX8YxrkdNZ9ik3agEIItIJBBSA4kCBBBipLQYr0L61ooBUQFKTIgQiWcRK+/p//C2RFlPfDLxTgSCsjZPUD1y9tcaAjy2+PnzTd/v0t/Cq213ik4o87xYbEJttySiqtLmDbef8iXLv+gvtDudGmXvAqmq/+XknzlcvjNJcewrvw6Po/g+SJTfIKBiqr/9SKnJ4OpAfZczfo0Dk/xN41AhFvn4X7+bxxRa1woHNEOnfoRyq4vD6XhEDnnsNj4RftDkEH4YFfEAABEAABEAABEACBpQQQcFhKbmk9dibscnsSxcue81Lo1goHch6sk2ADDK06LSXJubPBAl2qHTiwdVplWmnkKJYgA8lIy+FbTvjd11qNapsdNAowZGesXkXQuvPLQQC5m8x1vVPvm3odDlL5/BgE6Wv0q50+1i+XqXXLsnRzqS8SJKEysh2LzQk4qKACBwT+HX6SYAIFH1QQgQIKP/3vSaCAA61oiI9eUP2TGGDQZXMgIT6SkR/ToDY4AKHa1X1bsk2BLBdwILt6kINdaoVDYleCOHt9B17pQgEH/YgFBQXo8R1eCeGDDyl4kAMHLCcGH7gO71OApf1IhWq2vcnHgbNH7ld9fsgCKlt0gcfWCgcKMOiAQ/ABhvrcEkIMrll7zFpgAwRAAARAAARAAARAAAQmEZgYcIjOiDwbXu6ITmpjcqHTt/+dXPYsBc+rnUrHloPBhXywwO9ToYZToB0JvV01rBNk1UH7WfhW4IBql+AB1a8DFnU9ddda7l5LwEGrM3E7BxPIIeOAQO3U5zJKpnX0baCA8rLDKkGJIGUo8LAfDp5+CuHNQSMQoB1Fr4vfD8HqkRTMfYn7Lf1VV9wmHZNllUHgRyz+HV5SIEAFDPhYTQGHl+qRCwk0xF8lywUn9LFuV0PEYAWdE3IQwmk4e7cKOKgAAwvz+7NbSCsc1Ms1kgi9moaT8soICjDER3ykNVv2DAEHEsjnBL0aRtuVtCi/tV1Vj1BMDDiYeq063CS1t+eCbaILfkEABEAABEAABEAABEBgNYGJAYfVgtZR4rwCAefVTpNJ8w6mDzD4fZLUCDjwncr4WAWtdihLopstu8R24KEOHKRq5AzSneb3h+HXxksl63p2VYRpnJ0s5ezTIwp5dYApmXeyM56d9Nr5ymVyLe/oSzBBFag2k9w3R+Hg6etwdPcovH6671746OV4Xfy+1yM1mvsS91v6V+rlBBUk4LT0UsgUbKCk8j6GFDCURyLSoxMUKIiPQ6jARStgkdos8mLCy/89DT/Qn3k5ZSq85GdOwIGPI2dDOWjUb9wGC0q5Kv08Ag6tAGTz/JD0pPL+OPHBAr9PVZvBSDrHxBVTpzfto1mxNbJhv+Km8MIWCIAACIAACIAACIAACEwhgIDDFErrLpOcJf2MND1DLe9f4Mcr3PsZegEHulN5/+FJdh7mqlpWLsSaFDgoS9i1tLiy4fjJj82vBNQBh7gqYj1frkjvcKDVBtlJr536lsNuVxb4QIHuX9nmOvSeiHcUKNgP+9/7923UcqiOLD8nPfI7HJJYnZ9byn2JKbX+1E6Rm+vxhg84uPcx8DscSiBBVjRw1fTIBb/TQa1oiO+BkPc+OHnuJZUcqMiPVJR2rI4z96qAg7Uhts0zrJIhbarAgqhIL5dUj1Tw+xmaj1TQiob0GAbXLe+sEFFTftlGegGSxvmBZFpbTq1QMCE/akVBSf0OB1XGPVJBOTFIeRIOq7xod/r8lCThBwRAAARAAARAAARAAARmEUDAYRaudRZ2Tis7DvEFbzGAIHcdkxMhL3+jX+MgdJyMnqrk1OVHHL4JD9wz8yHoRyHsYxfs8Lny0QnUL/Xz721Qea5uT8VWenbGs5NeAg7Rwbd3u8VZsk6aY95qSF7oZ15IKc/UR0csP4ZBKzPEaUxOIuXt08oI91lMDpTwyyZJz7RsPvclKpL7mPWK7UkgIyan1QryIkf6zasa9Kcv/aMOup4NEMRVDu7FkOmlkfIYlXl0QgcsSCnetzJzF6ZseJsk+5T3Nqi8wye/Tf4sZq/ZbsCBVoTQZ1jlBZAq+BBCDDJInrw0UtogmZI36TOutFJB7EaEVL/OVp2t6OLlZbP3wqle4aDOKflltPk9MWnlw6US6Iwy48oGOX50O9gGARAAARAAARAAARAAgbkEEHCYS2yHy/vVEDuMYie67t/ZsBOd3tJO2sDZlioJtUAABEAABEAABEAABEDAEUDAwQHBbk2AAg0PLn8T1vV4RN0CUraRAAIO2zgq0AkEQAAEQAAEQAAEQAAELg4BBBwuzlhBUxAAARAAARAAARAAARAAARAAARC4MAQQcLgwQwVFQQAEQAAEQAAEQAAEQAAEQAAEQODiEEDA4eKMFTQFARAAARAAARAAARAAARAAARAAgQtDAAGHCzNUSxSNX7A4PF5SF3V2iQB/acF8mWGXeo++XiwC/tOkF0v7prb0WdZ//Bz4U7XNAutMjPz811bW2cK2yOJPTJuvOm2LZtADBEAABEAABHaHAAIOX/RYzw840ATt/sMPW0klO8XvX4Rr//gpPHof1Rx96pBK0OcOb71qdInknLeTPWizq2elOjkM852TkfzMtmprXsKqsZgnbTB2cwV91vLLxmuJyuvmP12Hs/XR6h0dYv7UaPP4jPn2mJ7a/tRy03u+lpILAg6j43msU+Q3NeBA7fDnXhfoONbDffp1XHhR7vyAA10z74XTRa2hEgiAAAiAAAiAQIsAAg4tKueStvnJ1pJubH3A4c7vIVzggEPXSRgEIupxXOY0dduuG1icYh3HxWJyxfPQOTe2oY11M+mrucwu+vLm5Jyl7U7dDRwT5zcWc9gtK3texwa1w8EJH3B4cxD2vj8Kn4bqfwpH3++Ho3d1oU9P98P+03HtutamU3oBB+rHXjh4s+n2IR8EQAAEQAAEvjwCCDh8jjF9dxT29/zk5UN4fvVKuH0p/d08UZrZvLwC4fheuH3zmapX7szwnZ0kyzxS8fZZuN+qQ+nSdv69EZ6/VWo0Nz+G4+vxs5n06cwHd37Lpf7z5Ltw+OQw/Erp9Hf9MPwn5/5W0i9/E35trUDIZeMGOQt8py1YByU6ES/CrX/8M/BdUQpK0D+eIKc0yeOVAe/Co+s+PU2qQwgk79ZjWkXh5FUyyyqL2CDpVeTENPX/wIGqnQenY+oTleM+im70K/3lQEzJz3cwuxxIt6hz724yM5e2mnebVf8SO99uuROt2vpbZkmPzHO/VDuaS9SlMLcsyoqP0fi9vPNTePSYlq9HTllX241qr83h93Dr+ovwKI9J0a0IsLbK6W48MgcavzsvlG2WPk3Rm3Q0/enZAythx0LXM301K2msTYredhz8MWPrZFstgPh40+3nrMbxonWT9mP5yPkRnSN4bKeMxXj8dFtfKZs0x0x1vNv+5n7RmDfHVpcv48196tmDs5/YX1c3Qywbpj9ebyPTsqPx5X40xoOCBv2gAwXV9zpBhUbAna5n3WtPXK0n+XJNiwHyZ+FQ6uXHJ1T5nBZZUJ3Dh+p6l661pzfV9Vfkmetw7A+CDsWmsAUCIAACIAACUwgg4DCF0jrLcLChcceHgwc6yFAapYlQDjKU5BB4glaCAq3VCVRXJmdcNQUWJI0DE2pS1ZKhm6y2X/1oggw6nwIODy7/GP5IiX/ckcBCDFK0ggyv7+6FvT37t2qCFyfSMkkmx0O2Y8PaadX68UoJ40jE3ChPJvDRIYjODW1b2UZect6zk2Ez+46VC6BwNXZQUuDEyYkOj+hXZaaEWtcuB6rRcCY4YNPg02uR0olddk7MOGiOVFKNE/VVtcP8VYCF2bNDNOiz4tUfv/iIRmlL6TDqlNOvFKX6JcCk9c5llF45zWyQjNQvGgMViNHy2KnPjFp61+Ntmgk2n2S37VTpYwW4R5O8Dp16K/tv9TJNtmwyFahtmdovY9G03UoXW0fz9vV1Xp9dtK8mV2pbHQ+1jAa/gT0QhpqBoTfcse0PxmAoJWXSSoe9g/DalF3hnFOdu7oGBdXLtcyICjHgLtcsncfXL/UIRPN61wg43M51vOzeCgdpNa502L6VGaIffkEABEAABEBg+whMDDj8GX64dhK+Tn/f/vLXRnpy+va/G5HrhZ5XO77d0JyYpVKywsBNjkIYTIAGQQppe+UEjNpVbc4OOLw/DIfV6oXYelzh8FFUKb9Ux6x2KFlLtlZNnrsT845DY+UpJzpN8umOor27OkXrhkORqvn2ODk5G8U51m30ZEUHSu7eaweHanc5UGaDxbC8VkdtU1/ad5hrnUV+1X+lC5Xp3cEtbdm76l6e3pc2RWW/L+n6t1/G9alyaDuOnIxtWmWRXxao+s3tq32vg99nB1lWumTlB/bADrBaHZPrkM7E0wfWvCxfxrEQedLXHCyRjPRbMVP5qv8qlTer/ldBO69PayxcGaWLthluUOvSZefkaaWVbJ1ctht1dZtU0O3XDIq0VVu+fyRr2XkttcTXthRI7wXVs1LtxyzoWkUrGKrAgrtGZTEhhJXXq0ZdX8fuD663ueEYdLABk5yJDRAAARAAARAAAUdgYsDB1drQ7nkFAs6rnSamVZOxKvAwmACtI+BAMs4ScJBONgIPSwIOS1c4lLuKtWPRnZi7Cbx0pTUZL/JjqbkTdC9T2lq5WoF0JMfUOGwN50SCIdnpnMGBlGmw6HIryldbsZ/x8RYblKl1FvkVG6ULl+HHW5wDzFxUmnLovDySIeMnbUbFo3Nt9ay6NAjUuD4pHViK3+fE2KboY8Zf9TvXT+M+1rsea6pPdcojDO0yHKgg+8p2wy2HwCsidFDB9VWK5d8V+Txe3o47OolMz0PSm8Ez176v2xwLV0eV8TbUOj5qdk6e0rcdENIFGnVbfVDnAWsTWtbq7ap/qQrbzNyAajOQPljhUK1usPpWgYdG0EBq2GCBpKrfRl1fh9orKwgH11sWixUOii42QQAEQAAEQGASAQQcJmFac6HmOxx0G3rSE5d8lgmRKreGgIOdbMU7RrfVIxaqtQmb9F6G8ghFN+AQ4vsbWo9UTGikKmInz7UTQ5Po4uCp6uwE1cv0rTxyBJRjq6rbcpRBZVtt1TplMcrJyWnVhndG2jqZfpJcp7fJ92145yY9HmEDHbYS9d+3UZhEFsWZJwZqZQizT1xJV+dIiQNMOrMMXZ7UMGMXZUudogMVtKyyvEpG7Bvl5xUHMYkfE9H6peQkW9mPG0vTVq5kOUSG6pEKx0Hs1sgyfW8Hi6g5qiP1o3PctuOmM5301e0aebk/smE5S6r9pTKKF/VD9deW7feLymm9Yj0rm7mqIEpdnmrZOiYoMLBJo6fpQxzbzFwXdLahs+K204USjWw3nn58ncBoV53x1o8+uXq0a4+fRgGVtOQdDhRUXvWYnA0K0PWwsfJhLSscSLZ+lMPvq86GQRBFF8M2CIAACIAACICAIYCAg8Fxnjs0eSnPvdIES16IRb82wBAnXJKf8wYBB7lLJHVuy6RKVlA0X4pF/ddt6YlYm018T0N5aeThk/IIRT/gQJPp9ChGeqHkWYIPdoJMk3430WYHLS4Z9s4kOSLyCII4CnGyXtKL00xOQUn3sroBh66z0dA1YfY6iG4yCiZfHCvdT35B3QQOuo70TeQlp0b4eKc76mDboLSsa5Lt90Ve4Zruxkv7ygk1jiJxVHdfy9ilF0EmvQ0bVZ7YlTo0jlb3kq+c4gTc1Mv6OSdRjzP1PZeTUUu/qR/Ul2uPaTWICjgIA/rtjYPT2zDSTemxdfZg+qMZ6Tqkg+mDs3+T51782RmLbAvNoEFS3uugWHi9yxgOdOuOxWD8vK2ovnodtB3LOUBsPPdX24YeoxSklPL8K215DsoeWITJtzbbOjZ1s+Y4rXSwsnQ9s00rFeZ+pYKC7c06+rpDj1aUFyBzm+66JY9d2MCE0s6V5+tgCqT7a63IktomPwff48qGVYESkYFfEAABEAABEACBQgABh8JiN7YaS0x3o+PTe2kn49PrtUv2gwrmjmq7MlIXEBiNX9c5X9DOqMqidrqOceuOfmp9UGek32fPO0e9F43FZwdUr3BYp0qfi8mU1Q3r7GdLVjdI0SqMNBAAARAAARAAgTMTQMDhzAgvmAAEHFYO2MhhXVkZBT47gdH4fS5HaxKUgRO+1XpP6hwKzSYwsIfZsvI7OdIKLb9aYr7AC1sDAYcLO3RQHARAAARA4IISQMDhgg4c1AYBEAABEAABEAABEAABEAABEACBbSaAgMM2jw50AwEQAAEQAAEQAAEQAAEQAAEQAIELSmAnAw4XdKygNgiAAAiAAAiAAAiAAAiAAAiAAAhcGAIIOFyYoYKiIAACIAACIAACIAACIAACIAACIHBxCCDgcHHGCpqCAAiAAAiAAAiAAAiAAAiAAAiAwIUhgIDDjKH69HQ/7D/9xDXW8abrdciYoT6KggAIgAAIgAAIgAAIgAAIgAAIgMC5EUDAwaN+cxD27r72qSGE1+Fg7yBIzjqCBVNl0LfLJdDRUAxJIAACIAACIAACIAACIAACIAACILB1BBBwUENCKxj2VFBBZQW9uoHSY7DgWTi8dCXcpr+bJ6r4SUm/dCUcHqus43uxfKp3/+GHEAKVvxGevy3lTm9eCTGP0j6Fo+8RdCh0sAUCIAACIAACIAACIAACIAACILDtBBBwSCPEwYbvj0J8YMIPGzn8++HoXUmngMPtS/fCKSd9CM+vSmBBb1OmCia8fRbu5zoStKCAg92OdUQ2Z/N/tNKhvfqilMEWCIAACIAACIAACIAACIAACIAACGwDgYkBhz/DD9dOwtfp79tf/tqI7qdv/7sRuauErnTkG49Z+Mchyj4FGGywgFYr0CqHUiZqZPYpGHH1WfhIWcf31OoGqz3r2g2M2LLYAwEQAAEQAAEQAAEQAAEQAAEQAIHPRWBiwOF81PtcAQfqXX+FQ726gcqbYEEIQYIKrdUJkufr+P3Tm/GxitObNmAh9FcGRqQgfkEABEAABEAABEAABEAABEAABEDgMxNAwEENQPMdDu+Own5jRYENFqjHJoJ7pIIfo0jvZ6D3N8gqBk7X72mQlQ3PwqF5HwQpiHc4qGHCJgiAAAiAAAiAAAiAAAiAAAiAwAUggICDHyT3+AStKjh44wvFFQ78ssj08kfzYsgUTJD8kheDEZx+9Vk4fXjDPTpBgQt5F0Rpk3TAVyoKD2yBAAiAAAiAAAiAAAiAAAiAAAhsPwEEHEZj1FndMKpypjz9HoczCUJlEAABEAABEAABEAABEAABEAABEPi8BBBw+Lz8Y+t5RUT73Q3boCJ0AAEQAAEQAAEQAAEQAAEQAAEQAIE5BBBwmEMLZUEABEAABEAABEAABEAABEAABEAABCYR2KqAwySNUQgEQAAEQAAEQAAEQAAEQAAEQAAEQGDrCSDgsPVDBAVBAARAAARAAARAAARAAARAAARA4OIRQMDh4o0ZNAYBEACQ6+8eAAAEdElEQVQBEAABEAABEAABEAABEACBrSfwBQQcXoeDvYPwOqE+vVl/VjKPwuyvQKjPWF7CCx0zR2yAAAiAAAiAAAiAAAiAAAiAAAiAwAoCFyTg8Ckcfb8fjt7Vvfn0dD/sP/2UM9YbcBCxJ+HQBxzok5kq0CEl8QsCIAACIAACIAACIAACIAACIAACIBDCBQg40AqGPRNUKANnVzdQOgccHj4L9y9dCbcvXQn3H34IIeiVCjG95MVgwuFNSr8Rnj+8p+pJS42AA2W9OQh7CDoIJPyCAAiAAAiAAAiAAAiAAAiAAAiAQCaw5QGHGGw4eJP1tRvk8N+VhyliFgUcbstqBHqEQrYpu/lIBQUTYmCC6159Fj4e3wu3b56otjoBByrBKx3aqy+UAGyCAAiAAAiAAAiAAAiAAAiAAAiAwE4RmBhw+DP8cO0kfJ3+vv3lr81DWunItx+zsI9UuEBBN+AQ38+Q684JOBAJ1nUvdAMjm6eFFkAABEAABEAABEAABEAABEAABEBgqwhMDDh8Lp0HKxwaqxtIyxw0YJXPIeCwMjDyudihXRAAARAAARAAARAAARAAARAAARD4fAS2POBAYNrvcHh9t72iYGXAQT9iwdxLUCLXnbrCAe9w+HyWi5ZBAARAAARAAARAAARAAARAAAS2msAFCDgQP/f4BK0q+P4olG9TFMY5aMBJJZggJSifXhjpXxp5qldH5IAD1S/luR6944GE8cqG8jlOkY9fEAABEAABEAABEAABEAABEAABEACBC/GVinqYeqsb6pJIAQEQAAEQAAEQAAEQAAEQAAEQAAEQ+BwELsgKh8+BBm2CAAiAAAiAAAiAAAiAAAiAAAiAAAgsJYCAw1JyqAcCIAACIAACIAACIAACIAACIAACINAlgIBDFw0yQAAEQAAEQAAEQAAEQAAEQAAEQAAElhJAwGEpOdQDARAAARAAARAAARAAARAAARAAARDoEkDAoYsGGSAAAiAAAiAAAiAAAiAAAiAAAiAAAksJTAw4/BV++p+T8PW1+PfDv5Y2h3ogAAIgAAIgAAIgAAIgAAIgAAIgAAK7QGBawOFf/w7f/vJX5PGvf4evr/07vNwFOugjCIAACIAACIAACIAACIAACIAACIDAIgLTAg5G9J/hBwQcDBHsgAAIgAAIgAAIgAAIgAAIgAAIgAAIWALzAw60wuF//i98sHKwBwIgAAIgAAIgAAIgAAIgAAIgAAIgAAKZwLyAw6f/C99eOw0/fcr1sQECIAACIAACIAACIAACIAACIAACIAACFYHpAQcONpwEvDCyYogEEAABEAABEAABEAABEAABEAABEAABR2BiwIHe24Bgg2OHXRAAARAAARAAARAAARAAARAAARAAgQ6BSQGHl/9bPokpn8bMX63oCEYyCIAACIAACIAACIAACIAACIAACIDA7hKYFHDYXTzoOQiAAAiAAAiAAAiAAAiAAAiAAAiAwBICCDgsoYY6IAACIAACIAACIAACIAACIAACIAACQwL/H4UfJYYK4dE+AAAAAElFTkSuQmCC;" vertex="1" parent="1">
          <mxGeometry x="-660" y="80" width="940" height="620.11" as="geometry" />
        </mxCell>
        <mxCell id="pqZaEl-TZBbs2sVHaPAl-3" value="" style="shape=curlyBracket;whiteSpace=wrap;html=1;rounded=1;flipH=1;labelPosition=right;verticalLabelPosition=middle;align=left;verticalAlign=middle;" vertex="1" parent="1">
          <mxGeometry x="-50" y="250" width="20" height="110" as="geometry" />
        </mxCell>
        <mxCell id="pqZaEl-TZBbs2sVHaPAl-4" value="三方JS库" style="text;html=1;strokeColor=none;fillColor=none;align=center;verticalAlign=middle;whiteSpace=wrap;rounded=0;" vertex="1" parent="1">
          <mxGeometry x="-10" y="290" width="60" height="30" as="geometry" />
        </mxCell>
        <mxCell id="pqZaEl-TZBbs2sVHaPAl-5" value="" style="shape=curlyBracket;whiteSpace=wrap;html=1;rounded=1;flipH=1;labelPosition=right;verticalLabelPosition=middle;align=left;verticalAlign=middle;" vertex="1" parent="1">
          <mxGeometry y="370" width="20" height="140" as="geometry" />
        </mxCell>
        <mxCell id="pqZaEl-TZBbs2sVHaPAl-6" value="业务JS" style="text;html=1;strokeColor=none;fillColor=none;align=center;verticalAlign=middle;whiteSpace=wrap;rounded=0;" vertex="1" parent="1">
          <mxGeometry x="40" y="430" width="60" height="30" as="geometry" />
        </mxCell>
        <mxCell id="pqZaEl-TZBbs2sVHaPAl-7" value="" style="shape=curlyBracket;whiteSpace=wrap;html=1;rounded=1;flipH=1;labelPosition=right;verticalLabelPosition=middle;align=left;verticalAlign=middle;" vertex="1" parent="1">
          <mxGeometry y="515" width="20" height="75" as="geometry" />
        </mxCell>
        <mxCell id="pqZaEl-TZBbs2sVHaPAl-8" value="CSS" style="text;html=1;strokeColor=none;fillColor=none;align=center;verticalAlign=middle;whiteSpace=wrap;rounded=0;" vertex="1" parent="1">
          <mxGeometry x="40" y="538" width="60" height="30" as="geometry" />
        </mxCell>
      </root>
    </mxGraphModel>
  </diagram>
</mxfile>
